<?xml version="1.0" encoding="utf-8"?>
<!-- Generator: Adobe Illustrator 23.0.0, SVG Export Plug-In . SVG Version: 6.00 Build 0)  -->
<svg version="1.1" xmlns="http://www.w3.org/2000/svg" xmlns:xlink="http://www.w3.org/1999/xlink" x="0px" y="0px"
	 viewBox="0 0 2475 1650" style="enable-background:new 0 0 2475 1650;" xml:space="preserve">
<style type="text/css">
	.st0{fill:url(#SVGID_1_);}
	.st1{fill:#BDD0FB;}
	.st2{fill:#DCE5FE;}
	.st3{fill:#91B3FA;}
	.st4{fill:url(#SVGID_2_);}
	.st5{fill:#FFFFFF;}
	.st6{fill:url(#SVGID_3_);}
	.st7{fill:url(#SVGID_4_);}
	.st8{fill:url(#SVGID_5_);}
	.st9{opacity:0.78;fill:#FFFFFF;}
	.st10{fill:url(#SVGID_6_);}
	.st11{fill:url(#SVGID_7_);}
	.st12{fill:url(#SVGID_8_);}
	.st13{fill:url(#SVGID_9_);}
	.st14{fill:url(#SVGID_10_);}
	.st15{fill:#7D97F4;}
	.st16{fill:url(#SVGID_11_);}
	.st17{fill:url(#SVGID_12_);}
	.st18{fill:url(#SVGID_13_);}
	.st19{fill:url(#SVGID_14_);}
	.st20{fill:url(#SVGID_15_);}
	.st21{fill:url(#SVGID_16_);}
	.st22{fill:url(#SVGID_17_);}
	.st23{fill:url(#SVGID_18_);}
	.st24{fill:url(#SVGID_19_);}
	.st25{fill:url(#SVGID_20_);}
	.st26{fill:url(#SVGID_21_);}
	.st27{fill:url(#SVGID_22_);}
	.st28{fill:url(#SVGID_23_);}
	.st29{fill:url(#SVGID_24_);}
	.st30{fill:url(#SVGID_25_);}
	.st31{fill:url(#SVGID_26_);}
	.st32{fill:url(#SVGID_27_);}
	.st33{fill:url(#SVGID_28_);}
	.st34{fill:url(#SVGID_29_);}
	.st35{fill:url(#SVGID_30_);}
	.st36{fill:url(#SVGID_31_);}
	.st37{fill:url(#SVGID_32_);}
	.st38{fill:url(#SVGID_33_);}
	.st39{fill:url(#SVGID_34_);}
	.st40{fill:url(#SVGID_35_);}
	.st41{fill:url(#SVGID_36_);}
	.st42{fill:url(#SVGID_37_);}
	.st43{fill:url(#SVGID_38_);}
	.st44{fill:url(#SVGID_39_);}
	.st45{fill:url(#SVGID_40_);}
	.st46{fill:url(#SVGID_41_);}
	.st47{fill:url(#SVGID_42_);}
	.st48{fill:url(#SVGID_43_);}
	.st49{fill:url(#SVGID_44_);}
	.st50{fill:url(#SVGID_45_);}
	.st51{fill:url(#SVGID_46_);}
	.st52{fill:url(#SVGID_47_);}
	.st53{fill:url(#SVGID_48_);}
	.st54{fill:url(#SVGID_49_);}
	.st55{fill:url(#SVGID_50_);}
	.st56{fill:url(#SVGID_51_);}
	.st57{fill:url(#SVGID_52_);}
	.st58{fill:url(#SVGID_53_);}
	.st59{fill:url(#SVGID_54_);}
	.st60{fill:url(#SVGID_55_);}
	.st61{fill:url(#SVGID_56_);}
	.st62{fill:url(#SVGID_57_);}
	.st63{fill:url(#SVGID_58_);}
	.st64{fill:url(#SVGID_59_);}
	.st65{fill:url(#SVGID_60_);}
	.st66{fill:url(#SVGID_61_);}
	.st67{fill:url(#SVGID_62_);}
	.st68{fill:url(#SVGID_63_);}
	.st69{fill:url(#SVGID_64_);}
	.st70{fill:url(#SVGID_65_);}
	.st71{fill:url(#SVGID_66_);}
	.st72{fill:url(#SVGID_67_);}
	.st73{fill:url(#SVGID_68_);}
	.st74{fill:url(#SVGID_69_);}
	.st75{fill:url(#SVGID_70_);}
	.st76{fill:url(#SVGID_71_);}
	.st77{fill:url(#SVGID_72_);}
	.st78{fill:url(#SVGID_73_);}
	.st79{fill:url(#SVGID_74_);}
	.st80{fill:url(#SVGID_75_);}
	.st81{fill:url(#SVGID_76_);}
	.st82{fill:url(#SVGID_77_);}
	.st83{fill:url(#SVGID_78_);}
	.st84{fill:url(#SVGID_79_);}
	.st85{fill:url(#SVGID_80_);}
	.st86{fill:url(#SVGID_81_);}
	.st87{fill:url(#SVGID_82_);}
	.st88{fill:url(#SVGID_83_);}
	.st89{fill:url(#SVGID_84_);}
	.st90{fill:url(#SVGID_85_);}
	.st91{fill:url(#SVGID_86_);}
	.st92{fill:url(#SVGID_87_);}
	.st93{fill:url(#SVGID_88_);}
	.st94{fill:url(#SVGID_89_);}
	.st95{fill:url(#SVGID_90_);}
</style>
<g id="Background">
</g>
<g id="Illustration">
	<g>
		
			<linearGradient id="SVGID_1_" gradientUnits="userSpaceOnUse" x1="-1567.5389" y1="797.9671" x2="644.0217" y2="797.9671" gradientTransform="matrix(-1 0 0 1 760.1269 0)">
			<stop  offset="0" style="stop-color:#DAE3FE"/>
			<stop  offset="1" style="stop-color:#E9EFFD"/>
		</linearGradient>
		<path class="st0" d="M1764.41,1408.04c0,0,196.67-23.06,290.05-5.05c93.38,18.01,324.7-79.7,248.04-233.06
			c-76.67-153.36-173.81-191.06-73.52-274.92c100.29-83.86,142.17-300.9,38.77-390.66c-103.41-89.75-134.53,2.59-216.92-30.46
			c-82.38-33.06,22.23-205.47-210.51-254.2c-232.74-48.73-413.58,98.5-519.4,81.87C1215.1,284.93,1052.4,182.99,938.2,187.29
			c-114.2,4.29-100.03,154.36-251.56,145.61c-151.53-8.75-270.48-23.86-368.65,103.89c-98.17,127.75-74.56,289.77,19.03,353.8
			c93.59,64.03,75.33,150.14-97.23,155.08c-172.56,4.94-153.12,183.54-12.31,315.38c140.81,131.85,261.61,133.31,402.26,141.95
			C770.39,1411.63,1764.41,1408.04,1764.41,1408.04z"/>
		<g>
			<path class="st1" d="M1485.26,1330.38c-2.02,3.89-7.9,1.02-6.08-2.97c35.01-76.47,23.45-42.51,53-107.71
				c73.88-162.99,46.47-253.02,60.6-344.04s103.94-183.6,239.99-101.46c111.1,67.08,199.36,116.77,245.66,124.37
				c8.87,1.45,12.38,12.34,6.11,18.77c-41.42,42.53-146.7,135-258.33,109.69c-143.7-32.58-133.54-71.53-174.78-43.69
				c-41.24,27.84-51.26,64.8-70.62,133.93C1564.14,1176.8,1562.9,1181.29,1485.26,1330.38z"/>
			<path class="st2" d="M1586.07,1057.54c-0.86-11.89-0.84-23.42-0.29-35.1c0.59-11.64,1.68-23.28,3.6-34.81
				c3.83-23.03,10.36-45.9,21.41-66.92c5.56-10.46,12.27-20.39,20.25-29.29c7.98-8.87,17.19-16.77,27.47-22.94
				c10.26-6.19,21.52-10.68,32.89-13.87c5.64-1.45,11.25-3.01,16.98-4.15c5.68-1.33,11.44-2.28,17.2-3.27
				c11.55-1.74,23.22-2.87,34.95-3.05c11.72-0.09,23.46,0.72,35.04,2.53c11.58,1.8,22.99,4.57,34.08,8.12
				c11.1,3.55,21.92,7.8,32.54,12.32c21.24,9.08,41.9,18.99,63.27,26.99c21.31,8.13,43.47,13.89,66.09,16.94l0.01,0
				c1.07,0.14,1.82,1.13,1.67,2.2c-0.14,1.05-1.1,1.79-2.14,1.68c-23-2.47-45.75-7.74-67.59-15.41
				c-21.9-7.54-42.87-17.25-64.06-25.77c-21.16-8.56-42.8-15.7-65.12-18.83c-11.14-1.59-22.4-2.22-33.65-1.99
				c-11.26,0.32-22.48,1.56-33.62,3.38c-5.55,1.03-11.11,2.02-16.61,3.39c-5.53,1.18-10.98,2.77-16.44,4.25
				c-10.71,3.11-20.92,7.25-30.34,12.99c-18.81,11.5-33.51,28.9-43.77,48.59c-10.4,19.7-16.78,41.56-20.52,63.78
				c-1.85,11.13-3.15,22.38-3.83,33.67c-0.68,11.25-0.82,22.74-0.15,33.78l0.01,0.18c0.16,2.58-1.81,4.8-4.39,4.95
				C1588.46,1062.03,1586.25,1060.09,1586.07,1057.54z"/>
		</g>
		<g>
			<path class="st3" d="M936.87,755.12c0,0-7.15-124.13-66.91-152.64c-59.76-28.51-169.95-40.4-188.5-217.96
				c-10.86-103.95-17.15-149.28-20.5-168.99c-1.3-7.69,5.07-14.5,12.83-13.69c54.87,5.78,233.84,33.38,280.41,150.21
				C1009.41,490.55,936.87,755.12,936.87,755.12z"/>
			<path class="st2" d="M719.92,247.54c18.06,13.5,34.59,28.54,50.68,44.15l5.99,5.89l5.86,6.02c3.92,4,7.83,8.02,11.6,12.16
				c7.68,8.17,14.97,16.68,22.34,25.13c7.13,8.65,14.36,17.24,21.08,26.22c6.95,8.82,13.46,17.96,20,27.09
				c12.66,18.58,25.09,37.19,35.81,57.19c2.67,5.01,5.41,9.98,8,15.03l7.02,15.49l3.51,7.75l3.04,7.93l5.97,15.9l5.08,16.19
				l2.52,8.1l2.11,8.21c1.38,5.48,2.86,10.93,4.1,16.44l3.34,16.6c8.19,44.42,11.08,89.52,6.75,134.67
				c-0.26,2.67-2.62,4.62-5.29,4.36c-2.57-0.25-4.47-2.45-4.38-4.99l0.01-0.31c0.79-21.69,0.09-43.91-1.97-65.75
				c-1.96-21.9-5.29-43.64-9.63-65.12l-3.55-16.05c-1.33-5.31-2.83-10.58-4.19-15.88l-2.1-7.93l-2.51-7.81l-5.04-15.6l-5.86-15.29
				l-2.91-7.66l-3.36-7.46l-6.71-14.92c-2.49-4.85-5.11-9.62-7.65-14.44c-4.89-9.69-10.86-19.03-16.42-28.51
				c-2.76-4.76-5.9-9.29-8.84-13.95c-3.03-4.6-5.86-9.33-9.06-13.82c-12.22-18.34-25.39-36.03-38.92-53.47
				c-6.93-8.58-13.82-17.21-21.05-25.56c-3.52-4.26-7.17-8.4-10.84-12.53l-5.48-6.21l-5.62-6.09
				c-14.91-16.28-30.51-32.13-46.84-46.86l-0.08-0.07c-1.13-1.02-1.22-2.76-0.2-3.89C717.19,246.84,718.8,246.7,719.92,247.54z"/>
		</g>
		<g>
			<path class="st1" d="M952.14,1308.42c11.66,6.66-104.22-159.69-127.88-410.91c-11.15-118.38-2.07-265.24-65.24-326.07
				c-52.57-50.62-243.54-32.89-306.12-25.52c-7.82,0.92-11.04,10.52-5.35,15.96c28.09,26.8,87.82,89.6,100.6,149.88
				c16.84,79.45,87.91,133.82,153.51,151.48c65.6,17.66,101.73,33.05,127.36,141.37C854.64,1112.93,919.02,1289.48,952.14,1308.42z"
				/>
			<path class="st2" d="M537.81,584.61c0,0,1.9,0.14,5.38,0.57c3.49,0.44,8.6,1.11,15.04,2.32c6.44,1.21,14.23,2.87,23.06,5.22
				c8.82,2.36,18.73,5.29,29.27,9.3c10.54,3.97,21.78,8.83,33.27,14.82c11.47,6,23.24,13.07,34.61,21.57
				c11.36,8.5,22.37,18.32,32.39,29.43c9.99,11.13,18.93,23.55,26.37,36.83l2.73,5.01c0.93,1.66,1.81,3.34,2.58,5.08
				c1.6,3.47,3.23,6.81,4.75,10.41c2.77,6.87,5.54,13.71,8.28,20.5c5.5,13.57,10.86,26.94,16,39.91c2.58,6.48,5.11,12.85,7.59,19.09
				c1.29,3.09,2.36,6.25,3.46,9.36c1.09,3.1,2.18,6.17,3.24,9.19c4.24,12.1,8.25,23.54,11.95,34.1c1.83,5.28,3.59,10.35,5.26,15.16
				c1.5,4.87,2.92,9.5,4.25,13.84c2.65,8.69,4.97,16.26,6.87,22.5c1.98,6.2,3.17,11.22,4.12,14.59c0.91,3.38,1.39,5.18,1.39,5.18
				c0.27,1.01-0.33,2.05-1.34,2.32c-0.97,0.26-1.97-0.28-2.28-1.22l-0.02-0.07c0,0-0.59-1.76-1.7-5.05
				c-1.14-3.29-2.67-8.13-4.9-14.25c-2.18-6.12-4.83-13.55-7.87-22.08c-1.52-4.26-3.14-8.79-4.84-13.57
				c-1.82-4.73-3.73-9.71-5.73-14.91c-3.96-10.39-8.25-21.65-12.79-33.56c-2.31-5.94-4.46-12.11-7.06-18.3
				c-2.56-6.2-5.19-12.54-7.85-18.98c-5.35-12.88-10.83-26.21-16.33-39.78c-2.76-6.78-5.55-13.61-8.35-20.47
				c-1.37-3.22-3.03-6.55-4.5-9.83c-0.72-1.67-1.55-3.28-2.44-4.87l-2.58-4.8c-14.03-25.48-34.01-47.42-55.72-64.1
				c-10.84-8.38-22-15.64-33.03-21.76c-11.03-6.14-21.88-11.19-32.1-15.36c-10.24-4.13-19.79-7.57-28.38-10.24
				c-8.59-2.69-16.19-4.66-22.48-6.13c-6.3-1.46-11.27-2.49-14.68-3.09c-3.41-0.62-5.21-0.86-5.21-0.86
				c-0.83-0.11-1.42-0.88-1.31-1.71c0.11-0.8,0.82-1.37,1.62-1.32L537.81,584.61z"/>
		</g>
		<g>
			<path class="st1" d="M1416.17,1158.98c-11.66,6.66,104.22-159.69,127.88-410.91c11.15-118.38,2.07-265.24,65.24-326.06
				c52.57-50.62,243.54-32.89,306.12-25.52c7.82,0.92,11.04,10.52,5.35,15.96c-28.09,26.8-87.82,89.6-100.6,149.88
				c-16.84,79.45-87.91,133.82-153.51,151.48c-65.6,17.66-101.73,33.05-127.36,141.37
				C1513.67,963.49,1449.29,1140.05,1416.17,1158.98z"/>
			<path class="st2" d="M1550.45,783.8c-0.37,0-0.75-0.05-1.12-0.16c-2.19-0.62-3.46-2.9-2.84-5.08
				c0.23-0.8,23.1-80.94,75.57-203.84c15.4-36.07,49.48-85.9,124.42-118.51c44.66-19.43,82.19-23.45,83.76-23.61
				c2.27-0.24,4.28,1.41,4.51,3.67c0.23,2.26-1.41,4.28-3.67,4.52c-1.49,0.15-150.07,16.81-201.45,137.16
				c-52.27,122.43-75,202.06-75.23,202.85C1553.9,782.61,1552.25,783.8,1550.45,783.8z"/>
		</g>
		<g>
			<path class="st3" d="M841.48,1327.57c7.15,3.77-40.3-77.9-43.94-149.86c-3.64-71.96-19.87-194.77-81.93-268.23
				c-62.05-73.47-130-80.17-215.63-13.38c-71.35,55.66-115.86,83.74-141.96,88.96c-6.46,1.29-9.76,8.59-6.62,14.38
				c16.74,30.83,64.07,101.65,143.55,96.66c101.37-6.36,224.23-72.26,261.67-17.28c37.44,54.97,32.64,85.73,33.79,111.79
				C791.57,1216.67,794.13,1302.61,841.48,1327.57z"/>
			<path class="st2" d="M528.89,984.47c5.59-5.37,11.52-10.2,17.64-14.87c6.12-4.65,12.43-9.09,19-13.12
				c13.1-8.13,27.1-15.08,42.02-19.86c7.46-2.36,15.16-4.19,23.03-5.2c7.87-0.95,15.93-1.09,23.92-0.1c1.99,0.32,4,0.51,5.97,0.95
				c1.96,0.46,3.98,0.84,5.88,1.38l11.2,3.48l10.96,4.26l10.63,5.11c13.93,7.34,26.53,17.28,37.01,28.97
				c10.56,11.66,18.8,25.09,25.58,38.99l2.54,5.22c0.87,1.73,1.51,3.56,2.27,5.33c1.44,3.58,2.99,7.12,4.33,10.73l3.75,10.92
				c1.33,3.62,2.17,7.37,3.24,11.06c4.22,14.77,7.12,29.82,9.6,44.88c0.15,0.92-0.47,1.79-1.39,1.94c-0.87,0.14-1.7-0.41-1.91-1.26
				l-0.01-0.05c-3.62-14.73-7.08-29.49-12.02-43.76c-2.24-7.21-5.08-14.18-7.71-21.22c-1.42-3.48-3.03-6.86-4.54-10.29
				c-0.79-1.69-1.46-3.45-2.36-5.09l-2.61-4.96c-6.92-13.22-15.32-25.6-25.32-36.43c-10.01-10.82-21.88-19.74-34.88-26.59
				l-9.97-4.72l-10.33-3.95l-10.61-3.23c-1.76-0.5-3.48-0.83-5.22-1.26c-1.74-0.41-3.53-0.58-5.29-0.88
				c-7.1-0.93-14.37-0.88-21.6-0.06c-7.24,0.77-14.45,2.28-21.53,4.35c-14.19,4.11-27.9,10.26-41.08,17.41
				c-6.56,3.63-13.07,7.42-19.4,11.52c-6.3,4.11-12.53,8.46-18.47,13.01l-0.04,0.03c-0.77,0.59-1.87,0.44-2.46-0.33
				C528.17,986.09,528.26,985.08,528.89,984.47z"/>
		</g>
		<g>
			<path class="st1" d="M954.07,1313.72c0,0-108.06,131-214.48,70.59c-98.92-56.15-122.01-140.7-208.14-136.18
				c-9.92,0.52-16.78-9.89-12.51-18.86c17.01-35.71,64.77-102.91,182.01-97.69C860.03,1138.67,954.07,1313.72,954.07,1313.72z"/>
			<path class="st2" d="M942.39,1312.5c-8.63,2.39-17.27,2.6-25.92,2.3c-8.63-0.37-17.25-1.41-25.68-3.26
				c-16.91-3.49-33.27-9.18-49.01-16.07l-11.73-5.34l-11.43-5.93c-3.85-1.91-7.53-4.11-11.24-6.26c-3.7-2.16-7.44-4.27-11.11-6.48
				c-14.54-9.03-28.67-18.66-42.54-28.53c-13.9-9.83-27.5-19.99-41.6-29.2c-14.05-9.21-28.62-17.74-44.47-22.51
				c-7.9-2.39-16.07-3.78-24.31-3.93c-8.23-0.14-16.49,0.88-24.57,2.87c-16.2,4.02-31.31,11.97-45.66,20.85l-0.02,0.01
				c-0.51,0.32-1.18,0.16-1.5-0.35c-0.3-0.49-0.17-1.13,0.3-1.46c13.92-9.82,29.01-18.47,45.7-23.39
				c8.32-2.43,17.02-3.88,25.78-3.91c8.76-0.07,17.52,1.19,25.94,3.5c16.9,4.66,32.29,13.06,46.74,22.2
				c14.48,9.2,28.31,19.14,42.23,28.83c27.73,19.5,56.15,37.85,86.67,51.96c15.26,6.97,30.97,13.01,47.2,17.14
				c8.1,2.13,16.34,3.61,24.64,4.56c4.15,0.45,8.33,0.69,12.49,0.67c4.14-0.01,8.4-0.23,12.3-0.98l0.16-0.03
				c0.76-0.15,1.5,0.35,1.64,1.11C943.53,1311.6,943.08,1312.3,942.39,1312.5z"/>
		</g>
		<g>
			<linearGradient id="SVGID_2_" gradientUnits="userSpaceOnUse" x1="1591.124" y1="506.1142" x2="243.2049" y2="2042.5262">
				<stop  offset="0" style="stop-color:#09005D"/>
				<stop  offset="1" style="stop-color:#1A0F91"/>
			</linearGradient>
			<path class="st4" d="M1749.91,917.63c0,283.65-229.94,513.59-513.59,513.59c-283.65,0-526.29-239.99-526.29-523.63
				c0-283.65,242.64-503.54,526.29-503.54C1519.97,404.04,1749.91,633.98,1749.91,917.63z"/>
			<g>
				<path class="st5" d="M750.35,790.33c-0.1,0-0.19-0.01-0.29-0.04c-0.6-0.16-0.96-0.78-0.8-1.38
					c5.5-20.65,12.52-41.13,20.87-60.87c0.24-0.57,0.9-0.84,1.48-0.6c0.57,0.24,0.84,0.9,0.6,1.48
					c-8.31,19.64-15.3,40.02-20.77,60.57C751.31,790,750.85,790.33,750.35,790.33z"/>
				<path class="st5" d="M828.84,629.84c-0.24,0-0.47-0.07-0.68-0.23c-0.5-0.37-0.59-1.08-0.22-1.58
					c94.7-125.58,247.25-200.55,408.07-200.55c68.66,0,135.08,13.92,197.4,41.37c0.57,0.25,0.83,0.92,0.58,1.48
					c-0.25,0.57-0.91,0.83-1.48,0.58c-62.03-27.33-128.14-41.18-196.49-41.18c-160.12,0-312,74.64-406.28,199.66
					C829.52,629.68,829.18,629.84,828.84,629.84z"/>
			</g>
			<linearGradient id="SVGID_3_" gradientUnits="userSpaceOnUse" x1="779.9063" y1="917.6298" x2="1680.0325" y2="917.6298">
				<stop  offset="0" style="stop-color:#4042E2"/>
				<stop  offset="1" style="stop-color:#4F52FF"/>
			</linearGradient>
			<path class="st6" d="M1680.03,917.63c0,245.53-199.04,444.56-444.56,444.56s-455.56-207.73-455.56-453.26
				s210.03-435.87,455.56-435.87S1680.03,672.1,1680.03,917.63z"/>
			<linearGradient id="SVGID_4_" gradientUnits="userSpaceOnUse" x1="1285.2594" y1="1438.9789" x2="1282.2595" y2="2231.0581">
				<stop  offset="0" style="stop-color:#4042E2"/>
				<stop  offset="1" style="stop-color:#4F52FF"/>
			</linearGradient>
			<path class="st7" d="M1680.03,917.63c0-245.53-199.04-444.56-444.56-444.56c-132.95,0-255.48,55.83-339.9,146l342.46,284.95
				l70.4,452.19C1519.24,1321.39,1680.03,1138.3,1680.03,917.63z"/>
			<linearGradient id="SVGID_5_" gradientUnits="userSpaceOnUse" x1="757.984" y1="-552.898" x2="1058.0151" y2="410.2016">
				<stop  offset="0" style="stop-color:#4042E2"/>
				<stop  offset="0.3335" style="stop-color:#4547EC"/>
				<stop  offset="1" style="stop-color:#4F52FF"/>
			</linearGradient>
			<path class="st8" d="M1619.52,886.72c0,221.58-183.36,401.21-409.55,401.21S790.3,1100.46,790.3,878.88
				c0-221.58,193.49-393.36,419.68-393.36S1619.52,665.14,1619.52,886.72z"/>
			<path class="st9" d="M893.52,894.57c-1.1,18.87-17.29,33.28-36.16,32.18c-18.87-1.1-33.28-17.29-32.18-36.16
				c1.1-18.87,17.29-33.28,36.16-32.18C880.21,859.51,894.62,875.7,893.52,894.57z"/>
			<path class="st9" d="M1632.97,937.61c-1.1,18.87-17.29,33.28-36.16,32.18c-18.87-1.1-33.28-17.29-32.18-36.16
				c1.1-18.87,17.29-33.28,36.16-32.18C1619.66,902.55,1634.06,918.74,1632.97,937.61z"/>
			<path class="st9" d="M1168.68,1244.76c18.6,3.4,30.92,21.22,27.52,39.82c-3.4,18.6-21.22,30.92-39.82,27.52
				c-18.6-3.4-30.92-21.22-27.52-39.82C1132.25,1253.68,1150.08,1241.36,1168.68,1244.76z"/>
			<path class="st9" d="M1301.77,516.11c18.6,3.4,30.92,21.22,27.52,39.82c-3.4,18.6-21.22,30.92-39.82,27.52
				c-18.59-3.4-30.92-21.22-27.52-39.82C1265.34,525.04,1283.17,512.71,1301.77,516.11z"/>
			<path class="st9" d="M1412.01,1264.32c3.48,8.78,2.61,16.99-1.94,18.35c-4.55,1.36-11.06-4.65-14.54-13.42
				c-3.48-8.78-2.61-16.99,1.94-18.35C1402.02,1249.53,1408.53,1255.54,1412.01,1264.32z"/>
			<path class="st9" d="M1114.53,573.2c3.48,8.78,2.61,16.99-1.94,18.35s-11.06-4.65-14.54-13.42c-3.48-8.78-2.61-16.99,1.94-18.35
				C1104.54,558.41,1111.05,564.42,1114.53,573.2z"/>
			<path class="st9" d="M1567.33,1132.94c7.53,5.69,11.05,13.17,7.87,16.69c-3.18,3.53-11.87,1.77-19.39-3.92
				c-7.53-5.69-11.05-13.17-7.87-16.69C1551.12,1125.49,1559.81,1127.25,1567.33,1132.94z"/>
			<path class="st9" d="M954.25,696.74c7.53,5.69,11.05,13.17,7.87,16.69c-3.18,3.53-11.87,1.77-19.39-3.93
				c-7.53-5.69-11.05-13.17-7.87-16.69C938.04,689.29,946.72,691.05,954.25,696.74z"/>
			<path class="st9" d="M1586.84,741.62c8.52-4.06,16.78-3.74,18.44,0.71c1.66,4.45-3.9,11.35-12.42,15.4
				c-8.52,4.06-16.78,3.74-18.44-0.71C1572.76,752.57,1578.32,745.67,1586.84,741.62z"/>
			<path class="st9" d="M917.2,1084.72c8.52-4.06,16.78-3.74,18.44,0.71c1.66,4.45-3.9,11.35-12.42,15.4
				c-8.52,4.06-16.78,3.74-18.44-0.71C903.11,1095.67,908.68,1088.77,917.2,1084.72z"/>
			<path class="st9" d="M1445.36,595.44c5.18-7.89,12.4-11.91,16.13-8.97c3.73,2.94,2.56,11.72-2.62,19.61
				c-5.18,7.89-12.4,11.91-16.13,8.97C1439.01,612.11,1440.18,603.33,1445.36,595.44z"/>
			<path class="st9" d="M1051.2,1236.36c5.18-7.89,12.4-11.91,16.13-8.97c3.73,2.94,2.56,11.72-2.62,19.61
				c-5.18,7.89-12.4,11.91-16.13,8.97C1044.85,1253.04,1046.02,1244.25,1051.2,1236.36z"/>
			<linearGradient id="SVGID_6_" gradientUnits="userSpaceOnUse" x1="1192.8151" y1="985.9719" x2="942.1987" y2="321.1632">
				<stop  offset="0" style="stop-color:#E1473D"/>
				<stop  offset="1" style="stop-color:#E9605A"/>
			</linearGradient>
			<path class="st10" d="M1221.6,891.29l-145.44-270.65c-2.82-5.24,0.98-11.6,6.93-11.6h35.41c6.89,0,10.45-8.22,5.75-13.25
				L943.24,402.42c-5.54-5.92-15.32-0.61-13.39,7.26l62.45,254.26c1.49,6.08,9.15,8.07,13.41,3.48l28.63-30.86
				c3.54-3.81,9.74-3.21,12.47,1.22l161.16,261.37c2.24,3.64,6.98,4.82,10.68,2.66l0,0C1222.3,899.67,1223.61,895.02,1221.6,891.29z
				"/>
			<linearGradient id="SVGID_7_" gradientUnits="userSpaceOnUse" x1="995.5839" y1="-235.8643" x2="974.5812" y2="472.2065">
				<stop  offset="0" style="stop-color:#FF928E"/>
				<stop  offset="1" style="stop-color:#FEB3B1"/>
			</linearGradient>
			<path class="st11" d="M997.12,630.09c-0.55,0-1.04-0.41-1.11-0.97c-0.34-2.15-18.45-75-48.45-194.91
				c-0.5-1.99,0.39-3.96,2.2-4.92c1.82-0.95,3.96-0.56,5.31,0.98l37.27,42.39c0.41,0.47,0.36,1.18-0.1,1.59
				c-0.46,0.41-1.18,0.36-1.59-0.1l-37.27-42.39c-0.81-0.92-1.86-0.85-2.58-0.48c-0.71,0.37-1.36,1.19-1.06,2.38
				c14.47,57.81,48.15,192.56,48.5,195.15c0.08,0.62-0.35,1.18-0.97,1.26C997.23,630.08,997.17,630.09,997.12,630.09z"/>
			<linearGradient id="SVGID_8_" gradientUnits="userSpaceOnUse" x1="1370.4974" y1="895.7233" x2="1964.7739" y2="873.2128">
				<stop  offset="0" style="stop-color:#E1473D"/>
				<stop  offset="1" style="stop-color:#E9605A"/>
			</linearGradient>
			<path class="st12" d="M1235.98,919.54l268.69-8.74c5.95-0.09,9.85,6.2,7.11,11.49l-16.29,31.44c-3.17,6.12,2.49,13.06,9.12,11.2
				l254.97-71.77c7.8-2.2,7.59-13.32-0.28-15.23l-254.49-61.51c-6.09-1.47-11.38,4.42-9.26,10.31l14.23,39.62
				c1.76,4.9-1.63,10.12-6.82,10.51l-267.69,26.96c-4.26,0.32-7.49,3.98-7.27,8.25l0,0C1228.22,916.31,1231.74,919.6,1235.98,919.54
				z"/>
			<linearGradient id="SVGID_9_" gradientUnits="userSpaceOnUse" x1="1664.5853" y1="-216.0178" x2="1643.5826" y2="492.0493">
				<stop  offset="0" style="stop-color:#FF928E"/>
				<stop  offset="1" style="stop-color:#FEB3B1"/>
			</linearGradient>
			<path class="st13" d="M1674.35,904.49c-0.5,0-0.96-0.34-1.09-0.86c-0.15-0.6,0.22-1.21,0.82-1.36l54.78-13.6
				c1.19-0.3,1.61-1.26,1.61-2.07c0-0.8-0.43-1.76-1.62-2.04c-57.98-13.75-193.12-45.83-195.59-46.71
				c-0.58-0.21-0.89-0.85-0.68-1.44c0.21-0.58,0.85-0.89,1.43-0.68c3.01,1.01,150.28,35.95,195.35,46.64
				c1.99,0.47,3.34,2.17,3.35,4.22c0.01,2.06-1.32,3.77-3.32,4.26l-54.78,13.6C1674.53,904.48,1674.44,904.49,1674.35,904.49z"/>
			<linearGradient id="SVGID_10_" gradientUnits="userSpaceOnUse" x1="1087.9365" y1="901.2693" x2="1836.7865" y2="919.2777">
				<stop  offset="0" style="stop-color:#E1473D"/>
				<stop  offset="1" style="stop-color:#E9605A"/>
			</linearGradient>
			<path class="st14" d="M1269.73,904.76c0,20.19-16.37,36.56-36.55,36.56c-20.19,0-36.55-16.37-36.55-36.56
				c0-20.19,16.37-36.56,36.55-36.56C1253.36,868.21,1269.73,884.57,1269.73,904.76z"/>
		</g>
		<g>
			<g>
				<g>
					<path class="st15" d="M2150.41,1027.54c19.94-21.02,30.28-48.88,30.28-77.85V885.1l-164.33-4.93l-164.33,4.93v64.58
						c0,28.97,9.82,56.84,29.76,77.85l84.25,89.48c8.75,9.22,8.43,23.68-0.32,32.9l-83.76,89.48
						c-19.94,21.02-29.92,48.88-29.92,77.85v64.58l164.33,4.93l164.33-4.93v-64.58c0-28.97-10.34-56.84-30.28-77.85l-84.51-89.48
						c-8.75-9.22-8.94-23.68-0.19-32.9L2150.41,1027.54z"/>
					<path class="st1" d="M2093.12,1216.52c0,0-43.57-31.51-50.12-83.05c6.56-51.53,50.12-83.05,50.12-83.05
						c105.23-73.96,65.9-165.31,65.9-165.31l-143.59-4.94l-142.9,4.94c0,0-38.99,91.36,66.25,165.31c0,0,43.86,31.51,50.46,83.05
						c-6.6,51.54-50.46,83.05-50.46,83.05c-105.23,73.96-66.25,165.31-66.25,165.31l142.9,4.94l143.59-4.94
						C2159.02,1381.84,2198.35,1290.48,2093.12,1216.52z"/>
				</g>
				<g>
					<linearGradient id="SVGID_11_" gradientUnits="userSpaceOnUse" x1="1893.816" y1="1038.7017" x2="2141.5713" y2="1038.7017">
						<stop  offset="0" style="stop-color:#FE7062"/>
						<stop  offset="1" style="stop-color:#FF928E"/>
					</linearGradient>
					<path class="st16" d="M1985.3,1069.88c10.62,6.93,18.62,16.79,22.93,28.71c0.28,0.78,0.55,2.23,0.79,3
						c0.96,3.04,3.78,5.77,6.96,5.77c0.03,0,0.06,0,0.09,0c5,0,9.48-3.92,11.23-8.6c4.26-11.42,12.07-21.04,22.29-27.7
						c76.9-50.09,91.97-101.01,91.97-101.01h-14.79h-3.7h-210.78h-3.7h-14.79C1893.82,970.04,1908.83,1019.93,1985.3,1069.88z"/>
					<linearGradient id="SVGID_12_" gradientUnits="userSpaceOnUse" x1="1886.4204" y1="1315.7115" x2="2147.1184" y2="1315.7115">
						<stop  offset="0" style="stop-color:#FE7062"/>
						<stop  offset="1" style="stop-color:#FF928E"/>
					</linearGradient>
					<path class="st17" d="M2050.71,1281.9c-10.56-6.89-18.72-17.41-23.29-29.16c-0.54-1.39-1.03-3.01-1.47-4.36
						c-1.06-3.32-4.14-5.69-7.63-5.69c-5.19,0-9.83,3.17-11.63,8.03c-4.5,12.15-12.78,23.5-23.63,30.58
						c-80.81,52.69-96.65,107.45-96.65,107.45h15.56h3.89h221.79h3.89h15.56C2147.12,1388.74,2131.31,1334.5,2050.71,1281.9z"/>
				</g>
				<linearGradient id="SVGID_13_" gradientUnits="userSpaceOnUse" x1="1977.2509" y1="1153.2064" x2="2087.7241" y2="1080.1738">
					<stop  offset="0" style="stop-color:#FE7062"/>
					<stop  offset="1" style="stop-color:#FF928E"/>
				</linearGradient>
				<path class="st18" d="M2022.78,1127.23c0,3.45-2.79,6.24-6.24,6.24c-3.45,0-6.24-2.79-6.24-6.24c0-3.45,2.79-6.24,6.24-6.24
					C2019.98,1120.99,2022.78,1123.79,2022.78,1127.23z"/>
				<linearGradient id="SVGID_14_" gradientUnits="userSpaceOnUse" x1="1996.9126" y1="1189.2289" x2="2078.7437" y2="1135.1315">
					<stop  offset="0" style="stop-color:#FE7062"/>
					<stop  offset="1" style="stop-color:#FF928E"/>
				</linearGradient>
				<path class="st19" d="M2030.64,1169.99c0,2.55-2.07,4.62-4.62,4.62c-2.55,0-4.62-2.07-4.62-4.62c0-2.55,2.07-4.62,4.62-4.62
					C2028.57,1165.37,2030.64,1167.44,2030.64,1169.99z"/>
				<linearGradient id="SVGID_15_" gradientUnits="userSpaceOnUse" x1="1978.4231" y1="1222.5095" x2="2060.2549" y2="1168.4116">
					<stop  offset="0" style="stop-color:#FE7062"/>
					<stop  offset="1" style="stop-color:#FF928E"/>
				</linearGradient>
				<path class="st20" d="M2012.15,1203.27c0,2.55-2.07,4.62-4.62,4.62c-2.55,0-4.62-2.07-4.62-4.62c0-2.55,2.07-4.62,4.62-4.62
					C2010.08,1198.65,2012.15,1200.72,2012.15,1203.27z"/>
			</g>
			<linearGradient id="SVGID_16_" gradientUnits="userSpaceOnUse" x1="2153.78" y1="806.1096" x2="2352.3303" y2="704.2219">
				<stop  offset="0" style="stop-color:#09005D"/>
				<stop  offset="1" style="stop-color:#1A0F91"/>
			</linearGradient>
			<path class="st21" d="M2212.21,877.45c0,12.6-10.21,22.81-22.81,22.81h-346.06c-12.6,0-22.81-10.21-22.81-22.81v-1.65
				c0-12.6,10.21-22.81,22.81-22.81h346.06c12.6,0,22.81,10.21,22.81,22.81V877.45z"/>
			<linearGradient id="SVGID_17_" gradientUnits="userSpaceOnUse" x1="2153.78" y1="1330.6045" x2="2352.3303" y2="1228.7168">
				<stop  offset="0" style="stop-color:#09005D"/>
				<stop  offset="1" style="stop-color:#1A0F91"/>
			</linearGradient>
			<path class="st22" d="M2212.21,1401.95c0,12.6-10.21,22.81-22.81,22.81h-346.06c-12.6,0-22.81-10.21-22.81-22.81v-1.65
				c0-12.6,10.21-22.81,22.81-22.81h346.06c12.6,0,22.81,10.21,22.81,22.81V1401.95z"/>
		</g>
		<g>
			<g>
				<linearGradient id="SVGID_18_" gradientUnits="userSpaceOnUse" x1="423.5123" y1="1263.91" x2="299.3038" y2="1545.014">
					<stop  offset="0" style="stop-color:#4042E2"/>
					<stop  offset="0.3335" style="stop-color:#4547EC"/>
					<stop  offset="1" style="stop-color:#4F52FF"/>
				</linearGradient>
				<path class="st23" d="M380.24,1286.81c-3.6,5.33-17.91,125.96-20.15,170.51c-0.15,3.01,2.26,5.53,5.28,5.53l0,0
					c2.6,0,4.82-1.9,5.22-4.47l26.17-167.74L380.24,1286.81z"/>
				<linearGradient id="SVGID_19_" gradientUnits="userSpaceOnUse" x1="526.0355" y1="1309.2111" x2="401.8268" y2="1590.3156">
					<stop  offset="0" style="stop-color:#4042E2"/>
					<stop  offset="0.3335" style="stop-color:#4547EC"/>
					<stop  offset="1" style="stop-color:#4F52FF"/>
				</linearGradient>
				<path class="st24" d="M495.29,1286.81c3.6,5.33,17.91,125.96,20.15,170.51c0.15,3.01-2.26,5.53-5.28,5.53l0,0
					c-2.6,0-4.82-1.9-5.22-4.47l-26.17-167.74L495.29,1286.81z"/>
				<linearGradient id="SVGID_20_" gradientUnits="userSpaceOnUse" x1="433.5254" y1="1300.1632" x2="470.5255" y2="1114.1628">
					<stop  offset="0" style="stop-color:#FE7062"/>
					<stop  offset="1" style="stop-color:#FF928E"/>
				</linearGradient>
				<path class="st25" d="M358.59,1277.39l-0.01,1.31c-0.09,9.46,8.07,17.23,18.28,17.4l120.99,2.06
					c10.06,0.17,18.45-7.1,18.94-16.42l0.06-1.2c0.51-9.72-7.74-17.9-18.24-18.09l-121.04-2.17
					C367.21,1260.1,358.68,1267.79,358.59,1277.39z"/>
			</g>
			<g>
				<g>
					<linearGradient id="SVGID_21_" gradientUnits="userSpaceOnUse" x1="558.6773" y1="1452.571" x2="646.4064" y2="1452.571">
						<stop  offset="0" style="stop-color:#4042E2"/>
						<stop  offset="0.3335" style="stop-color:#4547EC"/>
						<stop  offset="1" style="stop-color:#4F52FF"/>
					</linearGradient>
					<path class="st26" d="M593.95,1452.94c-21.51,0-31.02-1.84-35.28-3.53c0.83,3.53,3.97,6.32,7.95,6.32h76.08
						c2.56,0,4.18-2.45,3.57-4.67C637.6,1451.76,619.18,1452.94,593.95,1452.94z"/>
					<linearGradient id="SVGID_22_" gradientUnits="userSpaceOnUse" x1="626.269" y1="1283.8773" x2="602.299" y2="1449.4889">
						<stop  offset="0" style="stop-color:#09005D"/>
						<stop  offset="1" style="stop-color:#1A0F91"/>
					</linearGradient>
					<path class="st27" d="M646.28,1451.06c-0.12-0.45-0.3-0.89-0.62-1.3c-5.8-7.4-17.44-19.02-33.28-18.8
						c-23.2,0.33-31.29,2.84-49.32,0.14l-4.25,14.1c-0.43,1.44-0.44,2.87-0.13,4.21c4.25,1.68,13.77,3.53,35.28,3.53
						C619.18,1452.94,637.6,1451.76,646.28,1451.06z"/>
				</g>
				<linearGradient id="SVGID_23_" gradientUnits="userSpaceOnUse" x1="563.0594" y1="1426.1335" x2="586.7963" y2="1426.1335">
					<stop  offset="0" style="stop-color:#FF928E"/>
					<stop  offset="1" style="stop-color:#FEB3B1"/>
				</linearGradient>
				<path class="st28" d="M568.28,1415.91l-5.22,17.76c0,0,11.57,5.27,21.74,1.04l2-15.38L568.28,1415.91z"/>
				<g>
					<linearGradient id="SVGID_24_" gradientUnits="userSpaceOnUse" x1="696.2761" y1="1435.1852" x2="767.1074" y2="1435.1852">
						<stop  offset="0" style="stop-color:#4042E2"/>
						<stop  offset="0.3335" style="stop-color:#4547EC"/>
						<stop  offset="1" style="stop-color:#4F52FF"/>
					</linearGradient>
					<path class="st29" d="M725.98,1441.76c-16.77,13.47-25.33,18-29.7,19.36c2.85,2.22,7.04,2.42,10.14-0.07l59.31-47.66
						c2-1.6,1.73-4.52-0.13-5.86C759.26,1413.5,745.64,1425.95,725.98,1441.76z"/>
					<linearGradient id="SVGID_25_" gradientUnits="userSpaceOnUse" x1="744.9971" y1="1301.0619" x2="721.027" y2="1466.6731">
						<stop  offset="0" style="stop-color:#09005D"/>
						<stop  offset="1" style="stop-color:#1A0F91"/>
					</linearGradient>
					<path class="st30" d="M765.59,1407.52c-0.38-0.27-0.79-0.5-1.29-0.61c-9.13-2.11-25.45-3.83-37.66,6.26
						c-17.88,14.79-22.62,21.8-38.36,31l5.47,13.6c0.56,1.39,1.45,2.5,2.52,3.34c4.37-1.36,12.93-5.89,29.7-19.36
						C745.64,1425.95,759.26,1413.5,765.59,1407.52z"/>
				</g>
				<linearGradient id="SVGID_26_" gradientUnits="userSpaceOnUse" x1="528.001" y1="1292.3495" x2="463.0009" y2="1447.3495">
					<stop  offset="0" style="stop-color:#09005D"/>
					<stop  offset="1" style="stop-color:#1A0F91"/>
				</linearGradient>
				<path class="st31" d="M456.6,1213.61c0,0,128.76,10.51,155.18,22.95c26.41,12.43-21.56,186.71-21.56,186.71
					s-7.19,3.46-23.19-1.51c0,0,16.41-128.61,4.2-156.5l-139.42-22.8L456.6,1213.61z"/>
				<linearGradient id="SVGID_27_" gradientUnits="userSpaceOnUse" x1="675.4884" y1="1428.1312" x2="703.8268" y2="1428.1312">
					<stop  offset="0" style="stop-color:#FF928E"/>
					<stop  offset="1" style="stop-color:#FEB3B1"/>
				</linearGradient>
				<path class="st32" d="M675.49,1419.69c1.2,1.09,12.79,24.48,12.79,24.48s12.91-2.79,15.54-10.96l-11.62-21.11L675.49,1419.69z"
					/>
				<linearGradient id="SVGID_28_" gradientUnits="userSpaceOnUse" x1="480.2073" y1="1633.8108" x2="541.2073" y2="1290.8113">
					<stop  offset="0" style="stop-color:#09005D"/>
					<stop  offset="0.5502" style="stop-color:#12087A"/>
					<stop  offset="1" style="stop-color:#1A0F91"/>
				</linearGradient>
				<path class="st33" d="M379.04,1212.53c0,0-4.2,10.1-4.02,23.51c0.24,18.56,15.15,33.61,33.69,34.54l152.22,6.94
					c3.21,0.15,5.93,2.37,6.74,5.49c3.58,13.84,21.06,56.32,106.53,141.1c2.27,2.26,5.82,2.64,8.52,0.93l12.17-7.69
					c1.28-0.81,1.69-2.48,0.92-3.78l-88.63-151.35c-4.65-7.68-12.14-13.23-20.84-15.46l-129.74-33.16L379.04,1212.53z"/>
				<linearGradient id="SVGID_29_" gradientUnits="userSpaceOnUse" x1="496.1205" y1="1008.7986" x2="566.7446" y2="1008.7986">
					<stop  offset="0" style="stop-color:#FF928E"/>
					<stop  offset="1" style="stop-color:#FEB3B1"/>
				</linearGradient>
				<path class="st34" d="M555.63,979.51c0,0-42.88,25.44-59.51,39.4l34.36,19.17c0,0,18.57-21.45,36.26-30.39L555.63,979.51z"/>
				<linearGradient id="SVGID_30_" gradientUnits="userSpaceOnUse" x1="376.2777" y1="1116.0713" x2="646.1765" y2="1116.0713">
					<stop  offset="0" style="stop-color:#4042E2"/>
					<stop  offset="0.3335" style="stop-color:#4547EC"/>
					<stop  offset="1" style="stop-color:#4F52FF"/>
				</linearGradient>
				<path class="st35" d="M376.28,1213.61c0,0,41.09,10.01,80.32,0c0,0,54.89-73.78,76.12-93.86c0,0,33.87,53.45,109.26,61.02
					l4.2-9.4c0,0-60.02-27.67-78.49-70.18c-18.48-42.51-25.9-60.64-42.71-71.73c-10.47-6.91-16.74-11.63-19.98-14.2
					c-1.77-1.41-4.22-1.57-6.16-0.39C481.01,1025.74,397.07,1083.23,376.28,1213.61z"/>
				<g>
					<linearGradient id="SVGID_31_" gradientUnits="userSpaceOnUse" x1="508.4214" y1="1098.0699" x2="532.2386" y2="1098.0699">
						<stop  offset="0" style="stop-color:#09005D"/>
						<stop  offset="1" style="stop-color:#1A0F91"/>
					</linearGradient>
					<path class="st36" d="M530.49,1117.83c-0.53,0-1.05-0.24-1.39-0.69c-13.01-16.96-20.48-36.25-20.55-36.44
						c-0.35-0.9,0.1-1.92,1.01-2.27c0.91-0.35,1.92,0.1,2.27,1.01c0.07,0.19,7.37,19.02,20.06,35.56c0.59,0.77,0.44,1.87-0.32,2.46
						C531.23,1117.71,530.86,1117.83,530.49,1117.83z"/>
				</g>
				<linearGradient id="SVGID_32_" gradientUnits="userSpaceOnUse" x1="637.4393" y1="1165.8153" x2="702.8981" y2="1165.8153">
					<stop  offset="0" style="stop-color:#F9B776"/>
					<stop  offset="1" style="stop-color:#F47960"/>
				</linearGradient>
				<path class="st37" d="M637.44,1166.47l8.49-2.26l25.76-5.97c3.1-0.72,6.36-0.17,9.06,1.53l22.15,13.94l-61.18-0.1
					L637.44,1166.47z"/>
				<g>
					
						<linearGradient id="SVGID_33_" gradientUnits="userSpaceOnUse" x1="214.4036" y1="2600.2063" x2="150.7007" y2="2684.48" gradientTransform="matrix(0.9897 -0.1428 0.1428 0.9897 1.6639 -1579.7996)">
						<stop  offset="0" style="stop-color:#FF928E"/>
						<stop  offset="1" style="stop-color:#FEB3B1"/>
					</linearGradient>
					<path class="st38" d="M597.49,960.86c0.12,0.83-10.98,55.24-10.98,55.24l-30.93-7l2.86-53.13
						C558.44,955.97,595.48,946.94,597.49,960.86z"/>
					
						<linearGradient id="SVGID_34_" gradientUnits="userSpaceOnUse" x1="165.7528" y1="2620.5352" x2="241.8466" y2="2620.5352" gradientTransform="matrix(0.9897 -0.1428 0.1428 0.9897 1.6639 -1579.7996)">
						<stop  offset="0" style="stop-color:#09005D"/>
						<stop  offset="1" style="stop-color:#1A0F91"/>
					</linearGradient>
					<path class="st39" d="M565.4,967.81l-3.7,27.85c-0.05,0.36-0.05,0.71,0,1.07c0.31,2.18,1.94,9.61,9.44,7.49
						c6.81-1.93,13.05-3.59,17.36-2.27c1.94,0.59,3.1,2.55,2.7,4.54c-1.01,4.94-3.49,16.04-7.12,25.35
						c-0.74,1.89-2.81,2.88-4.75,2.31c-5.87-1.71-18.14-5.66-27.26-11.16c-1.24-0.74-1.97-2.09-1.91-3.53
						c0.3-7.03,1.12-28.4,0.43-34.39c-0.65-5.62-7.55-8.99-10.55-10.2c-0.98-0.4-1.75-1.17-2.15-2.15
						c-1.39-3.48-3.3-11.53,6.84-14.83c2.12-0.69,3.24-2.98,2.49-5.08c-1.5-4.18-2.14-10.57,5.71-14.09
						c7.98-3.58,13.94,0.68,17.15,4.13c1.3,1.4,3.39,1.61,5,0.59c0.92-0.58,2.1-0.77,3.53,0.12c1.93,1.2,4.48,0.38,5.47-1.66
						c1.91-3.92,5.8-8.12,13.62-6.78c13.86,2.37,15.43,17.73,11.77,26.73c-3.66,9-18.54,5.57-26,1.04
						c-5.68-3.45-13.04,0.17-16.24,2.1C566.22,965.59,565.55,966.63,565.4,967.81z"/>
					
						<linearGradient id="SVGID_35_" gradientUnits="userSpaceOnUse" x1="121.104" y1="2666.9443" x2="172.1988" y2="2614.5225" gradientTransform="matrix(0.9897 -0.1428 0.1428 0.9897 1.6639 -1579.7996)">
						<stop  offset="0" style="stop-color:#FF928E"/>
						<stop  offset="1" style="stop-color:#FEB3B1"/>
					</linearGradient>
					<path class="st40" d="M549.33,995.22c0,0,5.7-15.96-0.16-19.86c-5.85-3.91-14.52-1.88-12.62,9.68
						C538.94,999.41,549.33,995.22,549.33,995.22z"/>
				</g>
			</g>
			<g>
				<g>
					
						<linearGradient id="SVGID_36_" gradientUnits="userSpaceOnUse" x1="-4996.5654" y1="2003.7789" x2="-4990.5659" y2="2320.7778" gradientTransform="matrix(-1.388 -0.0686 -0.0685 1.3855 -6236.5127 -215.9469)">
						<stop  offset="0" style="stop-color:#4042E2"/>
						<stop  offset="1" style="stop-color:#4F52FF"/>
					</linearGradient>
					<path class="st41" d="M613.8,1185.7c0.1,0,0.2,0.01,0.3,0.01l130.69-0.13c3.23,0,5.85-2.62,5.84-5.84
						c0-3.23-2.64-5.89-5.86-5.83l-130.69,0.13c-3.23,0-5.85,2.62-5.84,5.84C608.25,1183,610.71,1185.55,613.8,1185.7z"/>
				</g>
				<g>
					
						<linearGradient id="SVGID_37_" gradientUnits="userSpaceOnUse" x1="-7888.9463" y1="4162.0391" x2="-7882.9463" y2="4479.0386" gradientTransform="matrix(0.6475 -1.2297 -1.2274 -0.6463 7293.9038 -7927.8447)">
						<stop  offset="0" style="stop-color:#4042E2"/>
						<stop  offset="1" style="stop-color:#4F52FF"/>
					</linearGradient>
					<path class="st42" d="M795.41,1057.71c-0.05,0.09-0.09,0.18-0.13,0.27l-54.99,118.56c-1.36,2.93-0.09,6.41,2.84,7.76
						c2.93,1.36,6.45,0.09,7.76-2.85l54.99-118.56c1.36-2.93,0.09-6.41-2.84-7.76C800.2,1053.82,796.85,1054.97,795.41,1057.71z"/>
				</g>
			</g>
			<g>
				<linearGradient id="SVGID_38_" gradientUnits="userSpaceOnUse" x1="602.7422" y1="1327.554" x2="681.5898" y2="1327.554">
					<stop  offset="0" style="stop-color:#FE7062"/>
					<stop  offset="1" style="stop-color:#FF928E"/>
				</linearGradient>
				<path class="st43" d="M672,1192.26c-0.57,2.36-55.1,206.89-68.93,258.74c-1.59,5.98,2.86,11.84,8.97,11.84l0,0
					c4.26,0,7.98-2.94,9.01-7.13l60.54-245.44L672,1192.26z"/>
				<linearGradient id="SVGID_39_" gradientUnits="userSpaceOnUse" x1="692.2677" y1="1327.554" x2="771.1155" y2="1327.554">
					<stop  offset="0" style="stop-color:#FE7062"/>
					<stop  offset="1" style="stop-color:#FF928E"/>
				</linearGradient>
				<path class="st44" d="M701.86,1192.26c0.57,2.36,55.1,206.89,68.93,258.74c1.59,5.98-2.86,11.84-8.97,11.84l0,0
					c-4.26,0-7.98-2.94-9.01-7.13l-60.54-245.44L701.86,1192.26z"/>
				<linearGradient id="SVGID_40_" gradientUnits="userSpaceOnUse" x1="670.1687" y1="1236.0797" x2="704.1321" y2="1236.0797">
					<stop  offset="0" style="stop-color:#FE7062"/>
					<stop  offset="1" style="stop-color:#FF928E"/>
				</linearGradient>
				<path class="st45" d="M704.13,1185.57h-33.96v27.28c0,3.92,3.14,7.1,7.01,7.1h4.66v61.26c0,2.97,2.38,5.37,5.31,5.37l0,0
					c2.93,0,5.31-2.41,5.31-5.37v-61.26h2.36c5.14,0,9.31-4.22,9.31-9.42V1185.57z"/>
				<linearGradient id="SVGID_41_" gradientUnits="userSpaceOnUse" x1="683.9416" y1="1177.8092" x2="659.8436" y2="1355.9873">
					<stop  offset="0" style="stop-color:#09005D"/>
					<stop  offset="1" style="stop-color:#1A0F91"/>
				</linearGradient>
				<path class="st46" d="M586.66,1179.02H776.3c2.65,0,4.97,1.81,5.63,4.41l2.65,10.38c0.95,3.74-1.85,7.37-5.66,7.35l-194.59-1.13
					c-3.77-0.02-6.52-3.62-5.6-7.32l2.3-9.25C581.67,1180.85,584,1179.02,586.66,1179.02z"/>
			</g>
		</g>
		<g>
			<g>
				<g>
					<path class="st15" d="M378.57,911.14c-1.7,0-3.37-0.74-4.51-2.09l-18.71-22.12c-13.65,1.73-27.38,1.43-40.89-0.91l-19.68,21.24
						c-1.71,1.85-4.41,2.41-6.72,1.39l-33.83-14.92c-2.31-1.02-3.71-3.39-3.51-5.9l2.41-28.86c-10.83-8.39-20.32-18.32-28.25-29.57
						l-28.95,1.1c-2.55,0.06-4.82-1.42-5.73-3.77l-13.37-34.47c-0.91-2.35-0.23-5.02,1.69-6.65l22.12-18.71
						c-1.74-13.65-1.43-27.38,0.91-40.89l-21.24-19.68c-1.85-1.71-2.41-4.41-1.39-6.72l14.92-33.83c1.01-2.3,3.38-3.7,5.89-3.51
						l28.86,2.41c8.39-10.84,18.33-20.33,29.57-28.25l-1.1-28.95c-0.09-2.52,1.42-4.82,3.77-5.73l34.47-13.37
						c2.35-0.91,5.02-0.23,6.65,1.69l18.71,22.12c13.65-1.74,27.39-1.43,40.89,0.91l19.68-21.24c1.71-1.84,4.41-2.4,6.71-1.39
						l33.83,14.92c2.31,1.02,3.72,3.39,3.5,5.9l-2.41,28.85c10.84,8.39,20.33,18.33,28.25,29.57l28.95-1.1
						c2.5-0.09,4.82,1.42,5.73,3.77l13.37,34.47c0.91,2.35,0.23,5.02-1.69,6.65l-22.12,18.71c1.74,13.65,1.43,27.38-0.91,40.89
						l21.24,19.68c1.85,1.71,2.41,4.41,1.39,6.72l-14.92,33.83c-1.02,2.31-3.4,3.68-5.9,3.5l-28.85-2.41
						c-8.39,10.84-18.33,20.33-29.57,28.25l1.1,28.95c0.09,2.52-1.42,4.82-3.77,5.73l-34.47,13.37
						C380.01,911.01,379.29,911.14,378.57,911.14z M358.1,879.73l20.72,24.5l33.35-12.94l-1.22-32.06l1.54-1.05
						c11.79-8.07,22.11-17.92,30.67-29.29l1.12-1.49l31.95,2.67l14.43-32.73l-23.52-21.8l0.34-1.83c2.62-13.98,2.94-28.25,0.94-42.4
						l-0.26-1.84l24.5-20.72l-12.94-33.35l-32.06,1.22l-1.05-1.54c-8.07-11.79-17.92-22.11-29.29-30.67l-1.49-1.12l2.67-31.95
						l-32.73-14.43l-21.79,23.52l-1.83-0.34c-13.98-2.62-28.25-2.94-42.4-0.95l-1.84,0.26l-20.72-24.49l-33.35,12.94l1.22,32.06
						l-1.54,1.05c-11.79,8.07-22.11,17.92-30.67,29.29l-1.12,1.49l-31.95-2.67l-14.43,32.73l23.52,21.8l-0.34,1.83
						c-2.62,13.98-2.94,28.25-0.94,42.4l0.26,1.84l-24.5,20.72l12.94,33.35l32.06-1.22l1.05,1.54
						c8.07,11.79,17.93,22.11,29.29,30.67l1.49,1.12l-2.67,31.95l32.73,14.43l21.8-23.52l1.83,0.34c13.98,2.62,28.25,2.94,42.4,0.94
						L358.1,879.73z M337.17,842.49c-12.46,0-25.11-2.53-37.22-7.87c-46.71-20.6-67.96-75.36-47.36-122.07
						c9.98-22.63,28.17-40.02,51.23-48.96c23.05-8.94,48.22-8.38,70.85,1.6c6.04,2.66,11.79,5.96,17.09,9.81
						c1.51,1.09,1.85,3.21,0.75,4.72c-1.1,1.51-3.21,1.85-4.72,0.75c-4.92-3.56-10.25-6.63-15.85-9.1
						c-20.98-9.25-44.3-9.78-65.68-1.48c-21.38,8.29-38.24,24.41-47.49,45.39c-19.1,43.31,0.6,94.07,43.91,113.17
						c43.31,19.1,94.08-0.6,113.17-43.91c6.28-14.24,8.58-29.88,6.65-45.23c-0.23-1.85,1.08-3.54,2.93-3.77
						c1.84-0.21,3.54,1.08,3.77,2.93c2.08,16.57-0.4,33.44-7.17,48.8C406.76,821.86,372.75,842.49,337.17,842.49z"/>
				</g>
				<g>
					<path class="st15" d="M338.04,785.77c-2.03,0-4.08-0.17-6.09-0.52c-19.68-3.34-32.98-22.07-29.64-41.75
						c2.96-17.47,17.96-30.16,35.66-30.16c2.03,0,4.08,0.17,6.09,0.52c9.54,1.62,17.87,6.85,23.47,14.74
						c5.6,7.89,7.79,17.48,6.17,27.01C370.74,773.09,355.74,785.77,338.04,785.77z M337.97,720.1c-14.39,0-26.59,10.32-29,24.53
						c-2.72,16.01,8.1,31.25,24.11,33.96c1.64,0.28,3.31,0.42,4.96,0.42c14.39,0,26.59-10.32,29-24.53
						c1.32-7.76-0.47-15.56-5.02-21.98c-4.55-6.41-11.33-10.67-19.09-11.99C341.29,720.25,339.62,720.1,337.97,720.1z"/>
				</g>
			</g>
			<g>
				<g>
					<path class="st15" d="M524.61,646.44c-0.3,0-0.59-0.04-0.89-0.13l-10.44-3.24c-1.22-0.38-2.07-1.49-2.11-2.77l-0.25-7.89
						c-3.16-1.98-6.02-4.36-8.54-7.09l-7.79,1.2c-1.27,0.2-2.51-0.44-3.11-1.56l-5.1-9.68c-0.59-1.14-0.41-2.52,0.47-3.45l5.4-5.75
						c-0.83-3.63-1.17-7.34-1.02-11.06l-6.36-4.66c-1.03-0.76-1.47-2.09-1.09-3.31l3.24-10.44c0.38-1.23,1.5-2.08,2.78-2.11
						l7.88-0.25c1.98-3.16,4.36-6.03,7.1-8.54l-1.2-7.79c-0.19-1.26,0.44-2.51,1.56-3.11l9.67-5.09c1.13-0.6,2.52-0.41,3.45,0.47
						l5.74,5.39c3.63-0.83,7.33-1.17,11.06-1.02l4.67-6.36c0.76-1.03,2.09-1.47,3.31-1.09l10.44,3.24c1.22,0.38,2.07,1.49,2.11,2.77
						l0.25,7.89c3.16,1.98,6.03,4.36,8.54,7.1l7.8-1.2c1.26-0.2,2.52,0.44,3.11,1.57l5.09,9.67c0.6,1.13,0.41,2.51-0.47,3.45
						l-5.4,5.75c0.83,3.63,1.17,7.34,1.02,11.06l6.36,4.66c1.03,0.76,1.47,2.09,1.09,3.31l-3.24,10.44
						c-0.38,1.22-1.49,2.07-2.76,2.11l-7.9,0.25c-1.98,3.16-4.36,6.02-7.09,8.54l1.2,7.79c0.19,1.26-0.43,2.51-1.56,3.11l-9.67,5.1
						c-1.14,0.59-2.53,0.4-3.46-0.48l-5.74-5.39c-3.62,0.83-7.33,1.18-11.06,1.02l-4.67,6.37
						C526.45,646,525.55,646.44,524.61,646.44z M515.63,639.09l8.39,2.6l5.49-7.49l1.24,0.09c4.07,0.28,8.14-0.09,12.08-1.11
						l1.2-0.31l6.76,6.35l7.77-4.09l-1.41-9.17l0.94-0.81c3.07-2.67,5.68-5.81,7.75-9.33l0.63-1.07l9.28-0.29l2.6-8.39l-7.49-5.49
						l0.09-1.24c0.29-4.08-0.08-8.14-1.11-12.08l-0.31-1.2l6.35-6.76l-4.09-7.77l-9.17,1.41l-0.81-0.94
						c-2.67-3.07-5.81-5.68-9.33-7.75l-1.07-0.63l-0.29-9.28l-8.4-2.6l-5.49,7.49l-1.24-0.09c-4.07-0.28-8.14,0.09-12.08,1.11
						l-1.2,0.31l-6.76-6.35l-7.78,4.09l1.41,9.17l-0.94,0.82c-3.07,2.66-5.68,5.8-7.75,9.33l-0.63,1.07l-9.28,0.29l-2.6,8.39
						l7.48,5.49l-0.09,1.24c-0.29,4.08,0.09,8.14,1.11,12.08l0.31,1.2l-6.35,6.76l4.09,7.78l9.17-1.41l0.81,0.94
						c2.67,3.07,5.81,5.68,9.33,7.75l1.07,0.63L515.63,639.09z M533.18,625.29c-2.85,0-5.71-0.43-8.51-1.3
						c-7.3-2.26-13.29-7.24-16.85-14c-7.35-13.97-1.98-31.31,11.99-38.66c13.96-7.35,31.31-1.98,38.66,11.99
						c0.95,1.8,1.71,3.71,2.25,5.66c0.34,1.2-0.36,2.44-1.56,2.77c-1.2,0.34-2.44-0.36-2.77-1.56c-0.46-1.65-1.1-3.25-1.9-4.77
						c-6.2-11.77-20.81-16.3-32.58-10.11c-11.77,6.2-16.3,20.81-10.1,32.58c3,5.7,8.04,9.89,14.2,11.8
						c6.16,1.91,12.68,1.31,18.38-1.7c3.87-2.04,7.11-5.08,9.37-8.79c0.64-1.06,2.03-1.4,3.09-0.75c1.06,0.65,1.4,2.03,0.75,3.09
						c-2.68,4.41-6.53,8.02-11.12,10.44C542.32,624.18,537.77,625.29,533.18,625.29z"/>
				</g>
				<g>
					<path class="st15" d="M533.38,608.66c-3.39,0-6.63-1.44-8.9-3.97c-2.13-2.37-3.22-5.44-3.05-8.63
						c0.17-3.19,1.57-6.12,3.95-8.25c2.2-1.97,5.03-3.06,7.99-3.06c3.39,0,6.63,1.44,8.9,3.96c2.13,2.38,3.22,5.44,3.05,8.63
						c-0.17,3.19-1.57,6.12-3.95,8.25C539.17,607.57,536.33,608.66,533.38,608.66z M533.37,589.25c-1.84,0-3.61,0.68-4.98,1.91
						c-1.48,1.33-2.36,3.16-2.46,5.15c-0.11,1.99,0.57,3.9,1.9,5.38c2.64,2.94,7.58,3.21,10.53,0.56c1.48-1.33,2.36-3.16,2.46-5.14
						c0.11-1.99-0.57-3.9-1.9-5.38C537.51,590.15,535.49,589.25,533.37,589.25z"/>
				</g>
			</g>
		</g>
		<g>
			<linearGradient id="SVGID_42_" gradientUnits="userSpaceOnUse" x1="1449.9167" y1="892.0113" x2="1496.2354" y2="940.3885">
				<stop  offset="0" style="stop-color:#2B3582"/>
				<stop  offset="1" style="stop-color:#150E42"/>
			</linearGradient>
			<path class="st47" d="M1437.01,867.03c0,0-12.78,0.68-14.34,26.96c0,0,29.63,26.56,69.65,32.88c3,0.47-4.2-20.51-5.28-23.35
				C1481.87,889.99,1465.64,881.28,1437.01,867.03z"/>
			<linearGradient id="SVGID_43_" gradientUnits="userSpaceOnUse" x1="1381.9924" y1="867.1576" x2="1381.9924" y2="1113.1456">
				<stop  offset="0" style="stop-color:#FE7062"/>
				<stop  offset="1" style="stop-color:#FF928E"/>
			</linearGradient>
			<path class="st48" d="M1293.11,836.12h26.96c0,0,82.75-91.39,137.03-100.61c0,0,37.78,48.23-2.01,138.34
				c-3.2,7.25-12.15,10.47-18.83,6.2c-2-1.28-3.43-2.99-4.3-5.13l3.2-76.94c0,0-70.59,61.74-82.86,73.65
				C1340.03,883.54,1277.66,876.28,1293.11,836.12z"/>
			<linearGradient id="SVGID_44_" gradientUnits="userSpaceOnUse" x1="1511.361" y1="1013.4382" x2="1598.9745" y2="1077.7417">
				<stop  offset="0" style="stop-color:#2B3582"/>
				<stop  offset="1" style="stop-color:#150E42"/>
			</linearGradient>
			<path class="st49" d="M1553.78,1028c-11.3-9.9-29.3-21.01-55.29-24.2l-8.79,5.38c0,0,5.6,8.27,15.84,17
				c9.41,5.47,23.94,12.87,35.99,14.47C1553.24,1042.22,1554.97,1035.14,1553.78,1028z"/>
			<linearGradient id="SVGID_45_" gradientUnits="userSpaceOnUse" x1="1463.2356" y1="900.97" x2="1522.7159" y2="724.1368">
				<stop  offset="0" style="stop-color:#2B3582"/>
				<stop  offset="1" style="stop-color:#150E42"/>
			</linearGradient>
			<path class="st50" d="M1487.03,903.52c-6.96,2.25-10.02,12.11-27.68,5.59c-17.09-6.31-29.79-14.45-36.33-19.14
				c-0.15,1.27-0.27,2.6-0.35,4.02c0,0,31.24,29.71,71.26,36.03c3,0.47,5.39-2.52,4.3-5.37
				C1496.28,919.56,1492.78,911.82,1487.03,903.52z"/>
			<linearGradient id="SVGID_46_" gradientUnits="userSpaceOnUse" x1="1493.972" y1="1041.9913" x2="1594.1442" y2="1026.7966">
				<stop  offset="0" style="stop-color:#2B3582"/>
				<stop  offset="1" style="stop-color:#150E42"/>
			</linearGradient>
			<path class="st51" d="M1562.29,1036.46c-2.23-2.53-5.07-5.44-8.51-8.45c1.19,7.14-0.54,14.21-12.25,12.65
				c-12.05-1.6-26.58-9.01-35.99-14.47c11.79,10.06,29.74,20.73,52.39,20.11C1562.96,1046.15,1565.62,1040.24,1562.29,1036.46z"/>
			<linearGradient id="SVGID_47_" gradientUnits="userSpaceOnUse" x1="1397.2178" y1="1054.2847" x2="1389.7142" y2="1019.7685">
				<stop  offset="0" style="stop-color:#FE7062"/>
				<stop  offset="1" style="stop-color:#FF928E"/>
			</linearGradient>
			<path class="st52" d="M1294.1,855.63l126.26,1.37c0,0,72.1,59.66,85.18,150.62c0,0,2.17,6.69-10.86,7.83
				c0,0-43.59-28.47-72.02-78.81c-34.85-61.72-90.92-39.69-90.92-39.69c-68.02,23.19-91.31-11.24-91.88-19.39L1294.1,855.63z"/>
			<path class="st5" d="M1297.08,753.92c0,0,13.59,68.12,80.19,95.07l23.69-2.79l5.59,8.91l-55.57,1.77c0,0-47.5-18.81-72.67-70.08
				C1277.49,785.1,1263.63,756.49,1297.08,753.92z"/>
			<linearGradient id="SVGID_48_" gradientUnits="userSpaceOnUse" x1="1310.6624" y1="620.0972" x2="1191.7017" y2="880.5243">
				<stop  offset="0" style="stop-color:#09005D"/>
				<stop  offset="1" style="stop-color:#1A0F91"/>
			</linearGradient>
			<path class="st53" d="M1304.37,854.51c0,0-15.46-42.02-18.78-82.84c0,0,11.31-9.72,18.38-13.91c2.29-1.36,3.15-4.23,2-6.63
				c-5.2-10.76-36.62-53.03-38.97-53.62c-12.8-3.19-65.27-28.14-102.22,22.41c-15.86,21.69,3.15,88.48,75.1,157.64l2.39,0.46
				c8.07,1.54,16.42,0.32,23.7-3.48L1304.37,854.51z"/>
			<path class="st5" d="M1244.81,780.88c0,0,42.94,50.85,97.85,58.28c0,0,14.19-12.94,24.74-8.32c10.55,4.62,25.02,25,25.02,25
				h-70.5c0,0-66.66-2.35-99.97-42.77C1224.63,798.93,1232.66,790.49,1244.81,780.88z"/>
			<linearGradient id="SVGID_49_" gradientUnits="userSpaceOnUse" x1="1210.2104" y1="682.3358" x2="1249.7772" y2="682.3358">
				<stop  offset="0" style="stop-color:#DAE3FE"/>
				<stop  offset="1" style="stop-color:#E9EFFD"/>
			</linearGradient>
			<path class="st54" d="M1219.75,661.85l-9.4,31.34c-0.43,1.44,0.1,2.99,1.34,3.84c4.52,3.1,16.35,9.26,32.57,3.27
				c1.85-0.68,3.13-2.42,3.29-4.39l2.23-27.3L1219.75,661.85z"/>
			<g>
				<path class="st5" d="M1274.77,636.47c0,0-4.62,32.49-17.1,42.48c-12.48,9.99-36.79,2.47-45-22.02l16.36-41.87L1274.77,636.47z"
					/>
				<linearGradient id="SVGID_50_" gradientUnits="userSpaceOnUse" x1="1233.6649" y1="554.0779" x2="1251.6112" y2="656.4382">
					<stop  offset="0" style="stop-color:#2B3582"/>
					<stop  offset="1" style="stop-color:#150E42"/>
				</linearGradient>
				<path class="st55" d="M1227.19,642.15c0.95,0.31,1.94-0.3,2.09-1.29c0.45-3,1.57-8.93,3.85-12.98c0,0-1.19-4.26,10.77,2.18
					c11.96,6.44,29.93,15.9,40.51,10.26c10.31-5.49,20.76-33.13-6.5-28.01c-1.04,0.19-1.99-0.63-1.91-1.68
					c0.33-4.54-0.12-14.99-10.7-18.34c-9.9-3.14-15.32,1.33-17.56,4.03c-0.66,0.79-1.88,0.78-2.5-0.04
					c-2.97-3.87-11.02-12.11-22.88-6.89c-9.77,4.3-11.29,10.32-11.13,14.07c0.05,1.21-1.18,2.04-2.28,1.53
					c-2.99-1.38-7.8-2.09-12.41,3.68c-6.37,7.98,2.73,14.91,5.47,16.72c0.45,0.3,0.73,0.79,0.73,1.33
					c0.03,4.15,0.67,22.26,9.75,32.48c0.79,0.88,2.24,0.63,2.7-0.47l6.99-16.65c0.32-0.77,1.19-1.17,1.99-0.91L1227.19,642.15z"/>
				<path class="st5" d="M1227.34,645.53c0,0-4.27-17.38-10.75-11.74c-6.48,5.64,1.69,18.07,9.12,20.43L1227.34,645.53z"/>
			</g>
			<linearGradient id="SVGID_51_" gradientUnits="userSpaceOnUse" x1="1388.8638" y1="803.3464" x2="1479.3348" y2="803.3464">
				<stop  offset="0" style="stop-color:#09005D"/>
				<stop  offset="1" style="stop-color:#1A0F91"/>
			</linearGradient>
			<path class="st56" d="M1388.86,859.79l31.65-105.56c1.29-4.31,5.12-7.36,9.6-7.67l42.74-2.92c4.34-0.3,7.57,3.95,6.13,8.05
				L1443.6,852.5c-1.14,3.25-4.06,5.54-7.48,5.89l-42.08,4.67L1388.86,859.79z"/>
			<linearGradient id="SVGID_52_" gradientUnits="userSpaceOnUse" x1="1399.8445" y1="842.8937" x2="1327.5033" y2="862.7205">
				<stop  offset="0" style="stop-color:#09005D"/>
				<stop  offset="1" style="stop-color:#1A0F91"/>
			</linearGradient>
			<path class="st57" d="M1394.04,863.07c-0.07,0-0.14,0-0.21-0.01l-89.67-4.53c-2.22-0.11-3.92-2-3.81-4.22
				c0.11-2.22,2.01-3.96,4.22-3.81l89.67,4.53c2.22,0.11,3.92,2,3.81,4.22C1397.94,861.4,1396.16,863.07,1394.04,863.07z"/>
			<linearGradient id="SVGID_53_" gradientUnits="userSpaceOnUse" x1="1342.1095" y1="647.2887" x2="1234.4019" y2="830.5523">
				<stop  offset="0" style="stop-color:#4042E2"/>
				<stop  offset="1" style="stop-color:#4F52FF"/>
			</linearGradient>
			<path class="st58" d="M1285.59,772.48C1285.59,772.48,1285.59,772.48,1285.59,772.48c-0.45,0-0.81-0.36-0.8-0.81
				c0.06-18.72-7.17-43.58-7.24-43.83c-0.13-0.43,0.12-0.87,0.54-1c0.43-0.13,0.87,0.12,1,0.54c0.07,0.25,7.37,25.33,7.3,44.28
				C1286.39,772.12,1286.03,772.48,1285.59,772.48z"/>
			<linearGradient id="SVGID_54_" gradientUnits="userSpaceOnUse" x1="1309.1232" y1="627.902" x2="1201.4154" y2="811.1658">
				<stop  offset="0" style="stop-color:#4042E2"/>
				<stop  offset="1" style="stop-color:#4F52FF"/>
			</linearGradient>
			<path class="st59" d="M1244.81,781.68c-0.24,0-0.47-0.1-0.63-0.31c-0.2-0.25-19.82-25.19-26.56-42.29
				c-0.16-0.41,0.04-0.88,0.45-1.04c0.41-0.17,0.88,0.04,1.04,0.45c6.66,16.88,26.14,41.64,26.33,41.89
				c0.27,0.35,0.21,0.85-0.13,1.13C1245.16,781.63,1244.98,781.68,1244.81,781.68z"/>
			<linearGradient id="SVGID_55_" gradientUnits="userSpaceOnUse" x1="1297.1841" y1="620.8856" x2="1189.4772" y2="804.148">
				<stop  offset="0" style="stop-color:#4042E2"/>
				<stop  offset="1" style="stop-color:#4F52FF"/>
			</linearGradient>
			<path class="st60" d="M1217.24,819.82l-0.6-0.26c-28.4-12.16-45.94-46.07-46.12-46.41c-0.2-0.4-0.04-0.88,0.35-1.08
				c0.4-0.2,0.88-0.05,1.08,0.35c0.17,0.33,17.21,33.26,44.72,45.4l2.88-4.07c0.26-0.36,0.76-0.45,1.12-0.19
				c0.36,0.26,0.45,0.76,0.19,1.12L1217.24,819.82z"/>
		</g>
		<g>
			<g>
				<g>
					<linearGradient id="SVGID_56_" gradientUnits="userSpaceOnUse" x1="1909.639" y1="1422.0398" x2="1933.2562" y2="1273.4806">
						<stop  offset="0" style="stop-color:#4042E2"/>
						<stop  offset="0.3335" style="stop-color:#4547EC"/>
						<stop  offset="1" style="stop-color:#4F52FF"/>
					</linearGradient>
					<rect x="1912.71" y="1309.3" class="st61" width="10.93" height="118.17"/>
					<linearGradient id="SVGID_57_" gradientUnits="userSpaceOnUse" x1="1918.8855" y1="1423.1288" x2="1943.147" y2="1270.5173">
						<stop  offset="0" style="stop-color:#4042E2"/>
						<stop  offset="0.3335" style="stop-color:#4547EC"/>
						<stop  offset="1" style="stop-color:#4F52FF"/>
					</linearGradient>
					<path class="st62" d="M1966.02,1429.75h-95.7v-3.97c0-1.74,1.41-3.14,3.14-3.14h89.42c1.74,0,3.14,1.41,3.14,3.14V1429.75z"/>
					<linearGradient id="SVGID_58_" gradientUnits="userSpaceOnUse" x1="1890.9529" y1="1482.9777" x2="1914.5702" y2="1334.4177">
						<stop  offset="0" style="stop-color:#09005D"/>
						<stop  offset="1" style="stop-color:#1A0F91"/>
					</linearGradient>
					<path class="st63" d="M1980.22,1305.2c0,6.46-5.29,11.75-11.75,11.75h-96.83c-6.46,0-11.75-5.29-11.75-11.75v-10.63
						c0-6.46,5.29-11.75,11.75-11.75h96.83c6.46,0,11.75,5.29,11.75,11.75V1305.2z"/>
				</g>
				<g>
					<linearGradient id="SVGID_59_" gradientUnits="userSpaceOnUse" x1="1850.8868" y1="1349.3177" x2="1940.887" y2="1453.3179">
						<stop  offset="0" style="stop-color:#FF928E"/>
						<stop  offset="1" style="stop-color:#FEB3B1"/>
					</linearGradient>
					<path class="st64" d="M1837.5,1230.51c0,0-16.24,2.52-34.49,14.72c-2.87,1.92-4.45,5.27-4.02,8.7
						c2.19,17.32,11.17,73.36,40.81,128.1c1.56,2.89,2.01,6.25,1.32,9.46l-5.15,23.96l-9.55,8.95h24.6l16.38-44.32l-7-2.21
						c-5.43-1.72-9.15-6.71-9.25-12.4l-0.82-47.54c0.7-21.18-12.99-35.79-12.99-35.79l39.28-1.91L1837.5,1230.51z"/>
					<linearGradient id="SVGID_60_" gradientUnits="userSpaceOnUse" x1="1846.4597" y1="1378.0776" x2="1835.032" y2="1553.3013">
						<stop  offset="0" style="stop-color:#4042E2"/>
						<stop  offset="0.3335" style="stop-color:#4547EC"/>
						<stop  offset="1" style="stop-color:#4F52FF"/>
					</linearGradient>
					<path class="st65" d="M1816.82,1428.72c-2.24,2.93,24.11,6.8,37.42,0.39c0,0,18.45-32.11,18.45-48.64c0,0-1.46-3.37-12.3-2.61
						c0,0-6.2,38.02-12.74,42.27c-6.54,4.26-18.3,0.43-18.3,0.43S1820.13,1424.39,1816.82,1428.72z"/>
					<linearGradient id="SVGID_61_" gradientUnits="userSpaceOnUse" x1="1757.261" y1="1166.281" x2="1783.261" y2="1317.281">
						<stop  offset="0" style="stop-color:#FF928E"/>
						<stop  offset="1" style="stop-color:#FEB3B1"/>
					</linearGradient>
					<path class="st66" d="M1871.65,1282.82c-0.21-0.36-42.29-5.06-42.29-5.06s1.38,12.8-2.93,30.41
						c-4.3,17.61-66.09,93.93-66.09,93.93l6.48,20.54c-20.03,6.98-39.73,8.09-59.12,3.56l40.15-24.09c0,0,37.57-128.05,60.59-150.89
						l42.18-14.59L1871.65,1282.82z"/>
					<linearGradient id="SVGID_62_" gradientUnits="userSpaceOnUse" x1="1865.949" y1="1380.5485" x2="1895.4028" y2="1271.9374">
						<stop  offset="0" style="stop-color:#4042E2"/>
						<stop  offset="1" style="stop-color:#4F52FF"/>
					</linearGradient>
					<path class="st67" d="M1966.02,1208.32c0,0,24.25,36.06,26.23,52.51c1.99,16.45-6.64,23.13-32.08,24.24
						c-25.44,1.1-93.35,1.08-93.35,1.08l-57.96-49.54c0,0,42.24-15.07,53.22-19.33C1873.06,1213.01,1966.02,1208.32,1966.02,1208.32
						z"/>
					<linearGradient id="SVGID_63_" gradientUnits="userSpaceOnUse" x1="1736.1844" y1="1370.8857" x2="1724.7567" y2="1546.1099">
						<stop  offset="0" style="stop-color:#4042E2"/>
						<stop  offset="0.3335" style="stop-color:#4547EC"/>
						<stop  offset="1" style="stop-color:#4F52FF"/>
					</linearGradient>
					<path class="st68" d="M1764.37,1415.72c0,0,6.97,6.76,2.26,14.27c0,0-55.25,9.79-70.25,5.35c0,0,3.11-7.11,20.01-15.2
						l-1.25,0.96c-1.58,1.21-0.65,3.73,1.33,3.62C1727.6,1424.08,1750.64,1422.04,1764.37,1415.72z"/>
				</g>
				<g>
					<linearGradient id="SVGID_64_" gradientUnits="userSpaceOnUse" x1="1916.1222" y1="1152.5535" x2="2003.2394" y2="1342.1613">
						<stop  offset="0" style="stop-color:#4042E2"/>
						<stop  offset="1" style="stop-color:#4F52FF"/>
					</linearGradient>
					<path class="st69" d="M1900.45,1203.54c0,0-28.23-26.88-42.13-44.69c-7.51-9.63-9.87-22.3-6.4-34
						c6.35-21.38,17.62-43.52,18.65-46.96c1.58-5.28,33.23-5.06,33.23-5.06s62.3,40.43,86.77,108.92l-27.49,8.56
						c0,0-16.27-27.29-32.34-44.64c0,0,27.81,36.74,28.79,51.78L1900.45,1203.54z"/>
					<linearGradient id="SVGID_65_" gradientUnits="userSpaceOnUse" x1="1873.0616" y1="1035.8236" x2="1906.3949" y2="1117.8237">
						<stop  offset="0" style="stop-color:#FF928E"/>
						<stop  offset="1" style="stop-color:#FEB3B1"/>
					</linearGradient>
					<path class="st70" d="M1866.74,1048.36c0.33,1.1,8.59,28.49,9.24,29.06c0.65,0.57,18.12,1.51,26.35-4.11l-16.5-39.28
						L1866.74,1048.36z"/>
					<linearGradient id="SVGID_66_" gradientUnits="userSpaceOnUse" x1="1830.0503" y1="1048.8088" x2="1881.3131" y2="1048.8088">
						<stop  offset="0" style="stop-color:#FF928E"/>
						<stop  offset="1" style="stop-color:#FEB3B1"/>
					</linearGradient>
					<path class="st71" d="M1831.16,1025.33c0,0-4.72,15.49,5.32,37.09c10.05,21.6,22.54,22.16,29.69,15.74
						c7.15-6.43,16.1-17.48,15.06-37.96C1880.18,1019.71,1837.85,1005.66,1831.16,1025.33z"/>
					
						<linearGradient id="SVGID_67_" gradientUnits="userSpaceOnUse" x1="3466.783" y1="2722.5486" x2="3345.2808" y2="2848.96" gradientTransform="matrix(0.6408 -0.7677 0.7677 0.6408 -2472.1111 1815.6113)">
						<stop  offset="0" style="stop-color:#09005D"/>
						<stop  offset="1" style="stop-color:#1A0F91"/>
					</linearGradient>
					<path class="st72" d="M1865.91,1040.58c0,0-17-28.85-35.2-7.62l-0.69,8c0,0-20-3.33-15.61-21.6
						c4.38-18.27,26.19-32.8,48.19-23.76c22.01,9.04,30.56,21.64,31.26,37.75c0.69,16.11-11.9,11.99-11.9,11.99
						s-3.63-11.49-9.5-12.94c-5.86-1.45-4.74,7.43-4.74,7.43L1865.91,1040.58z"/>
					<linearGradient id="SVGID_68_" gradientUnits="userSpaceOnUse" x1="1866.9784" y1="1034.0342" x2="1879.0718" y2="1034.0342">
						<stop  offset="0" style="stop-color:#FF928E"/>
						<stop  offset="1" style="stop-color:#FEB3B1"/>
					</linearGradient>
					<path class="st73" d="M1870.62,1040.43c0,0-8.82-14.78,1.01-16.46c9.83-1.68,7.57,14.35,6.24,20.26L1870.62,1040.43z"/>
					<linearGradient id="SVGID_69_" gradientUnits="userSpaceOnUse" x1="1964.9187" y1="1067.1141" x2="1924.2518" y2="1191.1144">
						<stop  offset="0" style="stop-color:#FF928E"/>
						<stop  offset="1" style="stop-color:#FEB3B1"/>
					</linearGradient>
					<path class="st74" d="M1842.93,1205.54l20.74-19.99l28.7,12.12c0,0,28.56,4.43,44.91,0c16.35-4.43,16.35-4.43,16.35-4.43
						l36.94-11.5l5.8,16.4c1.47,4.16-0.01,8.79-3.61,11.34c-3.2,2.27-6.94,4.77-9.33,5.81c-4.87,2.13-119.93-1.47-119.93-1.47
						L1842.93,1205.54z"/>
					
						<linearGradient id="SVGID_70_" gradientUnits="userSpaceOnUse" x1="3520.7834" y1="2774.4558" x2="3399.2803" y2="2900.8682" gradientTransform="matrix(0.6408 -0.7677 0.7677 0.6408 -2472.1111 1815.6113)">
						<stop  offset="0" style="stop-color:#09005D"/>
						<stop  offset="1" style="stop-color:#1A0F91"/>
					</linearGradient>
					<path class="st75" d="M1863.93,999.55c-5.12,0.41-8.39-5.36-5.74-9.77c8.54-14.22,26.56-31.73,60.22-17.31
						c37.92,16.25,58.02,23.01,65.75,19.16c5.07-2.52,10.81,1.84,9.28,7.29c-1.13,4.03-4.17,8.62-10.51,13.53
						C1934.02,1050.31,1893.98,997.17,1863.93,999.55z"/>
				</g>
				<g>
					
						<linearGradient id="SVGID_71_" gradientUnits="userSpaceOnUse" x1="1868.0535" y1="1363.708" x2="1771.1017" y2="1390.28" gradientTransform="matrix(0.9988 -0.0494 0.0494 0.9988 8.6714 -86.798)">
						<stop  offset="0" style="stop-color:#09005D"/>
						<stop  offset="1" style="stop-color:#1A0F91"/>
					</linearGradient>
					<path class="st76" d="M1921.44,1214.96c-0.09,0-0.18,0.01-0.28,0.01l-120.33-0.13c-2.97,0-5.38-2.42-5.38-5.39
						c0-2.98,2.43-5.43,5.39-5.38l120.33,0.13c2.97,0,5.38,2.42,5.38,5.39C1926.55,1212.47,1924.28,1214.82,1921.44,1214.96z"/>
					<linearGradient id="SVGID_72_" gradientUnits="userSpaceOnUse" x1="1810.6307" y1="1120.36" x2="1741.839" y2="1193.0686">
						<stop  offset="0" style="stop-color:#09005D"/>
						<stop  offset="1" style="stop-color:#1A0F91"/>
					</linearGradient>
					<path class="st77" d="M1692.65,1105.71h100.21c7.39,0,14.12,4.27,17.28,10.95l46.33,98.24h-124.54c-4.76,0-9.04-2.91-10.8-7.34
						l-35.93-90.9C1683.13,1111.4,1687.01,1105.71,1692.65,1105.71z"/>
					<path class="st3" d="M1763.25,1156.08c2.17,6.75,0.57,13.3-3.58,14.64c-4.15,1.34-9.28-3.05-11.45-9.8
						c-2.17-6.75-0.57-13.3,3.58-14.64C1755.96,1144.95,1761.08,1149.33,1763.25,1156.08z"/>
				</g>
				<g>
					<path class="st15" d="M2089.62,1219.36c0.28-1.36-0.1-2.78-1.05-3.85c-0.94-1.07-2.35-1.69-3.83-1.69H1582.6
						c-1.95,0-3.76,0.93-4.81,2.47c-1.05,1.54-1.19,3.47-0.37,5.13l5.44,11.04c1.25,2.53,3.95,4.15,6.92,4.15h491.52
						c2.76,0,5.14-1.84,5.66-4.38L2089.62,1219.36z"/>
					<g>
						<path class="st15" d="M1610.75,1452.04c-0.58,0-1.17-0.12-1.74-0.37c-2.24-0.98-3.27-3.64-2.31-5.92l92.42-219.82
							c0.96-2.29,3.55-3.34,5.79-2.36c2.24,0.98,3.27,3.64,2.31,5.92l-92.42,219.82
							C1614.08,1451.01,1612.46,1452.04,1610.75,1452.04z"/>
						<path class="st15" d="M1714.86,1452.04c-1.71,0-3.33-1.02-4.05-2.73l-92.42-219.82c-0.96-2.29,0.07-4.94,2.31-5.92
							c2.23-0.98,4.83,0.07,5.79,2.36l92.42,219.82c0.96,2.29-0.07,4.94-2.31,5.92C1716.03,1451.92,1715.44,1452.04,1714.86,1452.04
							z"/>
						<path class="st15" d="M1974.68,1452.04c-0.58,0-1.17-0.12-1.74-0.37c-2.24-0.98-3.27-3.64-2.31-5.92l92.42-219.82
							c0.96-2.29,3.55-3.34,5.79-2.36c2.24,0.98,3.27,3.64,2.31,5.92l-92.42,219.82
							C1978.02,1451.01,1976.39,1452.04,1974.68,1452.04z"/>
						<path class="st15" d="M2078.79,1452.04c-1.71,0-3.33-1.02-4.05-2.73l-92.42-219.82c-0.96-2.29,0.07-4.94,2.31-5.92
							c2.23-0.98,4.83,0.07,5.79,2.36l92.42,219.82c0.96,2.29-0.07,4.94-2.31,5.92C2079.97,1451.92,2079.38,1452.04,2078.79,1452.04
							z"/>
					</g>
				</g>
			</g>
		</g>
		<g>
			<g>
				<path class="st3" d="M1393.64,276.91c0,0,0.86,0.2,1.84,0.89c0.92,0.7,1.87,1.97,3.09,2.9c2.28,1.72,4.29,3.78,4.29,3.78
					l0.03,0.02c0.75,0.61,1.26,1.27,0.62,2.1c-0.64,0.83-1.59,0.8-2.36,0.22c0,0-2.22-1.86-4.53-3.6c-0.57-0.44-1.1-0.94-1.63-1.36
					c-0.59-0.45-0.83-0.7-1.19-1c-0.32-0.28-0.55-0.53-0.85-0.72c-0.26-0.18-0.4-0.29-0.4-0.29l-0.65-0.46
					c-0.78-0.54-1.14-1.4-0.55-2.23c0.59-0.84,1.54-0.88,2.27-0.28L1393.64,276.91z"/>
				<path class="st3" d="M1412.94,290.14l9.68,6.24c0.81,0.52,0.99,1.64,0.42,2.51s-1.7,1.14-2.51,0.62l-9.69-6.23
					c-0.81-0.52-1-1.65-0.42-2.52C1410.99,289.89,1412.12,289.61,1412.94,290.14L1412.94,290.14z"/>
				<path class="st3" d="M1432.08,303.32l10.37,4.82c0.84,0.45,1.21,1.24,0.7,2.14c-0.51,0.9-1.56,1.11-2.4,0.66l-10.18-5.47
					c-0.85-0.45-1.29-0.99-0.78-1.89C1430.3,302.69,1431.18,303.32,1432.08,303.32L1432.08,303.32z"/>
				<path class="st3" d="M1452.36,314.99l10.96,3.2c0.88,0.37,1.38,0.78,0.95,1.7c-0.43,0.92-1.42,1.06-2.3,0.69l-10.65-4.61
					c-0.88-0.37-1.52-0.23-1.08-1.15C1450.68,313.89,1451.49,314.99,1452.36,314.99L1452.36,314.99z"/>
				<path class="st3" d="M1474.98,317.24l10.83,5.15c0.91,0.27,1.21,2.16,0.87,3.1c-0.34,0.95-1.43,1.94-2.34,1.66l-11.18-3.13
					c-0.91-0.27-1.09-2.94-0.74-3.89C1472.77,319.19,1474.15,317.24,1474.98,317.24L1474.98,317.24z"/>
				<path class="st3" d="M1496.88,328.49l11.42,1.26c0.93,0.17,1.44,0.68,1.21,1.64c-0.24,0.96-1.21,1.41-2.14,1.24l-11.54-2.15
					c-0.94-0.17-1.4-0.33-1.17-1.29C1494.89,328.22,1496.09,328.49,1496.88,328.49L1496.88,328.49z"/>
				<path class="st3" d="M1520.91,328.49l11.19,1.43c0.95,0.04,1.31,1.3,1.2,2.27c-0.12,0.97-1.13,1.94-2.08,1.9l-11.89-0.42
					c-0.95-0.04-1.05-1.69-0.93-2.66C1518.51,330.03,1518.5,330.75,1520.91,328.49L1520.91,328.49z"/>
				<path class="st3" d="M1542.99,330.75l11.97-1.25c0.95-0.09,1.76,0.53,1.77,1.48c0.01,0.96-0.73,1.76-1.68,1.85l-11.89,1.06
					c-0.95,0.09-1.8-0.44-1.81-1.41C1541.34,331.51,1542.07,330.75,1542.99,330.75L1542.99,330.75z"/>
				<path class="st3" d="M1566.5,328.49l12.07-1.76c0.94-0.12,1.83,0.43,1.88,1.38c0.05,0.95-0.63,1.76-1.57,1.88l-11.87,1.53
					c-0.94,0.12-1.92-0.34-1.96-1.29C1565,329.27,1565.99,328.07,1566.5,328.49L1566.5,328.49z"/>
				<path class="st3" d="M1590.26,326.24l11.95-3.07c0.93-0.18,1.82,0.03,1.93,0.96c0.1,0.93-0.53,1.63-1.46,1.81l-11.8,2.19
					c-0.93,0.18-1.89,0.32-1.99-0.61C1588.78,326.58,1589.5,326.24,1590.26,326.24L1590.26,326.24z"/>
				<path class="st3" d="M1613.91,319.49l11.66-3.32c0.9-0.27,1.8,0.29,1.99,1.18c0.19,0.9-0.38,1.87-1.29,2.13l-11.64,3.42
					c-0.91,0.27-1.81-0.32-2.01-1.22C1612.43,320.78,1613,319.49,1613.91,319.49L1613.91,319.49z"/>
				<path class="st3" d="M1636.79,312.74c0,0,2.8-1.57,5.59-2.83c2.66-1.38,5.31-2.92,5.31-2.92l0.11-0.14
					c0.84-0.44,1.82-0.16,2.18,0.66c0.37,0.82-0.02,1.82-0.86,2.26c0,0-2.8,1.45-5.6,2.91c-2.79,1.26-5.59,2.51-5.59,2.51
					c-0.86,0.39-1.82,0.33-2.14-0.52C1635.48,313.82,1635.94,312.74,1636.79,312.74L1636.79,312.74z"/>
				<path class="st3" d="M1658.45,300.23c0,0,0.17-0.57,1.04-1.35c0.43-0.39,0.77-0.86,1.22-1.35c0.49-0.49,0.9-1.02,1.42-1.54
					c0.96-1.13,1.95-2.22,2.56-3.14c0.66-0.89,1.07-1.49,1.07-1.49l0.08-0.12c0.56-0.76,1.59-0.97,2.3-0.45
					c0.71,0.52,0.83,1.55,0.27,2.31c0,0-0.49,0.66-1.21,1.65c-0.69,1.02-1.81,2.21-2.87,3.45c-0.58,0.58-1.16,1.17-1.71,1.72
					c-0.55,0.57-1.06,0.99-1.49,1.38c-0.87,0.77-1.46,1.29-1.46,1.29c-0.71,0.63-1.34,0.66-1.9-0.02S1658.45,301.08,1658.45,300.23
					L1658.45,300.23z"/>
				<path class="st3" d="M1671.95,281.4c0,0-0.7-1.07-0.52-2.2c0.12-0.58-0.24-1.36-0.21-2c0.02-0.33-0.16-0.74-0.13-1.08
					c0.01-0.11-0.07-0.51-0.06-0.43l-0.08-0.58c-0.02-0.36-0.05-0.78-0.09-1.1c-0.05-0.29-0.12-0.59-0.17-0.87
					c-0.08-0.56-0.32-1.14-0.43-1.61c-0.35-0.94-0.61-1.56-0.61-1.56l-0.03-0.08c-0.34-0.82,0.06-1.81,0.89-2.23
					c0.83-0.41,1.77-0.09,2.12,0.72c0,0,0.31,0.73,0.73,1.85c0.15,0.6,0.41,1.22,0.54,2.05c0.07,0.41,0.14,0.83,0.21,1.25
					c0.05,0.41,0.05,0.75,0.07,1.14l0.03,0.56c-0.01,0.46-0.03,0.48-0.04,0.73c-0.03,0.4-0.06,0.8-0.09,1.18
					c-0.05,0.78-0.12,1.48-0.23,2.03c-0.18,1.13-0.31,1.88-0.31,1.88c-0.15,0.92-0.17,1.91-1.06,1.83
					C1671.58,282.81,1671.95,282.12,1671.95,281.4L1671.95,281.4z"/>
				<path class="st3" d="M1662.44,262.15c0,0-1.98-2.12-4.24-3.89c-2.36-1.42-4.57-3.01-4.57-3.01l-0.07-0.18
					c-0.74-0.45-0.79-1.39-0.29-2.18c0.5-0.79,0.52-1.91,2.38-0.55l0.01-0.01c0,0,2.47,1.45,5.05,3.01
					c2.27,1.77,4.48,3.49,4.48,3.49c0.69,0.53,0.45,1.89-0.13,2.63C1664.48,262.19,1663.12,262.7,1662.44,262.15L1662.44,262.15z"/>
				<path class="st3" d="M1643.47,249.71c0,0-0.77,0.58-1.85,0.39c-0.53-0.07-1.22,0.09-1.84,0.09c-0.63-0.04-1.32,0.09-1.99,0.05
					c-0.67-0.06-1.37,0.15-2.01,0.17c-0.65,0.02-1.24,0.12-1.73,0.27c-0.99,0.22-1.65,0.38-1.65,0.38l-0.3,0.08
					c-0.87,0.19-1.68-0.36-1.8-1.23c-0.12-0.87,0.48-1.73,1.35-1.93c0,0,0.81-0.18,2.04-0.46c0.62-0.17,1.32-0.24,2.07-0.27
					c0.75-0.02,1.56-0.15,2.36-0.09c0.8,0.05,1.6,0.11,2.35,0.16c0.78,0.03,1.34,0.21,1.9,0.28c1.08,0.19,1.8,0.32,1.8,0.32
					c0.86,0.15,1.44,0.28,1.22,1.17C1645.17,249.97,1644.31,249.71,1643.47,249.71L1643.47,249.71z"/>
				<path class="st3" d="M1626.93,257.8c0,0-2.13,0.52-2.75,1.5c-0.16,0.25-1.18,0.44-1.36,0.73c-0.18,0.28-0.69,0.52-0.83,0.82
					c-0.26,0.59-0.75,1.19-1.03,1.82c-0.22,0.69-0.54,1.37-0.74,2.01c-0.23,0.64-0.62,1.23-0.73,1.76
					c-0.22,1.07-0.62,1.74-0.62,1.74l-0.05,0.15c-0.19,0.88-0.8,1.54-1.66,1.42c-0.86-0.12-1.29-0.91-1.11-1.79
					c0,0,0.22-0.78,0.46-1.96c0.13-0.59,0.26-1.28,0.52-2.01c0.23-0.73,0.49-1.51,0.73-2.29c0.33-0.79,0.71-1.58,1.04-2.31
					c0.32-0.78,0.69-1.34,1.01-1.83c0.62-0.99,1.04-1.65,1.04-1.65c0.49-0.78,3.2-0.92,3.93-0.48
					C1625.51,255.88,1626.93,256.98,1626.93,257.8L1626.93,257.8z"/>
				<path class="st3" d="M1620.18,279.87c0,0-0.27,2.97,0.06,5.94c0.53,2.84,0.76,5.67,0.76,5.67l-0.13,0.11
					c0.16,0.85-0.48,1.73-1.34,1.96c-0.86,0.23-1.72-0.28-1.87-1.13c0,0-0.58-3-1.14-6c-0.33-2.97-0.68-5.93-0.68-5.93
					c-0.1-0.87,1.12-1.72,1.99-1.88C1618.7,278.42,1620.18,278.99,1620.18,279.87L1620.18,279.87z"/>
				<path class="st3" d="M1624.84,301.48c0,0,0.67,3.24,1.77,5.95c1.23,2.57,2.24,5.41,2.24,5.41l-0.07,0.21
					c0.36,0.76-0.03,1.8-0.81,2.23c-0.78,0.43-1.74,0.19-2.1-0.57c0,0-1.3-2.67-2.58-5.36c-1.1-2.71-2.21-5.41-2.21-5.41
					c-0.32-0.79,0.5-2.26,1.3-2.65C1623.17,300.89,1624.12,301.48,1624.84,301.48L1624.84,301.48z"/>
				<path class="st3" d="M1633.83,321.74l6.96,10.05c0.48,0.68,0.43,1.98-0.28,2.52c-0.71,0.54-1.61,0.59-2.09-0.09l-6.68-9.35
					c-0.48-0.68-0.54-2.25,0.17-2.8C1632.61,321.53,1634.12,319.49,1633.83,321.74L1633.83,321.74z"/>
				<path class="st3" d="M1648.49,342l7.83,7.93c0.56,0.6,0.46,1.36-0.17,1.99c-0.63,0.62-1.63,0.53-2.19-0.06l-7.94-8.41
					c-0.57-0.6-0.43-1.18,0.21-1.8C1646.86,341.01,1647.7,342,1648.49,342L1648.49,342z"/>
				<path class="st3" d="M1664.49,357.36c0,0,0.53,0.48,1.33,1.21c0.81,0.71,1.88,1.65,2.96,2.59c2.17,1.89,4.34,3.78,4.34,3.78
					c0.61,0.53,0.64,1.51,0.07,2.17c-0.57,0.67-1.54,0.77-2.15,0.24c0,0-2.17-1.89-4.35-3.77c-1.09-0.95-2.18-1.91-3-2.62
					c-0.8-0.72-1.34-1.2-1.34-1.2c-0.61-0.55-0.62-1.52-0.04-2.19C1662.91,356.91,1663.88,356.82,1664.49,357.36L1664.49,357.36z"/>
				<path class="st3" d="M1681.93,372.22l9.08,7.07c0.64,0.49,0.71,1.45,0.18,2.14c-0.54,0.69-1.49,0.84-2.12,0.35l-9.09-7.06
					c-0.64-0.5-0.72-1.46-0.18-2.15C1680.33,371.88,1681.29,371.72,1681.93,372.22L1681.93,372.22z"/>
				<path class="st3" d="M1700.24,386.03l9.52,6.48c0.66,0.45,0.79,1.39,0.3,2.09c-0.49,0.71-1.43,0.92-2.09,0.47l-9.53-6.46
					c-0.66-0.45-0.8-1.39-0.3-2.1C1698.63,385.79,1699.57,385.58,1700.24,386.03L1700.24,386.03z"/>
				<path class="st3" d="M1719.43,398.59l9.99,5.77c0.69,0.4,0.88,1.31,0.44,2.04c-0.44,0.73-1.36,1-2.05,0.6l-9.99-5.76
					c-0.69-0.4-0.89-1.31-0.44-2.05C1717.82,398.47,1718.74,398.19,1719.43,398.59L1719.43,398.59z"/>
				<path class="st3" d="M1739.75,409.42l10.36,5.04c0.71,0.33,0.92,1.28,0.54,2.03c-0.39,0.75-1.3,1.12-2.01,0.79l-10.49-4.89
					c-0.72-0.33-0.88-1.34-0.5-2.09S1739.16,408.93,1739.75,409.42L1739.75,409.42z"/>
				<path class="st3" d="M1760.55,419.37l10.43,4.98c0.7,0.34,0.96,1.21,0.57,1.95c-0.39,0.74-1.27,1.07-1.97,0.74l-10.44-4.97
					c-0.71-0.34-0.97-1.21-0.58-1.96C1758.96,419.36,1759.84,419.03,1760.55,419.37L1760.55,419.37z"/>
				<path class="st3" d="M1781.35,429.57l10.2,5.41c0.68,0.36,0.9,1.24,0.49,1.96c-0.41,0.72-1.29,1.01-1.97,0.65l-10.21-5.39
					c-0.68-0.36-0.91-1.24-0.5-1.97C1779.77,429.5,1780.66,429.21,1781.35,429.57L1781.35,429.57z"/>
				<path class="st3" d="M1801.67,440.63l9.95,5.84c0.66,0.39,0.84,1.27,0.41,1.97c-0.43,0.7-1.31,0.96-1.97,0.57l-9.95-5.82
					c-0.66-0.39-0.85-1.27-0.41-1.97C1800.12,440.49,1801.01,440.24,1801.67,440.63L1801.67,440.63z"/>
				<path class="st3" d="M1821.47,452.55l9.66,6.27c0.63,0.41,0.78,1.29,0.32,1.97c-0.45,0.68-1.33,0.89-1.97,0.48l-9.67-6.26
					c-0.64-0.41-0.78-1.3-0.33-1.98C1819.95,452.35,1820.84,452.13,1821.47,452.55L1821.47,452.55z"/>
				<path class="st3" d="M1840.7,465.34l9.35,6.71c0.61,0.44,0.71,1.32,0.23,1.97c-0.48,0.65-1.35,0.83-1.96,0.39l-9.36-6.7
					c-0.61-0.44-0.72-1.32-0.24-1.98C1839.2,465.08,1840.09,464.91,1840.7,465.34L1840.7,465.34z"/>
				<path class="st3" d="M1859.29,479.03l9.01,7.16c0.58,0.46,0.64,1.34,0.14,1.96c-0.5,0.62-1.37,0.76-1.95,0.3l-9.02-7.15
					c-0.58-0.46-0.65-1.34-0.15-1.97C1857.83,478.7,1858.7,478.57,1859.29,479.03L1859.29,479.03z"/>
				<path class="st3" d="M1877.18,493.61l8.64,7.6c0.55,0.48,0.57,1.36,0.05,1.96c-0.52,0.6-1.39,0.69-1.93,0.21l-8.65-7.59
					c-0.55-0.48-0.58-1.36-0.06-1.96C1875.76,493.22,1876.63,493.12,1877.18,493.61L1877.18,493.61z"/>
				<path class="st3" d="M1894.32,509.08l8.24,8.05c0.52,0.51,0.5,1.38-0.04,1.94c-0.54,0.57-1.4,0.62-1.92,0.11l-8.25-8.03
					c-0.52-0.51-0.5-1.38,0.04-1.95C1892.93,508.62,1893.8,508.57,1894.32,509.08L1894.32,509.08z"/>
				<path class="st3" d="M1910.63,525.44l7.8,8.48c0.49,0.53,0.43,1.39-0.13,1.93c-0.56,0.54-1.41,0.54-1.89,0.02l-7.81-8.47
					c-0.49-0.53-0.43-1.4,0.13-1.94C1909.29,524.91,1910.14,524.91,1910.63,525.44L1910.63,525.44z"/>
				<path class="st3" d="M1926.05,542.67l7.34,8.92c0.45,0.55,0.35,1.4-0.23,1.9c-0.58,0.5-1.41,0.47-1.86-0.08l-7.35-8.91
					c-0.45-0.55-0.35-1.41,0.23-1.91C1924.76,542.08,1925.59,542.12,1926.05,542.67L1926.05,542.67z"/>
				<path class="st3" d="M1940.51,560.79l6.82,9.35c0.42,0.57,0.27,1.41-0.32,1.88c-0.59,0.47-1.41,0.39-1.83-0.18l-6.83-9.34
					c-0.42-0.57-0.27-1.42,0.32-1.89C1939.27,560.13,1940.09,560.21,1940.51,560.79L1940.51,560.79z"/>
				<path class="st3" d="M1953.93,579.74l6.27,9.76c0.38,0.59,0.19,1.41-0.42,1.84c-0.61,0.43-1.41,0.3-1.79-0.28l-6.28-9.75
					c-0.38-0.59-0.19-1.42,0.42-1.85C1952.74,579.02,1953.55,579.15,1953.93,579.74L1953.93,579.74z"/>
				<path class="st3" d="M1966.2,599.52c0,0,1.43,2.53,2.85,5.07c0.7,1.25,1.44,2.55,1.95,3.52c0.52,0.96,0.86,1.6,0.86,1.6
					c0.33,0.61,0.09,1.42-0.54,1.8c-0.63,0.38-1.41,0.2-1.74-0.41c0,0-0.35-0.64-0.87-1.6c-0.51-0.97-1.21-2.19-1.93-3.48
					c-1.43-2.53-2.86-5.06-2.86-5.06c-0.34-0.61-0.11-1.42,0.51-1.82C1965.07,598.74,1965.85,598.91,1966.2,599.52L1966.2,599.52z"
					/>
				<path class="st3" d="M1977.21,620.12l4.98,10.55c0.29,0.62,0.01,1.41-0.62,1.76c-0.64,0.35-1.39,0.13-1.69-0.5l-4.99-10.55
					c-0.3-0.63-0.02-1.42,0.62-1.77C1976.15,619.27,1976.91,619.5,1977.21,620.12L1977.21,620.12z"/>
				<path class="st3" d="M1986.84,641.49l4.25,10.92c0.25,0.64-0.08,1.4-0.73,1.7c-0.65,0.3-1.38,0.03-1.62-0.61l-4.26-10.92
					c-0.25-0.64,0.08-1.41,0.73-1.71C1985.86,640.58,1986.59,640.85,1986.84,641.49L1986.84,641.49z"/>
				<path class="st3" d="M1994.97,663.6l3.44,11.27c0.2,0.65-0.17,1.38-0.83,1.64c-0.66,0.25-1.35-0.07-1.55-0.72l-3.45-11.26
					c-0.2-0.65,0.17-1.39,0.83-1.65C1994.07,662.62,1994.77,662.95,1994.97,663.6L1994.97,663.6z"/>
				<path class="st3" d="M2001.44,686.39l2.55,11.57c0.15,0.66-0.27,1.36-0.94,1.56c-0.66,0.2-1.32-0.17-1.46-0.83l-2.56-11.57
					c-0.15-0.66,0.28-1.37,0.94-1.57C2000.63,685.35,2001.29,685.72,2001.44,686.39L2001.44,686.39z"/>
				<path class="st3" d="M2006.07,709.77l1.57,11.82c0.09,0.67-0.38,1.32-1.05,1.47c-0.67,0.14-1.28-0.28-1.37-0.95l-1.58-11.82
					c-0.09-0.67,0.38-1.33,1.05-1.48C2005.37,708.66,2005.98,709.09,2006.07,709.77L2006.07,709.77z"/>
				<path class="st3" d="M2008.7,733.62l0.51,12c0.03,0.67-0.49,1.28-1.15,1.36c-0.66,0.08-1.22-0.4-1.25-1.07l-0.52-12
					c-0.03-0.67,0.49-1.29,1.16-1.37C2008.11,732.46,2008.68,732.94,2008.7,733.62L2008.7,733.62z"/>
				<path class="st3" d="M2009.15,757.79l-0.5,9.98c-0.03,0.67-0.59,1.22-1.25,1.24c-0.66,0.02-1.16-0.51-1.13-1.17l0.48-9.98
					c0.03-0.67,0.59-1.23,1.25-1.25C2008.68,756.59,2009.19,757.12,2009.15,757.79L2009.15,757.79z"/>
			</g>
			<g>
				<polygon class="st15" points="1376.03,234.1 1371.11,274.69 1345.73,253.91 				"/>
				<path class="st3" d="M1196.32,188.68l97.97,109.44c1.88,2.1,4.52,3.34,7.33,3.44c2.81,0.1,5.54-0.94,7.56-2.9l106.17-102.5
					c1.22-1.17,1.6-2.97,0.97-4.53c-0.63-1.57-2.15-2.59-3.84-2.6L1196.32,188.68z"/>
				<polygon class="st15" points="1376.01,234.1 1196.32,188.68 1358.93,250.7 1358.05,262.01 				"/>
				<polygon class="st15" points="1348.73,260.46 1371.11,274.69 1358.93,250.7 				"/>
			</g>
		</g>
		<g>
			<g>
				<path class="st3" d="M1653.01,652.43c31.01,11.32,106.16,31.04,205.47,4.61c6.7-1.78,13.74,1.32,16.84,7.53
					c9.15,18.3,27.44,56.11,35.92,82.39c2.49,7.7-2.16,15.86-10.07,17.56c-39.55,8.53-155.6,26.02-240.06-38.34
					c-4.06-3.09-6.88-7.53-8.03-12.5l-11.75-50.9C1639.75,655.92,1646.4,650.02,1653.01,652.43z"/>
				<linearGradient id="SVGID_73_" gradientUnits="userSpaceOnUse" x1="1738.0732" y1="721.3085" x2="1770.8657" y2="721.3085">
					<stop  offset="0" style="stop-color:#DAE3FE"/>
					<stop  offset="1" style="stop-color:#E9EFFD"/>
				</linearGradient>
				<path class="st78" d="M1767.31,760.63c-1.46,0-2.82-0.9-3.34-2.35l-25.69-71.54c-0.66-1.84,0.3-3.88,2.14-4.54
					c1.85-0.67,3.88,0.3,4.54,2.14l25.69,71.54c0.66,1.84-0.3,3.88-2.14,4.54C1768.12,760.56,1767.71,760.63,1767.31,760.63z"/>
				<linearGradient id="SVGID_74_" gradientUnits="userSpaceOnUse" x1="1763.762" y1="724.543" x2="1809.0824" y2="724.543">
					<stop  offset="0" style="stop-color:#DAE3FE"/>
					<stop  offset="1" style="stop-color:#E9EFFD"/>
				</linearGradient>
				<path class="st79" d="M1805.53,767.6c-1.32,0-2.58-0.74-3.2-2l-38.22-79.01c-0.85-1.76-0.11-3.89,1.65-4.74
					c1.77-0.85,3.89-0.12,4.74,1.65l38.22,79.01c0.85,1.76,0.11,3.89-1.65,4.74C1806.58,767.48,1806.05,767.6,1805.53,767.6z"/>
				<linearGradient id="SVGID_75_" gradientUnits="userSpaceOnUse" x1="1789.823" y1="721.8824" x2="1835.2421" y2="721.8824">
					<stop  offset="0" style="stop-color:#DAE3FE"/>
					<stop  offset="1" style="stop-color:#E9EFFD"/>
				</linearGradient>
				<path class="st80" d="M1831.69,766.96c-1.34,0-2.63-0.76-3.23-2.06l-38.32-83.06c-0.82-1.78-0.04-3.89,1.74-4.71
					c1.78-0.82,3.89-0.04,4.71,1.74l38.32,83.06c0.82,1.78,0.04,3.89-1.74,4.71C1832.7,766.86,1832.19,766.96,1831.69,766.96z"/>
				<linearGradient id="SVGID_76_" gradientUnits="userSpaceOnUse" x1="1820.4396" y1="717.4177" x2="1855.7675" y2="717.4177">
					<stop  offset="0" style="stop-color:#DAE3FE"/>
					<stop  offset="1" style="stop-color:#E9EFFD"/>
				</linearGradient>
				<path class="st81" d="M1852.22,762.42c-1.48,0-2.86-0.93-3.36-2.41l-28.22-82.9c-0.63-1.86,0.36-3.87,2.22-4.51
					c1.86-0.63,3.87,0.36,4.51,2.22l28.22,82.9c0.63,1.86-0.36,3.87-2.22,4.51C1852.98,762.36,1852.6,762.42,1852.22,762.42z"/>
				<linearGradient id="SVGID_77_" gradientUnits="userSpaceOnUse" x1="1843.7422" y1="712.4695" x2="1884.6749" y2="712.4695">
					<stop  offset="0" style="stop-color:#DAE3FE"/>
					<stop  offset="1" style="stop-color:#E9EFFD"/>
				</linearGradient>
				<path class="st82" d="M1881.12,760.63c-1.43,0-2.78-0.87-3.32-2.29l-33.83-89.22c-0.7-1.83,0.23-3.88,2.06-4.58
					c1.83-0.69,3.88,0.23,4.58,2.06l33.83,89.22c0.7,1.83-0.23,3.88-2.06,4.58C1881.97,760.56,1881.54,760.63,1881.12,760.63z"/>
			</g>
			<g>
				<path class="st3" d="M1959.43,679.1l30.48,62.2c2.3,4.7,7.33,7.41,12.53,6.77c29.75-3.68,129.35-20.42,206.22-85.59
					c5.1-4.32,7.02-11.33,4.97-17.69l-37.1-115.38c-2.49-7.75-10.75-12.1-18.52-9.68c-22.35,6.97-67.03,26.41-105.33,77.08
					c-23.37,30.92-64.51,52.48-86.07,62.27C1959,662.53,1955.75,671.59,1959.43,679.1z"/>
				<linearGradient id="SVGID_78_" gradientUnits="userSpaceOnUse" x1="2025.3461" y1="679.2801" x2="2073.2971" y2="679.2801">
					<stop  offset="0" style="stop-color:#DAE3FE"/>
					<stop  offset="1" style="stop-color:#E9EFFD"/>
				</linearGradient>
				<path class="st83" d="M2069.75,722.49c-1.29,0-2.53-0.7-3.16-1.92l-40.85-79.31c-0.9-1.74-0.21-3.89,1.53-4.78
					c1.75-0.9,3.88-0.21,4.78,1.53l40.85,79.31c0.9,1.74,0.21,3.89-1.53,4.78C2070.85,722.36,2070.29,722.49,2069.75,722.49z"/>
				<linearGradient id="SVGID_79_" gradientUnits="userSpaceOnUse" x1="2043.2223" y1="667.8428" x2="2100.5576" y2="667.8428">
					<stop  offset="0" style="stop-color:#DAE3FE"/>
					<stop  offset="1" style="stop-color:#E9EFFD"/>
				</linearGradient>
				<path class="st84" d="M2097.01,716.01c-1.24,0-2.45-0.65-3.1-1.81l-50.23-89.24c-0.96-1.71-0.36-3.87,1.35-4.84
					c1.71-0.96,3.87-0.36,4.84,1.35l50.23,89.24c0.96,1.71,0.36,3.88-1.35,4.84C2098.2,715.86,2097.6,716.01,2097.01,716.01z"/>
				<linearGradient id="SVGID_80_" gradientUnits="userSpaceOnUse" x1="2093.9009" y1="674.0898" x2="2123.1375" y2="674.0898">
					<stop  offset="0" style="stop-color:#DAE3FE"/>
					<stop  offset="1" style="stop-color:#E9EFFD"/>
				</linearGradient>
				<path class="st85" d="M2119.59,703.83c-1.39,0-2.7-0.82-3.27-2.17l-22.13-52.39c-0.76-1.81,0.08-3.89,1.89-4.65
					c1.8-0.75,3.89,0.08,4.65,1.89l22.13,52.39c0.76,1.81-0.08,3.89-1.89,4.65C2120.52,703.74,2120.05,703.83,2119.59,703.83z"/>
				<linearGradient id="SVGID_81_" gradientUnits="userSpaceOnUse" x1="2101.1758" y1="624.6035" x2="2152.7852" y2="624.6035">
					<stop  offset="0" style="stop-color:#DAE3FE"/>
					<stop  offset="1" style="stop-color:#E9EFFD"/>
				</linearGradient>
				<path class="st86" d="M2149.23,685.4c-1.42,0-2.76-0.86-3.31-2.27l-44.51-114.49c-0.71-1.83,0.2-3.89,2.02-4.6
					c1.83-0.71,3.88,0.2,4.6,2.02l44.51,114.49c0.71,1.83-0.2,3.89-2.02,4.6C2150.1,685.32,2149.66,685.4,2149.23,685.4z"/>
				<linearGradient id="SVGID_82_" gradientUnits="userSpaceOnUse" x1="2127.2146" y1="607.197" x2="2170.5376" y2="607.197">
					<stop  offset="0" style="stop-color:#DAE3FE"/>
					<stop  offset="1" style="stop-color:#E9EFFD"/>
				</linearGradient>
				<path class="st87" d="M2166.98,673.25c-1.54,0-2.96-1.01-3.41-2.56l-36.22-125c-0.55-1.88,0.54-3.85,2.42-4.4
					c1.88-0.54,3.85,0.54,4.4,2.42l36.22,125c0.55,1.88-0.54,3.85-2.42,4.4C2167.65,673.2,2167.31,673.25,2166.98,673.25z"/>
			</g>
			<g>
				<path class="st1" d="M2104.64,657.48c8.61,14.78,26.86,48.08,28.36,67.09c0.26,3.27,2.82,5.85,6.09,6.09
					c30.02,2.2,161.01,6.3,218.78-83.29c1.05-1.63,1.3-3.64,0.73-5.49c-5.32-17.17-33.66-105.96-64.72-154.24
					c-2.52-3.92-8.21-4.01-10.92-0.22c-21.47,30.07-102.48,138-174.56,160.45C2104.34,649.13,2102.5,653.8,2104.64,657.48z"/>
				<linearGradient id="SVGID_83_" gradientUnits="userSpaceOnUse" x1="2273.415" y1="590.5292" x2="2333.2961" y2="590.5292">
					<stop  offset="0" style="stop-color:#DAE3FE"/>
					<stop  offset="1" style="stop-color:#E9EFFD"/>
				</linearGradient>
				<path class="st88" d="M2329.74,655.43c-1.77,0-3.3-1.32-3.52-3.12c-5.87-48.04-51.79-120.5-52.25-121.23
					c-1.05-1.65-0.57-3.85,1.09-4.9c1.65-1.05,3.85-0.57,4.9,1.09c1.93,3.02,47.25,74.54,53.31,124.19
					c0.24,1.95-1.15,3.72-3.09,3.95C2330.03,655.42,2329.88,655.43,2329.74,655.43z"/>
				<linearGradient id="SVGID_84_" gradientUnits="userSpaceOnUse" x1="2257.6389" y1="605.3498" x2="2312.4163" y2="605.3498">
					<stop  offset="0" style="stop-color:#DAE3FE"/>
					<stop  offset="1" style="stop-color:#E9EFFD"/>
				</linearGradient>
				<path class="st89" d="M2308.86,664.7c-1.64,0-3.11-1.14-3.47-2.8c-7.51-34.72-46.95-109.94-47.35-110.69
					c-0.91-1.74-0.25-3.88,1.49-4.8c1.75-0.92,3.89-0.24,4.8,1.49c1.64,3.12,40.29,76.83,48,112.5c0.41,1.92-0.8,3.81-2.72,4.22
					C2309.36,664.67,2309.11,664.7,2308.86,664.7z"/>
				<linearGradient id="SVGID_85_" gradientUnits="userSpaceOnUse" x1="2269.0134" y1="659.0347" x2="2292.6169" y2="659.0347">
					<stop  offset="0" style="stop-color:#DAE3FE"/>
					<stop  offset="1" style="stop-color:#E9EFFD"/>
				</linearGradient>
				<path class="st90" d="M2289.07,681.09c-1.36,0-2.66-0.79-3.24-2.11l-16.5-37c-0.8-1.79,0.01-3.89,1.8-4.69
					c1.79-0.8,3.89,0,4.69,1.8l16.5,37c0.8,1.79-0.01,3.89-1.8,4.69C2290.04,680.99,2289.55,681.09,2289.07,681.09z"/>
				<linearGradient id="SVGID_86_" gradientUnits="userSpaceOnUse" x1="2252.4802" y1="668.7099" x2="2271.855" y2="668.7099">
					<stop  offset="0" style="stop-color:#DAE3FE"/>
					<stop  offset="1" style="stop-color:#E9EFFD"/>
				</linearGradient>
				<path class="st91" d="M2268.3,689.09c-1.45,0-2.81-0.89-3.34-2.34l-12.27-33.66c-0.67-1.84,0.28-3.88,2.12-4.55
					c1.84-0.68,3.88,0.28,4.55,2.12l12.27,33.66c0.67,1.84-0.28,3.88-2.12,4.55C2269.12,689.02,2268.71,689.09,2268.3,689.09z"/>
			</g>
			<g>
				<path class="st3" d="M1511.48,551.97c25.52,16.18,102.65,61.76,163.42,63.23c2.37,0.06,4.44,1.64,5.16,3.9l28.76,89.67
					c1.28,4.01-2.1,7.96-6.25,7.28c-33.75-5.52-152.94-28.85-198.6-89.23c-0.74-0.98-1.12-2.18-1.12-3.4v-66.69
					C1502.84,552.29,1507.73,549.59,1511.48,551.97z"/>
				<linearGradient id="SVGID_87_" gradientUnits="userSpaceOnUse" x1="1660.1516" y1="660.725" x2="1688.2181" y2="660.725">
					<stop  offset="0" style="stop-color:#DAE3FE"/>
					<stop  offset="1" style="stop-color:#E9EFFD"/>
				</linearGradient>
				<path class="st92" d="M1684.67,700.74c-1.54,0-2.96-1.01-3.41-2.57l-20.96-72.93c-0.54-1.88,0.55-3.85,2.43-4.39
					c1.88-0.55,3.85,0.55,4.39,2.43l20.96,72.93c0.54,1.88-0.55,3.85-2.43,4.39C1685.32,700.7,1684.99,700.74,1684.67,700.74z"/>
				<linearGradient id="SVGID_88_" gradientUnits="userSpaceOnUse" x1="1641.3147" y1="657.6891" x2="1665.1104" y2="657.6891">
					<stop  offset="0" style="stop-color:#DAE3FE"/>
					<stop  offset="1" style="stop-color:#E9EFFD"/>
				</linearGradient>
				<path class="st93" d="M1661.56,698.17c-1.62,0-3.09-1.12-3.46-2.77l-16.69-73.87c-0.43-1.91,0.77-3.81,2.68-4.25
					c1.91-0.42,3.81,0.77,4.25,2.68l16.69,73.87c0.43,1.91-0.77,3.81-2.68,4.25C1662.08,698.15,1661.81,698.17,1661.56,698.17z"/>
				<linearGradient id="SVGID_89_" gradientUnits="userSpaceOnUse" x1="1621.1891" y1="633.6739" x2="1635.949" y2="633.6739">
					<stop  offset="0" style="stop-color:#DAE3FE"/>
					<stop  offset="1" style="stop-color:#E9EFFD"/>
				</linearGradient>
				<path class="st94" d="M1632.39,655.07c-1.6,0-3.05-1.09-3.45-2.7c-3.02-12.32-8.04-33.5-7.75-36.85
					c0.17-1.95,1.87-3.37,3.85-3.22c1.93,0.17,3.36,1.85,3.23,3.77c0.03,2.49,3.86,19.52,7.56,34.62c0.47,1.91-0.7,3.83-2.6,4.29
					C1632.96,655.04,1632.68,655.07,1632.39,655.07z"/>
				<linearGradient id="SVGID_90_" gradientUnits="userSpaceOnUse" x1="1541.8827" y1="613.2427" x2="1549.7844" y2="613.2427">
					<stop  offset="0" style="stop-color:#DAE3FE"/>
					<stop  offset="1" style="stop-color:#E9EFFD"/>
				</linearGradient>
				<path class="st95" d="M1546.23,649.47c-1.91,0-3.49-1.52-3.55-3.45c-1.79-63.53-0.11-66.28,0.52-67.31
					c1.02-1.67,3.21-2.2,4.88-1.18c1.52,0.93,2.09,2.82,1.42,4.41c-0.87,4.12-0.51,35.82,0.28,63.88c0.06,1.96-1.49,3.59-3.45,3.65
					C1546.3,649.47,1546.26,649.47,1546.23,649.47z M1549.27,582.41C1549.26,582.41,1549.26,582.41,1549.27,582.41
					C1549.26,582.41,1549.26,582.41,1549.27,582.41z"/>
			</g>
		</g>
	</g>
</g>
</svg>
