<?xml version="1.0" encoding="utf-8"?>
<!-- Generator: Adobe Illustrator 23.0.0, SVG Export Plug-In . SVG Version: 6.00 Build 0)  -->
<svg version="1.1" id="_x2018_лой_x5F_1" xmlns="http://www.w3.org/2000/svg" xmlns:xlink="http://www.w3.org/1999/xlink"
	 x="0px" y="0px" viewBox="0 0 3000 2000" style="enable-background:new 0 0 3000 2000;" xml:space="preserve">
<style type="text/css">
	.st0{fill:#EBF3FA;}
	.st1{fill:#D9E8FE;}
	.st2{fill:#F5FBFF;}
	.st3{fill:#8FADEF;}
	.st4{fill:#DFEBFD;}
	.st5{fill:#9FC1F4;}
	.st6{fill:#FF8C64;}
	.st7{fill:#BBC9F9;}
	.st8{fill:#35488B;}
	.st9{fill:#2C3A64;}
	.st10{fill:#DDE7FE;}
	.st11{fill:#6C7AFF;}
	.st12{fill:#CDE2FC;}
	.st13{fill:#A4C8F4;}
	.st14{opacity:0.5;fill:#BDD8FF;}
	.st15{fill:#BDD8FF;}
	.st16{fill:#F77D48;}
	.st17{fill:#FFB93E;}
	.st18{fill:#FFA412;}
	.st19{fill:#7DA4EA;}
	.st20{fill:#0B0755;}
	.st21{fill:#B5C6E8;}
	.st22{fill:#E9F0FF;}
	.st23{fill:#F99746;}
	.st24{fill:#ED975D;}
	.st25{fill:#FFB27D;}
	.st26{fill:#2B478B;}
	.st27{fill:#FFFFFF;}
	.st28{fill:#F2F7FE;}
	.st29{fill:#C4D9E8;}
	.st30{fill:#DFEBF5;}
	.st31{fill:#233862;}
</style>
<g>
	<path class="st0" d="M2699.37,1673.51c-154.91,0-2411.58,0.47-2412.89-2.94l-0.22-0.43c0,0-0.22-0.42-0.22-0.63
		c-0.86-1.71-347.7-480.8,191.5-814.31c210.97-130.5-13.2-216.64,154.56-361.92c192.81-166.94,403.22,17.74,617.62-57.97
		c37.88-13.36,75.89-34.87,113.94-67.88c21.42-18.56,44.89-34.79,70.02-48.81c3.85-2.16,7.74-4.26,11.68-6.31
		c15.05-7.83,30.65-14.92,46.72-21.29c10.79-4.27,21.79-8.23,33-11.86h0.01c17.78-5.77,36.04-10.74,54.68-14.95
		c26.49-5.98,53.75-10.42,81.56-13.43c12.13-1.32,24.36-2.36,36.68-3.14c239.56-15.12,509.15,69.92,648.27,194.22
		c28.01,25.03,155.38,154.54,54.98,332.55c-63.39,112.39,202.17,219.73,296.54,348.07
		C2937.74,1448.79,2701.55,1669.26,2699.37,1673.51z"/>
	
		<rect x="1412.01" y="832.63" transform="matrix(0.9785 -0.2065 0.2065 0.9785 -154.5266 325.5633)" class="st1" width="140.95" height="140.95"/>
	
		<rect x="1434.45" y="869.69" transform="matrix(0.9378 0.3472 -0.3472 0.9378 419.9982 -463.9881)" class="st2" width="140.95" height="140.95"/>
	<g>
		<path class="st3" d="M1436.85,750.38h-180.43c-8.63,0-15.7-7.06-15.7-15.7V545.51c0-8.63,7.06-15.7,15.7-15.7h180.43
			c8.63,0,15.7,7.06,15.7,15.7v189.17C1452.55,743.31,1445.48,750.38,1436.85,750.38z"/>
		<path class="st4" d="M1429.03,740.82h-164.8c-7.88,0-14.34-6.45-14.34-14.34V553.7c0-7.89,6.45-14.34,14.34-14.34h164.8
			c7.89,0,14.34,6.45,14.34,14.34v172.78C1443.37,734.37,1436.92,740.82,1429.03,740.82z"/>
		<g>
			<g>
				<path class="st3" d="M1342.25,559.5c0-2.6,1.96-4.71,4.39-4.71s4.39,2.11,4.39,4.71c0,2.6-1.96,4.71-4.39,4.71
					S1342.25,562.1,1342.25,559.5z"/>
				<path class="st3" d="M1377.65,566.15c1.18-2.27,3.85-3.09,5.97-1.83c2.12,1.26,2.88,4.13,1.7,6.4
					c-1.18,2.27-3.85,3.09-5.97,1.83C1377.24,571.3,1376.48,568.43,1377.65,566.15z"/>
				<path class="st3" d="M1407.99,592.02c2.04-1.41,4.75-0.78,6.07,1.4c1.31,2.19,0.73,5.1-1.31,6.51c-2.04,1.41-4.75,0.78-6.07-1.4
					S1405.95,593.43,1407.99,592.02z"/>
				<path class="st3" d="M1423.01,632.05c2.42,0,4.39,2.11,4.39,4.71c0,2.6-1.96,4.71-4.39,4.71s-4.39-2.11-4.39-4.71
					C1418.62,634.16,1420.59,632.05,1423.01,632.05z"/>
				<path class="st3" d="M1415.34,678.51c1.71,1.84,1.71,4.82,0,6.66c-1.71,1.84-4.49,1.84-6.21,0c-1.71-1.84-1.71-4.82,0-6.66
					C1410.85,676.67,1413.63,676.67,1415.34,678.51z"/>
				<path class="st3" d="M1387.79,708.16c1.71,1.84,1.71,4.82,0,6.66c-1.71,1.84-4.49,1.84-6.21,0c-1.71-1.84-1.71-4.82,0-6.66
					S1386.07,706.32,1387.79,708.16z"/>
				<path class="st3" d="M1342.25,723.45c0-2.6,1.96-4.71,4.39-4.71s4.39,2.11,4.39,4.71c0,2.6-1.96,4.71-4.39,4.71
					S1342.25,726.05,1342.25,723.45z"/>
			</g>
			<g>
				<path class="st3" d="M1315.48,566.15c-1.18-2.27-3.85-3.09-5.97-1.83c-2.12,1.26-2.88,4.13-1.7,6.4
					c1.18,2.27,3.85,3.09,5.97,1.83C1315.89,571.3,1316.65,568.43,1315.48,566.15z"/>
				<path class="st3" d="M1285.14,592.02c-2.04-1.41-4.75-0.78-6.07,1.4c-1.31,2.19-0.73,5.1,1.31,6.51
					c2.04,1.41,4.75,0.78,6.07-1.4C1287.77,596.34,1287.18,593.43,1285.14,592.02z"/>
				<path class="st3" d="M1270.12,632.05c-2.42,0-4.39,2.11-4.39,4.71c0,2.6,1.96,4.71,4.39,4.71s4.39-2.11,4.39-4.71
					C1274.51,634.16,1272.54,632.05,1270.12,632.05z"/>
				<path class="st3" d="M1277.79,678.51c-1.71,1.84-1.71,4.82,0,6.66c1.71,1.84,4.49,1.84,6.21,0c1.71-1.84,1.71-4.82,0-6.66
					C1282.28,676.67,1279.5,676.67,1277.79,678.51z"/>
				<path class="st3" d="M1305.34,708.16c-1.71,1.84-1.71,4.82,0,6.66c1.71,1.84,4.49,1.84,6.21,0c1.71-1.84,1.71-4.82,0-6.66
					C1309.84,706.32,1307.06,706.32,1305.34,708.16z"/>
			</g>
		</g>
		<g>
			<path class="st3" d="M1345.45,636.76c0-2.6,1.96-4.71,4.39-4.71s4.39,2.11,4.39,4.71c0,2.6-1.96,4.71-4.39,4.71
				S1345.45,639.36,1345.45,636.76z"/>
			<g>
				<rect x="1349.24" y="577.93" class="st3" width="1.2" height="58.83"/>
			</g>
			<g>
				<polygon class="st3" points="1350.4,638.2 1348.18,635.16 1377.24,610.68 1379.46,613.71 				"/>
			</g>
		</g>
	</g>
	<g>
		<g>
			<path class="st5" d="M1785.54,477.64l-5.82-3.2c-6.22-3.41-8.5-11.24-5.09-17.46l26.81-48.87c3.41-6.22,11.24-8.5,17.46-5.09
				l8.34,4.58c1.22,0.67,1.66,2.2,1,3.42c-0.67,1.22-2.2,1.67-3.42,1l-8.34-4.58c-3.78-2.08-8.55-0.69-10.63,3.1l-26.81,48.87
				c-2.08,3.78-0.69,8.55,3.1,10.63l5.82,3.19c3.78,2.08,8.55,0.69,10.63-3.1l17.79-32.44c0.67-1.22,2.2-1.66,3.42-1
				c1.22,0.67,1.67,2.2,1,3.42L1803,472.54C1799.59,478.76,1791.75,481.05,1785.54,477.64z"/>
		</g>
		<g>
			<path class="st5" d="M1760.66,528.96l-10.44-5.73c-9.69-5.32-12.95-18.09-7.25-28.48l40.3-73.48c0.67-1.22,2.2-1.66,3.42-1
				c1.22,0.67,1.67,2.2,1,3.42l-40.3,73.48c-4.36,7.95-2,17.66,5.26,21.65l10.44,5.73c7.26,3.98,16.72,0.75,21.08-7.2l45.91-83.69
				c4.36-7.95,2-17.66-5.26-21.65c-1.22-0.67-1.67-2.2-1-3.42c0.67-1.22,2.2-1.67,3.42-1c9.69,5.32,12.95,18.09,7.25,28.48
				l-45.91,83.69C1782.88,530.15,1770.36,534.28,1760.66,528.96z"/>
		</g>
	</g>
	<g>
		<g>
			<path class="st6" d="M2194.9,686.55l4.61-4.78c4.92-5.1,13.08-5.25,18.19-0.32l40.11,38.71c5.1,4.92,5.25,13.08,0.32,18.19
				l-6.61,6.85c-0.96,1-2.56,1.03-3.56,0.06c-1-0.97-1.03-2.56-0.06-3.56l6.61-6.85c3-3.11,2.91-8.07-0.2-11.07l-40.11-38.71
				c-3.11-3-8.07-2.91-11.07,0.2l-4.61,4.78c-3,3.11-2.91,8.07,0.2,11.07l26.63,25.7c1,0.96,1.03,2.56,0.06,3.56
				s-2.56,1.03-3.56,0.06l-26.63-25.7C2190.12,699.81,2189.97,691.65,2194.9,686.55z"/>
		</g>
		<g>
			<path class="st6" d="M2151.92,649.06l8.27-8.57c7.68-7.96,20.86-7.74,29.38,0.49l60.3,58.2c1,0.97,1.03,2.56,0.06,3.56
				c-0.96,1-2.56,1.03-3.56,0.06l-60.3-58.2c-6.53-6.3-16.52-6.58-22.27-0.62l-8.27,8.57c-5.75,5.96-5.12,15.93,1.41,22.23
				l68.69,66.29c6.53,6.3,16.52,6.58,22.27,0.62c0.97-1,2.56-1.03,3.56-0.06c1,0.97,1.03,2.56,0.06,3.56
				c-7.68,7.96-20.86,7.74-29.38-0.49l-68.69-66.29C2144.93,670.18,2144.24,657.01,2151.92,649.06z"/>
		</g>
	</g>
	<g>
		<path class="st1" d="M1280.85,1173.54c0,0-8.23-136.03-31.75-178.6h123.83v178.33L1280.85,1173.54z"/>
		<path class="st7" d="M1342.77,1173.54c0,0-8.23-136.03-31.75-178.6h123.83v178.33L1342.77,1173.54z"/>
		<g>
			<rect x="1389.36" y="921.76" class="st8" width="119.85" height="386.63"/>
			<rect x="1509.21" y="921.76" class="st9" width="289.02" height="386.63"/>
			<circle class="st10" cx="1449.28" cy="970.05" r="20"/>
			<circle class="st11" cx="1449.28" cy="970.05" r="14.14"/>
			<rect x="1421.54" y="1018.24" class="st3" width="56.37" height="101.83"/>
		</g>
		<rect x="1596.33" y="1099.13" class="st12" width="229.99" height="74.13"/>
		<rect x="1826.31" y="1099.13" class="st13" width="229.99" height="74.13"/>
		<g>
			<rect x="1596.33" y="1135.39" class="st3" width="57.39" height="1.61"/>
		</g>
		<g>
			<rect x="1667.79" y="1112.58" class="st3" width="158.53" height="1.61"/>
		</g>
		<g>
			<rect x="1596.33" y="1155.35" class="st3" width="101.46" height="1.61"/>
		</g>
		<rect x="1525" y="1025" class="st1" width="229.99" height="74.13"/>
		<rect x="1754.98" y="1025" class="st7" width="229.99" height="74.13"/>
		<g>
			<rect x="1525" y="1061.26" class="st3" width="57.39" height="1.61"/>
		</g>
		<g>
			<rect x="1596.46" y="1038.45" class="st3" width="158.53" height="1.61"/>
		</g>
		<g>
			<rect x="1525" y="1081.22" class="st3" width="101.47" height="1.61"/>
		</g>
		<rect x="1653.72" y="816" class="st14" width="229.99" height="74.13"/>
		<rect x="1883.7" y="816" class="st13" width="229.99" height="74.13"/>
		<g>
			<rect x="1653.72" y="852.26" class="st3" width="57.39" height="1.61"/>
		</g>
		<g>
			<rect x="1725.18" y="829.45" class="st3" width="158.53" height="1.61"/>
		</g>
		<g>
			<rect x="1653.72" y="871.19" class="st3" width="101.46" height="1.61"/>
		</g>
		<rect x="1582.39" y="741.87" class="st2" width="229.99" height="74.13"/>
		<rect x="1812.37" y="741.87" class="st15" width="229.99" height="74.13"/>
		<g>
			<rect x="1582.39" y="778.13" class="st3" width="57.39" height="1.61"/>
		</g>
		<g>
			<rect x="1800.51" y="778.13" class="st3" width="57.39" height="1.61"/>
		</g>
		<g>
			<rect x="1779.3" y="755.32" class="st3" width="158.53" height="1.61"/>
		</g>
		<g>
			<rect x="1582.39" y="798.09" class="st3" width="101.46" height="1.61"/>
		</g>
		
			<rect x="1841.48" y="890.03" transform="matrix(-1 -1.224647e-16 1.224647e-16 -1 3912.9395 1915.0273)" class="st15" width="229.99" height="134.96"/>
		
			<rect x="1611.49" y="890.03" transform="matrix(-1 -1.224647e-16 1.224647e-16 -1 3452.9668 1915.0273)" class="st2" width="229.99" height="134.96"/>
		<g>
			<rect x="2014.07" y="956.43" class="st3" width="57.39" height="2.17"/>
		</g>
		<g>
			<rect x="1683.85" y="915.4" class="st8" width="316.15" height="1.18"/>
		</g>
		<g>
			<rect x="1970" y="992.76" class="st3" width="101.46" height="2.17"/>
		</g>
		<g>
			<rect x="1774.71" y="939.58" class="st8" width="109" height="1.18"/>
		</g>
		<g>
			<rect x="1493.38" y="1173.54" class="st16" width="677.14" height="500.3"/>
			<rect x="1270.77" y="1173.54" class="st6" width="536.88" height="500.3"/>
			<path class="st9" d="M1578.14,1255.21h-139.07c-8.61,0-15.65-7.04-15.65-15.66v-2.03c0-8.61,7.04-15.65,15.65-15.65h139.07
				c8.61,0,15.66,7.04,15.66,15.65v2.03C1593.79,1248.17,1586.75,1255.21,1578.14,1255.21z"/>
		</g>
		<g>
			
				<rect x="1474.85" y="1342.34" transform="matrix(0.9849 0.1729 -0.1729 0.9849 266.4727 -245.0002)" class="st5" width="128.72" height="128.72"/>
			
				<rect x="1484.18" y="1343.15" transform="matrix(0.9849 0.1729 -0.1729 0.9849 257.4207 -247.4141)" class="st3" width="128.72" height="20.8"/>
		</g>
		<g>
			
				<rect x="1633.43" y="1244.03" transform="matrix(0.9672 -0.2541 0.2541 0.9672 -276.7141 474.2982)" class="st17" width="128.72" height="128.72"/>
			
				<rect x="1619.72" y="1245.8" transform="matrix(0.9672 -0.2541 0.2541 0.9672 -263.9113 469.1203)" class="st18" width="128.72" height="20.8"/>
		</g>
		<g>
			<path class="st3" d="M1273.97,1034.4c-3.47-19.29-13.56-39-13.67-39.19l1.05-0.54c0.1,0.2,10.27,20.06,13.78,39.52
				L1273.97,1034.4z"/>
		</g>
		<g>
			<path class="st3" d="M1304.34,1082.99c-7.26-51.95-22.47-87.47-22.63-87.82l1.08-0.47c0.15,0.35,15.43,36.02,22.71,88.12
				L1304.34,1082.99z"/>
		</g>
	</g>
	<g>
		<g>
			<g>
				<rect x="2083.44" y="1296.63" class="st3" width="510.11" height="376.89"/>
				<rect x="1915.74" y="1296.63" class="st5" width="404.45" height="376.89"/>
				<path class="st8" d="M2147.29,1358.16h-104.77c-6.49,0-11.79-5.31-11.79-11.79v-1.53c0-6.49,5.31-11.79,11.79-11.79h104.77
					c6.49,0,11.79,5.31,11.79,11.79v1.53C2159.09,1352.85,2153.78,1358.16,2147.29,1358.16z"/>
				<rect x="1895.91" y="1232.5" class="st15" width="424.28" height="83.03"/>
				<rect x="2320.19" y="1232.5" class="st19" width="286.08" height="83.03"/>
			</g>
			<g>
				
					<rect x="2151.37" y="1390.16" transform="matrix(0.9672 -0.2541 0.2541 0.9672 -297.4407 611.4561)" class="st6" width="134.14" height="134.14"/>
				
					<rect x="2137.09" y="1392" transform="matrix(0.9672 -0.2541 0.2541 0.9672 -284.0973 606.0582)" class="st16" width="134.14" height="21.68"/>
			</g>
		</g>
		<g>
			<polygon class="st16" points="2178.19,1063.3 2284.55,977.67 2442.36,996.96 2442.36,1063.3 			"/>
			
				<rect x="2109.23" y="888.4" transform="matrix(-1.836970e-16 1 -1 -1.836970e-16 3172.9475 -1131.9734)" class="st6" width="86.46" height="264.18"/>
			<path class="st10" d="M2251.55,1007.03c7.55,0,13.67,6.12,13.67,13.67c0,7.55-6.12,13.67-13.67,13.67
				c-7.55,0-13.67-6.12-13.67-13.67C2237.89,1013.14,2244,1007.03,2251.55,1007.03z"/>
			<path class="st20" d="M2251.55,1013.05c4.22,0,7.64,3.42,7.64,7.64c0,4.22-3.42,7.64-7.64,7.64c-4.22,0-7.64-3.42-7.64-7.64
				C2243.91,1016.47,2247.33,1013.05,2251.55,1013.05z"/>
			
				<rect x="2158.49" y="980.11" transform="matrix(-1.836970e-16 1 -1 -1.836970e-16 3198.7383 -1156.751)" class="st15" width="38.52" height="81.76"/>
		</g>
		<g>
			<rect x="2036.24" y="1148.11" class="st10" width="261.81" height="84.39"/>
			<g>
				<rect x="2298.04" y="1148.11" class="st21" width="261.81" height="84.39"/>
				<g>
					<rect x="2036.24" y="1189.39" class="st8" width="65.33" height="1.83"/>
				</g>
				<g>
					<rect x="2117.58" y="1163.42" class="st8" width="180.46" height="1.83"/>
				</g>
				<g>
					<rect x="2036.24" y="1212.11" class="st8" width="115.5" height="1.83"/>
				</g>
			</g>
		</g>
		<g>
			<rect x="1955.04" y="1063.72" class="st22" width="261.81" height="84.39"/>
			<g>
				<rect x="2216.85" y="1063.72" class="st7" width="261.81" height="84.39"/>
				<g>
					<rect x="1955.04" y="1105" class="st3" width="65.33" height="1.83"/>
				</g>
				<g>
					<rect x="2036.39" y="1079.03" class="st3" width="180.46" height="1.83"/>
				</g>
				<g>
					<rect x="1955.04" y="1127.72" class="st3" width="115.5" height="1.83"/>
				</g>
			</g>
		</g>
	</g>
	<g>
		<g>
			<path class="st23" d="M591.54,840.81c-4.64,0-7.89-1.12-9.53-3.49c-1.14-1.64-1.47-3.79-0.98-6.38
				c4.74-25.11,87.35-96.58,196.44-169.95c106.49-71.62,224.56-134.26,237.82-115.12c1.14,1.64,1.47,3.79,0.98,6.38
				c-4.74,25.11-87.35,96.58-196.44,169.95C726.53,784.95,624.34,840.81,591.54,840.81z M583.95,835.97
				c4.96,7.16,33.44-1.04,76.18-21.93c44.56-21.78,100.81-55.09,158.37-93.81c106.86-71.87,190.88-144.27,195.44-168.42
				c0.37-1.94,0.17-3.49-0.6-4.59c-4.96-7.16-33.44,1.04-76.18,21.93c-44.56,21.78-100.81,55.09-158.37,93.81
				c-106.86,71.87-190.88,144.27-195.44,168.42C582.99,833.32,583.19,834.86,583.95,835.97L583.95,835.97z"/>
		</g>
		<path class="st9" d="M1194.09,1215.96c-74.18-23.81-547.41,179.82-547.41,179.82s-77.05,54.71-3.48,169.24
			c61.09,95.1,520.67-195.42,529-158.93c19.89,87.13,189.41,254.29,189.41,254.29c28.31,9.29,91.31-28.52,91.31-28.52
			C1386.74,1531.29,1253.34,1234.98,1194.09,1215.96z"/>
		<path class="st24" d="M952.91,895.15c0,0-10.39-16.43-12.07-33.07c-1.68-16.64,0.94-63.49-10.79-74.42
			c-11.73-10.93-48.88-37.98-62.28-32.19c-13.4,5.8,30.57,32.84,31.89,46.54c1.33,13.7,0.49,15.21-4.63,16.12
			c-5.12,0.91-22.03-19.23-22.11-12.83c-0.08,6.4,16.46,41.65,24.69,48.72c8.23,7.06,20.46,61.36,20.46,61.36L952.91,895.15z"/>
		<path class="st3" d="M952.91,871.95c0,0-43.84,0-51.25,35.35c0,0,2.26,119.93,18.01,227.31
			c-94.51-89.29-59.52-87.93-136.35-146.09c-31.22-23.63-59.35,57.66-58.57,115.18c0.78,57.52,201.32,188.96,252.95,172.81
			C1033.69,1258.99,1045.16,1133.57,952.91,871.95z"/>
		<path class="st9" d="M1760.34,1669.49c0.24-0.17,1.6-2,1.89-2.25l88.93-149.39c2.89-4.55,0.31-10.52-4.96-11.65
			c-10.88-2.34-25.44,0.2-35.14,12.8c-17.8,23.12-56.24,59.09-93.96,51.38c-1.2-0.25-2.42-0.55-3.64-0.89
			c-38.84-10.93-24.14,70.08-24.14,70.08s1.28,0.92,3.51,2.43C1704.83,1650.17,1749.16,1677.33,1760.34,1669.49z"/>
		<path class="st8" d="M562.25,1442.41c0,0,412.13-18.22,571.46,23.08c0,0,158.38,111.41,26.19,148.4
			c-51.44,14.4-227.3,56.54-322.51,56.54c-156.29,0-305.87,1-305.87,1c-24.09-10.6-27.83-81.85-31.73-101.03
			C472.72,1437,562.25,1442.41,562.25,1442.41z"/>
		<path class="st8" d="M1123.94,1463.1c0,0,431.97,81.98,599.7,108.17c0,0-18.24,70.45-45.5,86.07c0,0-99.78,6.53-199.55,13.08
			c-123.18,8.09-244.69-7.01-318.57-36.68C993.21,1566.77,1123.94,1463.1,1123.94,1463.1z"/>
		<path class="st25" d="M799.9,1075.13c-76.01-3.39-175.19-120.37-175.19-120.37s56.16-17.01,93.53-80.84
			c7.25-12.39,13.79-26.54,19.09-42.67l25.25,41.9l37.22,61.77c0,0-3.37,9-10.93,24.85v0.02c-2.52,5.28-5.49,11.35-8.98,18.07
			c-4.19,8.09-9.07,17.14-14.72,27.07C788.57,1031.69,799.9,1075.13,799.9,1075.13z"/>
		<path class="st24" d="M799.8,934.9c0,0-3.37,9-10.93,24.85c-53.7-36.54-58.47-89.06-58.47-89.06s4.17-0.63,32.18,2.44L799.8,934.9
			z"/>
		<path class="st25" d="M821.47,948.26c0,0-114.76-40-88.75-111.08c26.01-71.08,28.71-124.12,103.08-101.58
			c74.37,22.53,78.6,54.84,75.69,80.67S851.99,956.84,821.47,948.26z"/>
		<path class="st26" d="M711.75,707.66c-0.85-1.54-3.21-3.13-8.89-4.64c0,0,5.2-1.96,11.38-0.84c2.89-7.87,10.13-21.35,24.62-21.98
			c0,0-8.23,2.46-10.99,10.89c19.39-13.3,56.05-18.29,149,8.96c122.51,35.92,64.59,108.38,46.45,114.68
			c-18.14,6.3-53.23-28.63-83.78-32.46c-30.55-3.83-45.45,39.08-56.9,43.01c-11.45,3.93-5.22-5.94-17.69-15.14
			c-12.48-9.2-18.62,13.74-17.77,29.66c0.84,15.92-26.35,29.58-26.35,29.58s-2.71-9.33-10.7-22.63
			c-14.93-24.85-14.38-117.42-1.73-134.52C709.5,710.74,710.61,709.2,711.75,707.66z"/>
		<path class="st5" d="M832.19,1152.44c-8.64,222.64-83.34,188.28-44.49,254.17c24.76,41.97-26.97,75.1-83.76,117.89
			c-1.67,1.25-3.33,2.52-5,3.79c-16.29,12.39-33.53,24.51-50.76,35.53c-26.73,17.08-53.49,31.59-76.83,40.5
			c-23.81,9.11-44.06,12.43-57.09,6.76c-0.42-0.17-0.8-0.32-1.17-0.51c-11.14-5.49-20.38-20.38-27.94-40.55
			c-13.58-35.95-29-178.14-33.39-220.63c-0.78-7.63-1.21-12.05-1.21-12.05c-25.21-309.96,232.11-418.83,232.11-418.83
			s22.52,67.28,95.26,63.15C778.04,981.78,835.85,1058.1,832.19,1152.44z"/>
		<path class="st3" d="M703.94,1524.51c-1.67,1.25-3.33,2.52-5,3.79c-16.29,12.39-33.53,24.51-50.76,35.53
			c-26.73,17.08-53.49,31.59-76.83,40.5c-25.82,7.33-47.18,10.57-57.09,6.76c-0.42-0.17-0.8-0.32-1.17-0.51
			c-11.14-5.49-20.38-20.38-27.94-40.55c-13.58-35.95-29-178.14-33.39-220.63c31.58-90.88,74.99-193.6,123.18-239.61
			c95.01-90.73,123.97,47.45,123.97,47.45S625.41,1338.54,703.94,1524.51z"/>
		<path class="st5" d="M606.53,1026.37c-37.67,93.65-115.9,274.27-88.07,362.14c0,0,112.65,29.73,115.92-5.13
			c18.28-194.87,185.92-408.04,56.52-403.86C654.71,980.7,620.05,992.77,606.53,1026.37z"/>
		<path class="st16" d="M768.44,992.81c0,0,89.83,271.29,37.81,532.99l-77.26,26.56l-18.93-54.94c0,0,100.16-255.93,45.91-501.72
			L768.44,992.81z"/>
		<path class="st25" d="M603.02,1607.5c0,0,29.36,40.09,65.35,34.41c35.99-5.68,49.25,4.74,65.35,13.26s20.53,13.01,14.76,15.26
			c-4.34,1.7-82.96,0.84-121.57,0.31c-12.68-0.17-48.98-34.04-48.98-34.04L603.02,1607.5z"/>
		<path class="st5" d="M513.78,1363.1c-5.47,146.38,45,246.25,58.7,297.43c0,0,16.65,7.89,29.59,3.63
			c28.31-9.32,27.97-31.78,27.97-31.78s0.75-182.1,4.34-249C637.87,1318.2,514.93,1332.55,513.78,1363.1z"/>
		<path class="st16" d="M698.9,901.4c0,0-24.13,6.5-36.09,27.11c0,0,9.41,40.65,101.27,63.38l-3.47-10.62
			C760.61,981.27,708.13,955.48,698.9,901.4z"/>
		<path class="st16" d="M760.61,981.27c0,0,18.73-6.96,22.68-10.08c0,0,4.7,10.7,2.78,19.42c0,0-6.07,3.8-21.98,1.29
			C748.16,989.38,760.61,981.27,760.61,981.27z"/>
		<path class="st16" d="M768.44,981.17c0,0-18.31-1.56-20.2,0.8c-1.89,2.36,10.7,23.99,16.94,22.94
			C771.41,1003.86,773.49,983.7,768.44,981.17z"/>
		<g>
			<path class="st23" d="M593.26,840.37c-4.64,0-7.89-1.12-9.53-3.49l1.95-1.35c9.59,13.84,106.12-29.36,234.55-115.73
				c106.86-71.87,190.88-144.27,195.44-168.42c0.37-1.94,0.17-3.49-0.6-4.59l1.95-1.35c1.14,1.64,1.47,3.79,0.98,6.38
				c-4.74,25.11-87.35,96.58-196.44,169.95C728.26,784.51,626.07,840.37,593.26,840.37z"/>
		</g>
		<g>
			<path class="st23" d="M620.55,768.24c-25.48,0-46.12-1.77-61.35-5.27c-16.38-3.76-25.93-9.46-28.4-16.93
				c-1.27-3.86-0.61-8.05,1.96-12.46c11.12-19.03,55.85-38.18,81.52-47.89c44.67-16.91,103.04-32.88,164.36-44.95
				c70.52-13.89,138.61-21.58,191.71-21.67c25.85-0.05,46.83,1.73,62.24,5.27c16.38,3.76,25.93,9.46,28.4,16.93
				c1.27,3.86,0.61,8.06-1.96,12.46c-11.12,19.03-55.85,38.18-81.52,47.89c-44.67,16.91-103.04,32.88-164.36,44.95
				c-70.52,13.89-138.61,21.58-191.71,21.67C621.14,768.24,620.85,768.24,620.55,768.24z M971.21,622.01c-0.29,0-0.57,0-0.86,0
				c-52.92,0.08-120.8,7.76-191.14,21.61c-124.71,24.56-227.28,63.01-243.9,91.44c-2.13,3.65-2.71,7.03-1.71,10.05
				c4.23,12.83,35.91,20.18,86.97,20.18c0.29,0,0.57,0,0.86,0c52.92-0.08,120.8-7.76,191.14-21.61
				c124.71-24.56,227.28-63.01,243.9-91.44c2.13-3.65,2.71-7.03,1.71-10.05C1053.95,629.36,1022.27,622.01,971.21,622.01z"/>
		</g>
		<polygon class="st17" points="607.11,683.72 599.71,689.6 608.87,691.9 612.17,700.76 617.19,692.75 626.64,692.35 620.57,685.1 
			623.11,676 614.34,679.52 606.47,674.3 		"/>
		<polygon class="st17" points="987.68,583.69 984.66,592.64 993.6,589.6 1001.18,595.24 1001.05,585.79 1008.76,580.33 
			999.74,577.53 996.92,568.51 991.47,576.23 982.02,576.12 		"/>
		<polygon class="st23" points="885.66,519.14 881.67,527.7 890.9,525.66 897.81,532.1 898.72,522.69 906.98,518.11 898.31,514.34 
			896.51,505.06 890.24,512.14 880.86,510.99 		"/>
		<polygon class="st23" points="1000.5,755.22 996.51,763.79 1005.74,761.74 1012.65,768.18 1013.56,758.78 1021.82,754.19 
			1013.16,750.42 1011.35,741.15 1005.09,748.22 995.71,747.07 		"/>
		<polygon class="st17" points="633.55,818.76 625.72,824.05 634.68,827.05 637.29,836.13 642.91,828.54 652.36,828.86 
			646.87,821.17 650.09,812.28 641.08,815.13 633.63,809.31 		"/>
		<polygon class="st23" points="444.92,778.15 495.1,795.14 489.21,774.64 518.57,780.24 467,754.46 475.98,778.4 		"/>
		<polygon class="st23" points="778.09,485.61 774.83,566.71 802.41,549.18 806.88,594.76 822.46,507.82 791.16,531.37 		"/>
	</g>
	<g>
		<path class="st27" d="M1855.99,1615.58c1.45,3.49,4.12,21.97,9.81,37.42l0,0.02c3.43,9.3,7.93,17.48,13.92,20.67
			c15.96,8.53,44.19-3.02,44.19-3.02s46.86,8.06,51.57,6.13c4.71-1.92,13.21-72.46,13.21-72.46s-34.58-40.15-37.79-41.42
			c-3.21-1.27-30.86,11.4-35.44,11.15c-4.58-0.25-30.47-19.27-37.92-15.27C1870.08,1562.83,1853.67,1609.99,1855.99,1615.58z"/>
		<path class="st28" d="M1915.45,1574.08c0,0,7.16,18.97,9.37,20.73c2.2,1.76,26.08-31.88,26.08-31.88
			C1947.68,1561.67,1920.04,1574.34,1915.45,1574.08z"/>
		<path class="st28" d="M1877.06,1577.24c0,0,31.8,32.89,31.2,35.77s-37.55,21.59-38.82,20.79c-1.27-0.8,8.99-23.9,8.77-27.92
			S1877.06,1577.24,1877.06,1577.24z"/>
		<path class="st28" d="M1855.99,1615.58c1.45,3.49,4.12,21.97,9.81,37.42l0,0.02l0.01,0l-2.08-34.83l13.8-59.38
			C1870.08,1562.83,1853.67,1609.99,1855.99,1615.58z"/>
		<path class="st28" d="M1923.91,1670.68c0,0,46.86,8.06,51.57,6.13c4.71-1.92,13.21-72.46,13.21-72.46s-12.27,35.74-12.59,37.54
			c-0.32,1.79-14.62-2.97-14.62-2.97L1923.91,1670.68z"/>
		<polygon class="st28" points="1976.4,1603.67 1970.12,1622.16 1959.31,1621.56 1967.78,1614.12 		"/>
	</g>
	<g>
		<path class="st27" d="M2120.97,1631.66c1.13,2.37,3.2,14.9,7.62,25.41l0,0.01c2.66,6.33,6.16,11.91,10.8,14.13
			c12.38,5.95,34.28-1.53,34.28-1.53s36.36,5.98,40.01,4.74c3.65-1.25,10.22-48.83,10.22-48.83s-26.83-27.54-29.33-28.43
			c-2.5-0.9-23.93,7.35-27.49,7.13c-3.56-0.22-23.65-13.38-29.42-10.76C2131.88,1596.16,2119.17,1627.85,2120.97,1631.66z"/>
		<path class="st29" d="M2167.08,1604.29c0,0,5.56,12.9,7.27,14.12c1.71,1.21,20.22-21.25,20.22-21.25
			C2192.08,1596.27,2170.64,1604.51,2167.08,1604.29z"/>
		<path class="st30" d="M2137.3,1605.98c0,0,24.68,22.6,24.22,24.54c-0.46,1.94-29.12,14.16-30.11,13.61s6.96-16.05,6.8-18.77
			C2138.03,1622.64,2137.3,1605.98,2137.3,1605.98z"/>
		<path class="st29" d="M2120.97,1631.66c1.13,2.37,3.2,14.9,7.62,25.41l0,0.01h0.01l-1.63-23.57l10.68-39.98
			C2131.88,1596.16,2119.17,1627.85,2120.97,1631.66z"/>
		<path class="st30" d="M2173.67,1669.68c0,0,36.36,5.98,40.01,4.74c3.65-1.25,10.22-48.83,10.22-48.83s-9.5,24.02-9.75,25.23
			c-0.25,1.21-11.34-2.18-11.34-2.18L2173.67,1669.68z"/>
		<polygon class="st30" points="2214.37,1624.99 2209.51,1637.42 2201.12,1636.89 2207.68,1631.95 		"/>
	</g>
	<g>
		<path class="st27" d="M2175.14,937.93c1.13,2.37,3.2,14.9,7.62,25.41l0,0.01c2.66,6.33,6.16,11.91,10.8,14.13
			c12.38,5.95,34.28-1.53,34.28-1.53s36.36,5.98,40.01,4.74c3.65-1.25,10.22-48.83,10.22-48.83s-26.83-27.54-29.33-28.43
			c-2.5-0.9-23.93,7.35-27.49,7.13c-3.56-0.22-23.64-13.38-29.42-10.76C2186.05,902.44,2173.34,934.13,2175.14,937.93z"/>
		<path class="st29" d="M2221.25,910.57c0,0,5.56,12.9,7.27,14.12c1.71,1.22,20.22-21.25,20.22-21.25
			C2246.24,902.54,2224.81,910.79,2221.25,910.57z"/>
		<path class="st30" d="M2191.47,912.26c0,0,24.68,22.6,24.22,24.54c-0.46,1.94-29.12,14.16-30.11,13.61
			c-0.98-0.55,6.96-16.05,6.8-18.77C2192.2,928.92,2191.47,912.26,2191.47,912.26z"/>
		<path class="st29" d="M2175.14,937.93c1.13,2.37,3.2,14.9,7.62,25.41l0,0.01l0.01,0l-1.63-23.57l10.68-39.98
			C2186.05,902.44,2173.34,934.13,2175.14,937.93z"/>
		<path class="st30" d="M2227.84,975.96c0,0,36.36,5.98,40.01,4.74c3.65-1.25,10.22-48.83,10.22-48.83s-9.5,24.02-9.75,25.23
			c-0.25,1.21-11.34-2.18-11.34-2.18L2227.84,975.96z"/>
		<polygon class="st30" points="2268.54,931.27 2263.67,943.69 2255.29,943.16 2261.85,938.23 		"/>
	</g>
	<path class="st31" d="M2853.93,1677.11H149.73c-1.69,0-3.07-1.38-3.07-3.07v-1.05c0-1.69,1.38-3.07,3.07-3.07h2704.2
		c1.69,0,3.07,1.38,3.07,3.07v1.05C2857,1675.73,2855.62,1677.11,2853.93,1677.11z"/>
</g>
</svg>
