<?xml version="1.0" encoding="utf-8"?>
<!-- Generator: Adobe Illustrator 23.0.0, SVG Export Plug-In . SVG Version: 6.00 Build 0)  -->
<svg version="1.1" id="Layer_1" xmlns="http://www.w3.org/2000/svg" xmlns:xlink="http://www.w3.org/1999/xlink" x="0px" y="0px"
	 viewBox="0 0 3000 3000" style="enable-background:new 0 0 3000 3000;" xml:space="preserve">
<style type="text/css">
	.st0{fill:#C3E5ED;}
	.st1{fill:#FDFEFF;}
	.st2{fill:#F3FAFC;stroke:#040000;stroke-width:2;stroke-miterlimit:10;}
	.st3{fill:#4B586B;}
	.st4{fill:#273952;}
	.st5{fill:#E7AF00;}
	.st6{fill:#D59F00;}
	.st7{fill:#FFFFFF;}
	.st8{fill:#EFEFEF;}
	.st9{fill:#CFCECC;}
	.st10{fill:#706E6B;}
	.st11{fill:#60929E;}
	.st12{fill:#312F2E;}
	.st13{fill:#FAC946;}
	.st14{fill:#D65D49;}
	.st15{fill:#EB7256;}
	.st16{fill:#D09F00;}
	.st17{fill:#F1BF00;}
	.st18{fill:#FDD55A;}
	.st19{fill:#6DBBCB;}
	.st20{fill:#5B9BB4;}
	.st21{fill:#F7BF00;}
	.st22{fill:#E5AA21;}
	.st23{fill:#F8F8FA;}
	.st24{fill:#928A8A;}
	.st25{fill:#CFDD46;}
	.st26{fill:#F5C54C;}
	.st27{fill:#CAC9C7;}
	.st28{fill:#EDAFA4;}
	.st29{fill:#94D3F2;}
	.st30{fill:#68717C;}
	.st31{fill:#C6E1F2;}
	.st32{fill:#4E637D;}
	.st33{fill:#22415E;}
	.st34{fill:#4C8FA2;}
	.st35{fill:#F6EEE5;}
	.st36{fill:#DADBCB;}
	.st37{fill:#F29C7C;}
	.st38{fill:#EA7A60;}
	.st39{fill:#E66142;}
	.st40{fill:#7C9BA5;}
	.st41{fill:#FFFEFA;}
</style>
<path class="st0" d="M940.89,1977.7c-4.74,24.09-4.41,49.18,0.96,73.99l-63.4,27.01l27.43,64.4l63.4-27
	c14.16,21.2,31.98,38.7,52.6,51.93l-25.59,63.77l65.03,26.11l25.65-63.66c24,4.79,49.11,4.46,73.96-0.89l26.95,63.28l64.45-27.44
	l-26.95-63.31c21-14.2,38.59-32.05,51.86-52.69l63.76,25.58l26.14-64.88l-63.6-25.82c4.6-23.9,4.4-49-0.97-73.99l63.26-26.93
	l-27.49-64.44l-63.23,26.94c-14.25-20.99-32.17-38.53-52.67-51.95l25.51-63.62l-64.89-26.15l-25.68,63.69
	c-24.05-4.71-49.16-4.47-74,0.86l-26.92-63.25l-64.42,27.43l26.96,63.31c-21.06,14.26-38.61,32.14-51.94,52.76l-63.57-25.58
	l-26.27,64.93L940.89,1977.7z M1092.18,1942.61c38.75-16.49,83.73,1.52,100.27,40.38c16.56,38.85-1.65,83.74-40.43,100.26
	c-38.77,16.53-83.6-1.53-100.15-40.39C1035.34,2004,1053.36,1959.15,1092.18,1942.61z"/>
<path class="st0" d="M816.12,1154.66c-6.41,32.61-5.97,66.57,1.29,100.14l-85.81,36.55l37.13,87.17l85.81-36.55
	c19.17,28.69,43.29,52.37,71.19,70.28l-34.63,86.31l88.01,35.34l34.72-86.17c32.49,6.49,66.47,6.04,100.1-1.21l36.48,85.64
	l87.23-37.14l-36.48-85.69c28.42-19.22,52.23-43.38,70.2-71.31l86.29,34.62l35.38-87.81l-86.08-34.94
	c6.23-32.34,5.95-66.31-1.32-100.15l85.62-36.45l-37.2-87.22l-85.58,36.46c-19.29-28.41-43.54-52.15-71.28-70.31l34.53-86.1
	l-87.82-35.39l-34.76,86.21c-32.55-6.37-66.54-6.05-100.15,1.16l-36.44-85.61l-87.2,37.13l36.49,85.69
	c-28.51,19.3-52.25,43.5-70.3,71.41l-86.04-34.62l-35.56,87.88L816.12,1154.66z M1020.89,1107.16
	c52.45-22.32,113.33,2.06,135.71,54.66c22.41,52.59-2.24,113.34-54.72,135.7c-52.47,22.37-113.15-2.07-135.55-54.66
	C943.96,1190.25,968.34,1129.55,1020.89,1107.16z"/>
<path class="st0" d="M2225.34,1746.99c8.29-31.67,9.94-65.06,4.85-98.51l86.56-30.69l-31.15-87.92l-86.59,30.67
	c-17.08-29.36-39.33-54.11-65.66-73.43l39.32-82.71l-84.35-40.11l-39.4,82.57c-31.52-8.35-64.95-10-98.45-4.93l-30.62-86.4
	l-88,31.18l30.62,86.44c-29.11,17.16-53.98,39.44-73.34,65.8l-82.69-39.3l-40.15,84.14l82.48,39.6c-8.12,31.41-9.9,64.81-4.84,98.51
	l-86.37,30.6l31.22,87.99l86.34-30.61c17.23,29.11,39.6,53.92,65.77,73.46l-39.21,82.51l84.16,40.16l39.42-82.61
	c31.61,8.24,65.03,10,98.52,4.97l30.58,86.37l87.96-31.16l-30.61-86.45c29.2-17.23,54.01-39.56,73.46-65.89l82.45,39.29l40.32-84.21
	L2225.34,1746.99z M2021.17,1781.16c-52.9,18.73-111.26-8.95-130.03-62.02c-18.82-53.06,9.12-111.26,62.06-130.02
	c52.93-18.78,111.1,8.94,129.88,62.01C2101.86,1704.19,2074.2,1762.36,2021.17,1781.16z"/>
<path class="st0" d="M1500,2477c-131.89,0-259.84-25.83-380.3-76.78c-116.34-49.21-220.82-119.65-310.55-209.38
	c-89.72-89.72-160.17-194.21-209.38-310.55C548.83,1759.84,523,1631.89,523,1500c0-131.89,25.83-259.84,76.78-380.29
	c49.21-116.34,119.65-220.82,209.38-310.55c89.72-89.72,194.21-160.17,310.55-209.38C1240.16,548.83,1368.11,523,1500,523
	c131.89,0,259.84,25.83,380.29,76.78c116.34,49.21,220.83,119.65,310.55,209.38c89.72,89.72,160.17,194.21,209.38,310.55
	c50.95,120.45,76.78,248.4,76.78,380.29c0,131.89-25.83,259.84-76.78,380.29c-49.21,116.34-119.65,220.82-209.38,310.55
	c-89.72,89.72-194.21,160.17-310.55,209.38C1759.84,2451.17,1631.89,2477,1500,2477z M1500,537c-531,0-963,432-963,963
	s432,963,963,963c531,0,963-432,963-963S2031,537,1500,537z"/>
<polygon class="st1" points="536.87,1034.52 374.56,1299.7 566.88,1417.41 709.48,1184.42 699.01,1133.76 "/>
<path class="st2" d="M1646.31,1379.33c0,0,158.57-114.77,205-161.2c46.43-46.43,47.31-110.39,47.31-110.39V872.95l-392.48-28.88
	v-0.9l-6.13,0.45l-6.13-0.45v0.9l-392.48,28.88v234.79c0,0,0.88,63.95,47.31,110.39c46.43,46.43,205,161.2,205,161.2
	s47.01,34.06,50.59,130.23c-3.58,96.17-50.59,130.23-50.59,130.23s-158.57,114.77-205,161.2c-46.43,46.43-47.31,110.39-47.31,110.39
	v234.79l392.48,28.88v0.9l6.13-0.45l6.13,0.45v-0.9l392.48-28.88v-234.79c0,0-0.88-63.95-47.31-110.39
	c-46.43-46.43-205-161.2-205-161.2s-47.01-34.06-50.59-130.23C1599.29,1413.39,1646.31,1379.33,1646.31,1379.33z"/>
<g>
	<path class="st3" d="M1073.62,750.12c-12.99,0-23.52,10.53-23.52,23.52v102.25c0,12.99,10.53,23.52,23.52,23.52l426.38,0v-149.3
		L1073.62,750.12z"/>
	<path class="st4" d="M1949.91,875.89V773.64c0-12.99-10.53-23.52-23.52-23.52H1500v149.3h426.38
		C1939.38,899.41,1949.91,888.88,1949.91,875.89z"/>
	<path class="st4" d="M1926.38,2269c12.99,0,23.52-10.53,23.52-23.52v-102.25c0-12.99-10.53-23.52-23.52-23.52H1500V2269H1926.38z"
		/>
	<path class="st3" d="M1050.1,2143.22v102.25c0,12.99,10.53,23.52,23.52,23.52H1500v-149.3h-426.38
		C1060.63,2119.7,1050.1,2130.23,1050.1,2143.22z"/>
</g>
<g>
	<g>
		<path class="st5" d="M1174.89,1043.52c0.84,15.9,9.04,114.46,89.41,178.76c89.51,71.61,235.7,167.08,235.7,167.08v-345.83H1174.89
			z"/>
	</g>
	<g>
		<path class="st6" d="M1825.11,1043.52c-0.84,15.9-9.04,114.46-89.41,178.76c-89.51,71.61-235.7,167.08-235.7,167.08v-345.83
			H1825.11z"/>
	</g>
</g>
<g>
	<g>
		<path class="st6" d="M1825.11,2023.01c-0.84-15.9-9.04-114.46-89.41-178.76c-89.51-71.61-235.7-167.08-235.7-167.08v345.83
			H1825.11z"/>
	</g>
	<g>
		<path class="st5" d="M1174.89,2023.01c0.84-15.9,9.04-114.46,89.41-178.76c89.51-71.61,235.7-167.08,235.7-167.08v345.83H1174.89z
			"/>
	</g>
</g>
<g>
	<path class="st6" d="M1510.16,1432.69c0-5.53-4.49-10.02-10.02-10.02v20.03C1505.67,1442.7,1510.16,1438.22,1510.16,1432.69z"/>
	<path class="st5" d="M1490.12,1432.69c0,5.53,4.49,10.02,10.02,10.02v-20.03C1494.61,1422.67,1490.12,1427.15,1490.12,1432.69z"/>
	<path class="st5" d="M1490.12,1521.37c0,5.53,4.48,10.02,10.02,10.02v-20.04C1494.61,1511.35,1490.12,1515.84,1490.12,1521.37z"/>
	<path class="st6" d="M1510.16,1521.37c0-5.53-4.49-10.02-10.02-10.02v20.04C1505.67,1531.39,1510.16,1526.9,1510.16,1521.37z"/>
	<path class="st6" d="M1510.16,1610.05c0-5.53-4.49-10.02-10.02-10.02v20.04C1505.67,1620.07,1510.16,1615.59,1510.16,1610.05z"/>
	<path class="st5" d="M1490.12,1610.05c0,5.53,4.48,10.02,10.02,10.02v-20.04C1494.61,1600.04,1490.12,1604.52,1490.12,1610.05z"/>
</g>
<path class="st0" d="M1500,2691.5c-160.85,0-316.89-31.5-463.79-93.64c-141.88-60.01-269.31-145.92-378.73-255.34
	c-109.42-109.42-195.33-236.84-255.35-378.73C340,1816.89,308.5,1660.85,308.5,1500s31.5-316.89,93.64-463.79
	c60.01-141.88,145.92-269.31,255.35-378.73c109.42-109.42,236.85-195.33,378.73-255.35C1183.11,340,1339.15,308.5,1500,308.5
	c160.85,0,316.89,31.5,463.79,93.64c141.88,60.01,269.31,145.92,378.73,255.35c109.42,109.42,195.33,236.84,255.35,378.73
	c62.13,146.9,93.64,302.94,93.64,463.79s-31.5,316.89-93.64,463.79c-60.01,141.89-145.92,269.31-255.35,378.73
	c-109.42,109.42-236.84,195.33-378.73,255.34C1816.89,2660,1660.85,2691.5,1500,2691.5z M1500,325.57
	C852.42,325.57,325.57,852.42,325.57,1500c0,647.58,526.85,1174.43,1174.43,1174.43S2674.43,2147.58,2674.43,1500
	C2674.43,852.42,2147.58,325.57,1500,325.57z"/>
<g>
	<g>
		<g>
			<path class="st7" d="M2526.29,1367.05l-82.66,11.14l48.94,363.03l82.66-11.14c31.66-4.27,53.87-33.39,49.6-65.05l-33.49-248.39
				C2587.07,1384.99,2557.95,1362.79,2526.29,1367.05z"/>
			<path class="st8" d="M2363.88,1388.95c-31.66,4.27-53.86,33.39-49.59,65.05l33.49,248.39c4.27,31.66,33.39,53.86,65.05,49.59
				l79.75-10.75l-48.94-363.03L2363.88,1388.95z"/>
		</g>
		<path class="st9" d="M2560.51,1431.89c0.36,2.66-1.51,5.1-4.16,5.46l-206.93,27.9c-2.66,0.36-5.11-1.51-5.47-4.16l0,0
			c-0.36-2.66,1.51-5.1,4.17-5.46l206.93-27.9C2557.7,1427.37,2560.15,1429.23,2560.51,1431.89L2560.51,1431.89z"/>
		<path class="st9" d="M2565.58,1469.51c0.36,2.66-1.51,5.1-4.16,5.46l-206.93,27.9c-2.66,0.36-5.11-1.5-5.47-4.16l0,0
			c-0.36-2.66,1.51-5.1,4.17-5.46l206.93-27.9C2562.77,1464.98,2565.22,1466.85,2565.58,1469.51L2565.58,1469.51z"/>
		<path class="st9" d="M2570.65,1507.12c0.36,2.66-1.51,5.1-4.16,5.46l-206.93,27.9c-2.66,0.36-5.11-1.5-5.47-4.16l0,0
			c-0.36-2.66,1.51-5.1,4.17-5.46l206.93-27.9C2567.84,1502.59,2570.29,1504.46,2570.65,1507.12L2570.65,1507.12z"/>
		<path class="st9" d="M2575.72,1544.73c0.36,2.66-1.51,5.1-4.16,5.46l-206.93,27.9c-2.66,0.36-5.11-1.51-5.47-4.16l0,0
			c-0.36-2.66,1.51-5.1,4.17-5.46l206.93-27.9C2572.91,1540.21,2575.36,1542.07,2575.72,1544.73L2575.72,1544.73z"/>
		<path class="st9" d="M2580.79,1582.34c0.36,2.66-1.51,5.1-4.16,5.46l-206.93,27.9c-2.66,0.36-5.11-1.5-5.47-4.16l0,0
			c-0.36-2.66,1.51-5.1,4.17-5.46l206.93-27.9C2577.98,1577.82,2580.43,1579.68,2580.79,1582.34L2580.79,1582.34z"/>
		<path class="st9" d="M2585.86,1619.96c0.36,2.65-1.51,5.1-4.16,5.46l-206.93,27.9c-2.66,0.36-5.11-1.51-5.46-4.16l0,0
			c-0.36-2.66,1.51-5.11,4.17-5.46l206.93-27.9C2583.05,1615.43,2585.5,1617.3,2585.86,1619.96L2585.86,1619.96z"/>
		<path class="st9" d="M2590.93,1657.57c0.36,2.66-1.51,5.11-4.16,5.46l-206.93,27.9c-2.66,0.36-5.11-1.51-5.47-4.17l0,0
			c-0.36-2.66,1.51-5.1,4.17-5.46l206.93-27.9C2588.12,1653.05,2590.57,1654.91,2590.93,1657.57L2590.93,1657.57z"/>
		<path class="st9" d="M2596,1695.18c0.36,2.66-1.51,5.1-4.16,5.46l-206.93,27.9c-2.66,0.36-5.11-1.5-5.47-4.16l0,0
			c-0.36-2.66,1.51-5.1,4.17-5.46l206.93-27.9C2593.19,1690.66,2595.64,1692.52,2596,1695.18L2596,1695.18z"/>
		<path class="st10" d="M2379.69,1397.61c0.63,4.66-2.64,8.94-7.3,9.57c-4.66,0.63-8.94-2.64-9.57-7.3
			c-0.63-4.66,2.64-8.94,7.3-9.57C2374.78,1389.68,2379.06,1392.95,2379.69,1397.61z"/>
		<path class="st10" d="M2408.64,1393.7c0.63,4.66-2.64,8.94-7.3,9.57s-8.94-2.64-9.57-7.3c-0.63-4.66,2.64-8.94,7.3-9.57
			C2403.72,1385.78,2408.01,1389.05,2408.64,1393.7z"/>
		<path class="st10" d="M2437.06,1389.87c0.63,4.66-2.64,8.94-7.29,9.57c-4.66,0.63-8.95-2.64-9.57-7.3
			c-0.63-4.66,2.64-8.94,7.3-9.57C2432.15,1381.95,2436.43,1385.22,2437.06,1389.87z"/>
		<path class="st10" d="M2466.71,1385.87c0.63,4.66-2.64,8.94-7.3,9.57c-4.66,0.63-8.94-2.64-9.57-7.3
			c-0.63-4.66,2.64-8.94,7.29-9.57C2461.8,1377.95,2466.08,1381.22,2466.71,1385.87z"/>
		<path class="st10" d="M2494.7,1382.1c0.63,4.66-2.64,8.94-7.3,9.57c-4.66,0.63-8.94-2.64-9.57-7.3c-0.63-4.66,2.64-8.94,7.3-9.57
			C2489.79,1374.18,2494.07,1377.44,2494.7,1382.1z"/>
		<path class="st10" d="M2523.55,1378.21c0.63,4.66-2.63,8.94-7.29,9.57c-4.66,0.63-8.94-2.64-9.57-7.3
			c-0.63-4.66,2.64-8.94,7.3-9.57C2518.64,1370.29,2522.92,1373.56,2523.55,1378.21z"/>
		<path class="st9" d="M2377.17,1394.92c0.47,3.49-1.98,6.7-5.47,7.17l0,0c-3.49,0.47-6.7-1.98-7.17-5.46l-2.11-15.64
			c-0.47-3.49,1.98-6.7,5.46-7.17l0,0c3.49-0.47,6.7,1.97,7.17,5.47L2377.17,1394.92z"/>
		<path class="st9" d="M2406.12,1391.02c0.47,3.49-1.98,6.7-5.47,7.17l0,0c-3.49,0.47-6.7-1.98-7.17-5.46l-2.11-15.64
			c-0.47-3.49,1.97-6.7,5.46-7.17l0,0c3.49-0.47,6.7,1.97,7.17,5.47L2406.12,1391.02z"/>
		<path class="st9" d="M2434.54,1387.19c0.47,3.49-1.97,6.7-5.46,7.17l0,0c-3.49,0.47-6.7-1.97-7.17-5.46l-2.11-15.64
			c-0.47-3.49,1.98-6.7,5.47-7.17l0,0c3.49-0.47,6.7,1.97,7.17,5.47L2434.54,1387.19z"/>
		<path class="st9" d="M2464.19,1383.19c0.47,3.49-1.98,6.7-5.47,7.17l0,0c-3.49,0.47-6.7-1.98-7.17-5.46l-2.11-15.64
			c-0.47-3.49,1.98-6.7,5.46-7.17l0,0c3.49-0.47,6.7,1.97,7.17,5.47L2464.19,1383.19z"/>
		<path class="st9" d="M2492.18,1379.42c0.47,3.49-1.98,6.7-5.47,7.17l0,0c-3.49,0.47-6.7-1.97-7.17-5.46l-2.11-15.64
			c-0.47-3.49,1.98-6.7,5.47-7.17l0,0c3.49-0.47,6.7,1.97,7.17,5.47L2492.18,1379.42z"/>
		<path class="st9" d="M2521.04,1375.53c0.47,3.49-1.98,6.7-5.47,7.17l0,0c-3.49,0.47-6.7-1.97-7.17-5.46l-2.11-15.64
			c-0.47-3.49,1.98-6.7,5.46-7.17l0,0c3.49-0.47,6.7,1.97,7.17,5.47L2521.04,1375.53z"/>
		<g>
			<path class="st11" d="M2607.24,1502.17c-4.29,4.77-11.63,5.18-16.42,0.89l-6.31-5.66c-4.78-4.28-5.17-11.63-0.89-16.41l5.67-6.32
				c4.29-4.78,11.63-5.17,16.41-0.89l6.31,5.66c4.79,4.29,5.18,11.63,0.9,16.41L2607.24,1502.17z"/>
			<g>
				<polygon class="st12" points="2445.58,1658.92 2455.84,1654.22 2449.06,1648.13 				"/>
				<polygon class="st13" points="2458.21,1619.82 2449.06,1648.13 2455.84,1654.22 2482.79,1641.85 				"/>
			</g>
			<g>
				<path class="st14" d="M2588.83,1499.1l-117.54,131.09c3.42-2.06,8.02-2.85,10.72-0.42c3.21,2.88,3.24,7.97,0.41,11.9l0.26,0.23
					l118.29-131.92L2588.83,1499.1z"/>
				<path class="st15" d="M2576.48,1488.01l-118.29,131.92l0.07,0.06c3.61-3.48,8.88-4.09,12.17-1.14c2.9,2.6,2.55,7.8,0.53,11.52
					c0.1-0.07,0.23-0.13,0.33-0.18l117.54-131.09L2576.48,1488.01z"/>
			</g>
			<path class="st13" d="M2482.32,1629.89c-2.83-2.54-7.11-2.43-10.57-0.19c2.04-3.77,1.77-8.22-1.16-10.84
				c-3.32-2.97-8.65-2.37-12.3,1.16l12.04,10.79l0.46,0.41l11.94,10.71C2485.58,1637.95,2485.56,1632.8,2482.32,1629.89z"/>
			
				<rect x="2587.31" y="1479.53" transform="matrix(0.6676 -0.7445 0.7445 0.6676 -252.283 2426.5452)" class="st16" width="8.51" height="32.59"/>
			<path class="st17" d="M2604.32,1507.28c-0.45,0.5-1.24,0.55-1.74,0.09l-23.62-21.18c-0.51-0.46-0.54-1.25-0.1-1.74l0,0
				c0.46-0.51,1.23-0.55,1.74-0.09l23.62,21.18C2604.73,1505.99,2604.77,1506.77,2604.32,1507.28L2604.32,1507.28z"/>
			<path class="st17" d="M2601.65,1510.47c-0.46,0.51-1.23,0.55-1.74,0.1l-23.62-21.18c-0.5-0.45-0.55-1.24-0.09-1.74l0,0
				c0.45-0.5,1.24-0.55,1.73-0.1l23.63,21.18C2602.07,1509.19,2602.1,1509.97,2601.65,1510.47L2601.65,1510.47z"/>
		</g>
	</g>
</g>
<g>
	<g>
		<path class="st14" d="M728.11,1724.45c-4.53-4.36-10-7.65-16.37-9.08L294,1621.42c-8.42-1.89-16.84-0.36-24.3,3.57l175.37,209.76
			l0.72,0.41l-0.88,0.29l15.37,18.38l22.19-10.68l-0.64-0.65l0.8-0.05L728.11,1724.45z"/>
		<path class="st14" d="M269.54,1625.69c0,0,246.45-150.34,276.16-143.65c29.73,6.69,182.25,243.11,182.25,243.11L269.54,1625.69z"
			/>
		<g>
			
				<rect x="301.42" y="1643.72" transform="matrix(0.2194 -0.9756 0.9756 0.2194 -1378.187 1866.6221)" class="st7" width="352.02" height="301.73"/>
			
				<rect x="499.74" y="1530.79" transform="matrix(0.2194 -0.9756 0.9756 0.2194 -1223.6292 1791.2711)" class="st18" width="15.75" height="259.08"/>
			
				<rect x="483.92" y="1601.16" transform="matrix(0.2194 -0.9756 0.9756 0.2194 -1304.6421 1830.7495)" class="st18" width="15.74" height="259.08"/>
			
				<rect x="491.83" y="1565.98" transform="matrix(0.2194 -0.9756 0.9756 0.2194 -1264.1382 1811.019)" class="st18" width="15.75" height="259.08"/>
			
				<rect x="476.01" y="1636.35" transform="matrix(0.2194 -0.9756 0.9756 0.2194 -1345.1483 1850.4957)" class="st18" width="15.74" height="259.08"/>
			
				<rect x="468.6" y="1669.25" transform="matrix(0.2194 -0.9756 0.9756 0.2194 -1383.0239 1868.9706)" class="st18" width="15.74" height="259.08"/>
			
				<rect x="460.7" y="1704.44" transform="matrix(0.2194 -0.9756 0.9756 0.2194 -1423.5311 1888.7031)" class="st18" width="15.73" height="259.08"/>
		</g>
		<g>
			<polygon class="st19" points="435.08,1823.68 429.8,1817.36 435.05,1823.64 			"/>
			<polygon class="st20" points="380.59,1758.53 380.59,1758.53 429.8,1817.36 			"/>
			<path class="st21" d="M435.08,1823.68l-0.03-0.04l-5.25-6.29l-49.2-58.83l-111.05-132.84c-10.86,5.73-19.62,16.66-22.76,30.6
				l-52.17,231.95c-2.73,12.16-0.65,24.06,4.78,33.43l190.15-66.78l55.36-19.44L435.08,1823.68z"/>
			<path class="st21" d="M727.96,1725.15l-183.6,88.28l0,0l-38.82,18.67l-19.78,9.5l-3.29,1.56l50.59,50.9l133.61,134.38
				c9.87-5.99,17.73-16.33,20.67-29.39l52.17-231.95C743.17,1750.8,738.17,1734.97,727.96,1725.15z"/>
			<path class="st22" d="M533.06,1894.06l-50.59-50.9l3.29-1.56c-0.2,0.07-17.75,6.17-25.39,4.45
				c-7.61-1.71-25.18-22.22-25.28-22.36l9.83,11.78l-55.36,19.44l-190.15,66.78c5.06,8.78,13.11,15.35,23.12,17.6l417.74,93.95
				c9.24,2.08,18.45,0.02,26.41-4.78L533.06,1894.06z"/>
		</g>
	</g>
</g>
<g>
	<path class="st14" d="M1458.73,638.87c0,199.88-162.03,361.9-361.86,361.9c-199.88,0-361.91-162.03-361.91-361.9
		c0-199.85,162.03-361.87,361.91-361.87C1296.7,277,1458.73,439.02,1458.73,638.87z"/>
	<path class="st23" d="M1398.09,638.89c0,166.36-134.87,301.25-301.27,301.25c-166.37,0-301.23-134.9-301.23-301.25
		c0-166.38,134.87-301.25,301.23-301.25C1263.23,337.64,1398.09,472.51,1398.09,638.89z"/>
	<path class="st3" d="M1096.87,944.54c-168.57,0-305.68-137.14-305.68-305.67c0-168.54,137.1-305.64,305.68-305.64
		c168.53,0,305.65,137.11,305.65,305.64C1402.51,807.4,1265.4,944.54,1096.87,944.54z M1096.87,352.59
		c-157.88,0-286.32,128.41-286.32,286.28s128.44,286.31,286.32,286.31c157.87,0,286.31-128.44,286.31-286.31
		S1254.74,352.59,1096.87,352.59z"/>
	<g>
		<g>
			<rect x="1084.46" y="346.3" class="st3" width="24.77" height="72.88"/>
			<rect x="1084.46" y="858.59" class="st3" width="24.77" height="72.9"/>
		</g>
	</g>
	<g>
		<g>
			<g>
				<rect x="1316.55" y="626.5" class="st3" width="72.9" height="24.77"/>
			</g>
			<g>
				<rect x="804.25" y="626.5" class="st3" width="72.89" height="24.77"/>
			</g>
		</g>
	</g>
	<path class="st3" d="M1259.67,619.37l-140.92,4.67c-4.76-7.02-12.79-11.63-21.9-11.63c-3.25,0-6.33,0.66-9.19,1.73L957.62,466.05
		c-3.41-3.9-9.39-4.25-13.29-0.86c-3.9,3.44-4.27,9.38-0.86,13.29l130.05,148.12c-1.93,3.69-3.13,7.83-3.13,12.28
		c0,14.63,11.83,26.49,26.45,26.49c9.72,0,18.12-5.29,22.71-13.1l141.03-4.67c7.79-0.26,13.91-6.78,13.65-14.57
		C1273.96,625.23,1267.82,619.58,1259.67,619.37z"/>
</g>
<g>
	<g>
		<polyline class="st1" points="360.02,965.49 636.59,987.27 666.62,605.9 390.05,584.13 		"/>
		<g>
			
				<rect x="566.26" y="810.17" transform="matrix(0.0746 -0.9972 0.9972 0.0746 -339.486 1373.7327)" class="st24" width="8.3" height="119.22"/>
			
				<rect x="565.3" y="823.01" transform="matrix(0.0746 -0.9972 0.9972 0.0746 -353.187 1384.6527)" class="st24" width="8.3" height="119.22"/>
			
				<rect x="564.34" y="835.86" transform="matrix(0.0746 -0.9972 0.9972 0.0746 -366.8772 1395.5923)" class="st24" width="8.3" height="119.22"/>
			
				<rect x="563.38" y="848.7" transform="matrix(0.0746 -0.9972 0.9972 0.0746 -380.578 1406.5123)" class="st24" width="8.3" height="119.22"/>
			
				<rect x="562.42" y="861.54" transform="matrix(0.0746 -0.9972 0.9972 0.0746 -394.2762 1417.4337)" class="st24" width="8.3" height="119.22"/>
			
				<rect x="561.46" y="874.39" transform="matrix(0.0746 -0.9972 0.9972 0.0746 -407.9655 1428.3787)" class="st24" width="8.3" height="119.22"/>
			
				<rect x="560.5" y="887.23" transform="matrix(0.0746 -0.9972 0.9972 0.0746 -421.6694 1439.2917)" class="st24" width="8.3" height="119.22"/>
			
				<rect x="559.54" y="900.07" transform="matrix(0.0746 -0.9972 0.9972 0.0746 -435.3676 1450.2151)" class="st24" width="8.3" height="119.22"/>
		</g>
		<g>
			
				<rect x="434.45" y="800.31" transform="matrix(0.0746 -0.9972 0.9972 0.0746 -451.6398 1233.1556)" class="st24" width="8.3" height="119.22"/>
			
				<rect x="433.49" y="813.15" transform="matrix(0.0746 -0.9972 0.9972 0.0746 -465.337 1244.0842)" class="st24" width="8.3" height="119.22"/>
			
				<rect x="432.53" y="826" transform="matrix(0.0746 -0.9972 0.9972 0.0746 -479.0313 1255.0172)" class="st24" width="8.3" height="119.22"/>
			
				<rect x="431.57" y="838.84" transform="matrix(0.0746 -0.9972 0.9972 0.0746 -492.7282 1265.9417)" class="st24" width="8.3" height="119.22"/>
			
				<rect x="430.6" y="851.68" transform="matrix(0.0746 -0.9972 0.9972 0.0746 -506.4229 1276.8708)" class="st24" width="8.3" height="119.22"/>
			
				<rect x="429.64" y="864.53" transform="matrix(0.0746 -0.9972 0.9972 0.0746 -520.1223 1287.7977)" class="st24" width="8.3" height="119.22"/>
			
				<rect x="428.69" y="877.37" transform="matrix(0.0746 -0.9972 0.9972 0.0746 -533.8223 1298.7163)" class="st24" width="8.3" height="119.22"/>
			
				<rect x="427.72" y="890.21" transform="matrix(0.0746 -0.9972 0.9972 0.0746 -547.5132 1309.6561)" class="st24" width="8.3" height="119.22"/>
		</g>
		
			<rect x="485" y="804.35" transform="matrix(0.0746 -0.9972 0.9972 0.0746 -355.4338 1247.6539)" class="st25" width="18.98" height="21.95"/>
		
			<rect x="482.94" y="831.89" transform="matrix(0.0746 -0.9972 0.9972 0.0746 -384.8291 1271.0247)" class="st26" width="18.98" height="21.94"/>
		
			<rect x="583.03" y="809.64" transform="matrix(0.0746 -0.9972 0.9972 0.0746 -277.1362 1346.4335)" class="st27" width="7.71" height="25.8"/>
		
			<rect x="581.23" y="837.73" transform="matrix(0.0746 -0.9972 0.9972 0.0746 -307.1133 1370.3085)" class="st27" width="7.12" height="25.8"/>
		
			<rect x="457.61" y="800.25" transform="matrix(0.0746 -0.9972 0.9972 0.0746 -383.8517 1212.6682)" class="st27" width="7.71" height="25.8"/>
		
			<rect x="455.81" y="828.35" transform="matrix(0.0746 -0.9972 0.9972 0.0746 -413.8076 1236.5848)" class="st27" width="7.12" height="25.8"/>
		
			<rect x="510" y="599.36" transform="matrix(0.0746 -0.9972 0.9972 0.0746 -247.9935 1184.3951)" class="st24" width="8.3" height="252.91"/>
		
			<rect x="509" y="612.78" transform="matrix(0.0746 -0.9972 0.9972 0.0746 -262.3044 1195.8088)" class="st24" width="8.3" height="252.91"/>
		
			<rect x="507.99" y="626.2" transform="matrix(0.0746 -0.9972 0.9972 0.0746 -276.6119 1207.2306)" class="st24" width="8.3" height="252.91"/>
		
			<rect x="506.99" y="639.62" transform="matrix(0.0746 -0.9972 0.9972 0.0746 -290.9224 1218.6506)" class="st24" width="8.31" height="252.91"/>
		
			<rect x="505.98" y="653.04" transform="matrix(0.0746 -0.9972 0.9972 0.0746 -305.2336 1230.0615)" class="st24" width="8.3" height="252.91"/>
		
			<rect x="504.98" y="666.46" transform="matrix(0.0746 -0.9972 0.9972 0.0746 -319.5469 1241.4773)" class="st24" width="8.3" height="252.91"/>
		<polygon class="st24" points="410.07,663.83 620.79,679.97 621.41,671.69 410.69,655.55 		"/>
		<polygon class="st24" points="409.11,676.67 619.83,692.82 620.45,684.54 409.72,668.39 		"/>
		<polygon class="st24" points="408.15,689.51 618.87,705.66 619.49,697.38 408.77,681.23 		"/>
		<polygon class="st24" points="407.18,702.36 617.91,718.5 618.53,710.23 407.8,694.08 		"/>
	</g>
	
		<rect x="518.9" y="498.94" transform="matrix(0.0746 -0.9972 0.9972 0.0746 -139.615 1100.3464)" class="st24" width="8.3" height="252.91"/>
	
		<rect x="517.9" y="512.36" transform="matrix(0.0746 -0.9972 0.9972 0.0746 -153.9261 1111.7621)" class="st24" width="8.3" height="252.91"/>
</g>
<g>
	<g>
		<g>
			
				<rect x="558.87" y="1259.47" transform="matrix(0.5187 -0.855 0.855 0.5187 -847.608 1110.238)" class="st24" width="6.75" height="96.89"/>
			
				<rect x="553.44" y="1268.42" transform="matrix(0.5187 -0.855 0.855 0.5187 -857.8696 1109.8821)" class="st24" width="6.75" height="96.89"/>
			
				<rect x="548.01" y="1277.37" transform="matrix(0.5187 -0.855 0.855 0.5187 -868.138 1109.5665)" class="st24" width="6.75" height="96.89"/>
			
				<rect x="542.58" y="1286.32" transform="matrix(0.5187 -0.855 0.855 0.5187 -878.4008 1109.2235)" class="st24" width="6.75" height="96.89"/>
			
				<rect x="537.15" y="1295.27" transform="matrix(0.5187 -0.855 0.855 0.5187 -888.6649 1108.8876)" class="st24" width="6.75" height="96.89"/>
			
				<rect x="531.72" y="1304.22" transform="matrix(0.5187 -0.855 0.855 0.5187 -898.9358 1108.5851)" class="st24" width="6.75" height="96.89"/>
			
				<rect x="526.29" y="1313.17" transform="matrix(0.5187 -0.855 0.855 0.5187 -909.1945 1108.2145)" class="st24" width="6.75" height="96.89"/>
			
				<rect x="520.86" y="1322.11" transform="matrix(0.5187 -0.855 0.855 0.5187 -919.4601 1107.8859)" class="st24" width="6.75" height="96.89"/>
		</g>
		<g>
			
				<rect x="467.02" y="1203.74" transform="matrix(0.5187 -0.855 0.855 0.5187 -844.172 1004.863)" class="st24" width="6.75" height="96.9"/>
			
				<rect x="461.59" y="1212.69" transform="matrix(0.5187 -0.855 0.855 0.5187 -854.4388 1004.5346)" class="st24" width="6.75" height="96.9"/>
			
				<rect x="456.16" y="1221.64" transform="matrix(0.5187 -0.855 0.855 0.5187 -864.708 1004.2252)" class="st24" width="6.75" height="96.9"/>
			
				<rect x="450.73" y="1230.59" transform="matrix(0.5187 -0.855 0.855 0.5187 -874.9674 1003.8654)" class="st24" width="6.75" height="96.9"/>
			
				<rect x="445.3" y="1239.54" transform="matrix(0.5187 -0.855 0.855 0.5187 -885.236 1003.5529)" class="st24" width="6.75" height="96.9"/>
			
				<rect x="439.87" y="1248.49" transform="matrix(0.5187 -0.855 0.855 0.5187 -895.4997 1003.2073)" class="st24" width="6.75" height="96.9"/>
			
				<rect x="434.44" y="1257.44" transform="matrix(0.5187 -0.855 0.855 0.5187 -905.7615 1002.8577)" class="st24" width="6.75" height="96.89"/>
			
				<rect x="429.01" y="1266.39" transform="matrix(0.5187 -0.855 0.855 0.5187 -916.0334 1002.5582)" class="st24" width="6.75" height="96.9"/>
		</g>
		
			<rect x="519.6" y="1231.57" transform="matrix(0.5187 -0.855 0.855 0.5187 -806.7756 1047.9404)" class="st25" width="15.43" height="17.84"/>
		
			<rect x="507.96" y="1250.76" transform="matrix(0.5187 -0.855 0.855 0.5187 -828.775 1047.1648)" class="st26" width="15.42" height="17.84"/>
		
			<rect x="588.45" y="1269.28" transform="matrix(0.5187 -0.855 0.855 0.5187 -809.4147 1121.7631)" class="st27" width="6.27" height="20.97"/>
		
			<rect x="576.82" y="1288.86" transform="matrix(0.5187 -0.8549 0.8549 0.5187 -831.8571 1120.9424)" class="st27" width="5.79" height="20.97"/>
		
			<rect x="501.06" y="1216.26" transform="matrix(0.5187 -0.855 0.855 0.5187 -806.146 1021.5041)" class="st27" width="6.27" height="20.97"/>
		
			<rect x="489.43" y="1235.84" transform="matrix(0.5187 -0.855 0.855 0.5187 -828.5992 1020.7668)" class="st27" width="5.78" height="20.97"/>
		
			<rect x="571.17" y="1080.12" transform="matrix(0.5187 -0.855 0.855 0.5187 -734.7955 1060.5662)" class="st24" width="6.75" height="205.55"/>
		
			<rect x="565.5" y="1089.47" transform="matrix(0.5187 -0.855 0.855 0.5187 -745.5198 1060.2177)" class="st24" width="6.75" height="205.55"/>
		
			<rect x="559.83" y="1098.82" transform="matrix(0.5187 -0.855 0.855 0.5187 -756.2449 1059.8698)" class="st24" width="6.75" height="205.55"/>
		
			<rect x="554.15" y="1108.17" transform="matrix(0.5187 -0.855 0.855 0.5187 -766.971 1059.5225)" class="st24" width="6.75" height="205.55"/>
		
			<rect x="548.48" y="1117.52" transform="matrix(0.5187 -0.855 0.855 0.5187 -777.693 1059.1656)" class="st24" width="6.75" height="205.55"/>
		
			<rect x="542.81" y="1126.87" transform="matrix(0.5187 -0.855 0.855 0.5187 -788.4187 1058.8134)" class="st24" width="6.75" height="205.55"/>
		<polygon class="st24" points="522,1099.63 668.69,1188.99 672.19,1183.22 525.5,1093.86 		"/>
		<polygon class="st24" points="516.57,1108.58 663.26,1197.94 666.76,1192.17 520.07,1102.81 		"/>
		<polygon class="st24" points="511.14,1117.53 657.83,1206.89 661.33,1201.12 514.64,1111.76 		"/>
		<polygon class="st24" points="505.71,1126.48 652.4,1215.84 655.9,1210.07 509.21,1120.71 		"/>
	</g>
	
		<rect x="602.07" y="1017.69" transform="matrix(0.5179 -0.8554 0.8554 0.5179 -653.994 1050.9377)" class="st24" width="6.75" height="176.08"/>
	
		<rect x="596.49" y="1026.98" transform="matrix(0.5179 -0.8555 0.8555 0.5179 -664.7287 1050.7906)" class="st24" width="6.75" height="176.28"/>
</g>
<g>
	<g>
		<g>
			<g>
				
					<rect x="1632.04" y="252.77" transform="matrix(0.9521 -0.3058 0.3058 0.9521 -52.3592 564.5874)" class="st7" width="287.15" height="393.24"/>
				<g>
					
						<rect x="1676.65" y="543.03" transform="matrix(0.9521 -0.3058 0.3058 0.9521 -84.0881 557.8878)" class="st24" width="123.39" height="8.53"/>
					
						<rect x="1680.7" y="555.63" transform="matrix(0.9521 -0.3058 0.3058 0.9521 -87.7487 559.7155)" class="st24" width="123.39" height="8.53"/>
					
						<rect x="1684.75" y="568.23" transform="matrix(0.9521 -0.3058 0.3058 0.9521 -91.4097 561.5538)" class="st24" width="123.39" height="8.54"/>
					
						<rect x="1688.8" y="580.84" transform="matrix(0.9521 -0.3058 0.3058 0.9521 -95.0713 563.41)" class="st24" width="123.39" height="8.54"/>
					
						<rect x="1692.85" y="593.44" transform="matrix(0.9521 -0.3058 0.3058 0.9521 -98.7311 565.2457)" class="st24" width="123.39" height="8.54"/>
					
						<rect x="1696.9" y="606.05" transform="matrix(0.9521 -0.3058 0.3058 0.9521 -102.3922 567.085)" class="st24" width="123.39" height="8.53"/>
					
						<rect x="1700.95" y="618.66" transform="matrix(0.9521 -0.3058 0.3058 0.9521 -106.0548 568.9547)" class="st24" width="123.39" height="8.54"/>
					
						<rect x="1704.99" y="631.26" transform="matrix(0.9521 -0.3058 0.3058 0.9521 -109.7149 570.7796)" class="st24" width="123.39" height="8.53"/>
				</g>
				<g>
					
						<rect x="1806.91" y="501.18" transform="matrix(0.9521 -0.3058 0.3058 0.9521 -65.0488 595.7168)" class="st24" width="123.4" height="8.53"/>
					
						<rect x="1810.96" y="513.79" transform="matrix(0.9521 -0.3058 0.3058 0.9521 -68.7095 597.5579)" class="st24" width="123.4" height="8.53"/>
					
						<rect x="1815.01" y="526.39" transform="matrix(0.9521 -0.3058 0.3058 0.9521 -72.3711 599.3867)" class="st24" width="123.39" height="8.54"/>
					
						<rect x="1819.06" y="539" transform="matrix(0.9521 -0.3058 0.3058 0.9521 -76.0323 601.2381)" class="st24" width="123.4" height="8.53"/>
					
						<rect x="1823.11" y="551.6" transform="matrix(0.9521 -0.3058 0.3058 0.9521 -79.6919 603.0857)" class="st24" width="123.4" height="8.54"/>
					
						<rect x="1827.16" y="564.21" transform="matrix(0.9521 -0.3058 0.3058 0.9521 -83.3534 604.9135)" class="st24" width="123.4" height="8.53"/>
					
						<rect x="1831.21" y="576.81" transform="matrix(0.9521 -0.3058 0.3058 0.9521 -87.0151 606.7665)" class="st24" width="123.4" height="8.54"/>
					
						<rect x="1835.25" y="589.42" transform="matrix(0.9521 -0.3058 0.3058 0.9521 -90.6756 608.6119)" class="st24" width="123.4" height="8.53"/>
				</g>
				
					<rect x="1663.77" y="505.33" transform="matrix(0.9521 -0.3058 0.3058 0.9521 -77.267 536.9824)" class="st28" width="22.72" height="19.51"/>
				
					<rect x="1672.45" y="532.36" transform="matrix(0.9521 -0.3058 0.3058 0.9521 -85.1167 540.9089)" class="st29" width="22.72" height="19.51"/>
				
					<rect x="1790.31" y="464.68" transform="matrix(0.9521 -0.3058 0.3058 0.9521 -58.7773 573.6506)" class="st25" width="22.71" height="19.51"/>
				
					<rect x="1798.99" y="491.71" transform="matrix(0.9521 -0.3058 0.3058 0.9521 -66.6223 577.6785)" class="st26" width="22.71" height="19.51"/>
				
					<rect x="1697.09" y="500.11" transform="matrix(0.9521 -0.3059 0.3059 0.9521 -72.2037 547.3137)" class="st27" width="26.7" height="7.92"/>
				
					<rect x="1705.94" y="527.98" transform="matrix(0.9521 -0.3058 0.3058 0.9521 -80.2133 551.2656)" class="st27" width="26.71" height="7.32"/>
				
					<rect x="1821.02" y="460.29" transform="matrix(0.9521 -0.3058 0.3058 0.9521 -54.0934 583.21)" class="st27" width="26.71" height="7.92"/>
				
					<rect x="1829.88" y="488.17" transform="matrix(0.9521 -0.3059 0.3059 0.9521 -62.0966 587.3293)" class="st27" width="26.71" height="7.32"/>
				<g>
					<g>
						<path class="st24" d="M1691.96,298.79c1.58-0.8,3.7-1.64,5.99-2.38c3.8-1.22,6.49-1.33,8.88-0.51
							c2.57,0.87,4.67,2.89,5.79,6.41c1.22,3.8,0.67,6.88-0.74,9.12c-1.55,2.42-4.49,4.28-8.41,5.54c-2.35,0.75-4.06,1.14-5.24,1.35
							L1691.96,298.79z M1701.71,313.56c0.42-0.04,1.04-0.24,1.6-0.42c4.11-1.29,6.06-4.39,4.54-9.14
							c-1.29-4.14-4.43-5.54-8.33-4.29c-1,0.32-1.63,0.62-1.99,0.84L1701.71,313.56z"/>
						<path class="st24" d="M1721.49,305.32l0.21,5.56l-4.7,1.51l-0.27-21.85l5.94-1.91l12.6,17.89l-4.87,1.57l-3.19-4.61
							L1721.49,305.32z M1725.48,300.32l-2.6-3.82c-0.73-1.07-1.56-2.43-2.24-3.51l-0.06,0.02c0.09,1.28,0.27,2.88,0.31,4.13
							l0.17,4.6L1725.48,300.32z"/>
						<path class="st24" d="M1734.17,289.1l-5.38,1.73l-1.21-3.77l15.39-4.94l1.21,3.77l-5.46,1.76l5.18,16.11l-4.54,1.46
							L1734.17,289.1z"/>
						<path class="st24" d="M1752.65,295.31l0.21,5.56l-4.7,1.51l-0.26-21.85l5.94-1.91l12.6,17.89l-4.87,1.57l-3.18-4.61
							L1752.65,295.31z M1756.65,290.31l-2.6-3.82c-0.73-1.06-1.56-2.43-2.24-3.51l-0.06,0.02c0.08,1.28,0.27,2.88,0.31,4.13
							l0.17,4.6L1756.65,290.31z"/>
					</g>
				</g>
				<g>
					<g>
						<path class="st24" d="M1611.53,364.53l43.26,134.67l31.03-9.97l210.73-67.69l8.98-2.88l-43.26-134.67L1611.53,364.53z
							 M1768.25,321.06l39.05-12.54l8.14,25.33l-39.05,12.54L1768.25,321.06z M1672.25,351.9l39.03-12.54l8.14,25.33l-39.03,12.54
							L1672.25,351.9z M1702.46,476.95l-0.07,0.02l-11.01,3.54l-10.47,3.36l-16.42,5.27l-3.24,1.04l-1.78-5.53l-2.97-9.25
							l-1.75-5.45l-1.09-3.41l-0.03-0.11l27.93-8.97c-0.05,0.05-0.09,0.1-0.13,0.16l13.16-4.23c0.04-0.05,0.08-0.11,0.13-0.16
							l0.12-0.04L1702.46,476.95z M1692.02,444.45c-0.25,0.32-0.51,0.65-0.77,0.98l0.59,1.83l-2.76,0.89l-36.27,11.65l-1.18,0.38
							l-8.73-27.12l1.2-0.38l-0.02-0.07l39.03-12.54l0.02,0.07l0.99-0.32L1692.02,444.45z M1682.12,413.52l-41.23,13.25l-8.72-27.15
							l41.23-13.24L1682.12,413.52z M1671.39,380.12l-41.23,13.25l-8.14-25.33l41.23-13.24L1671.39,380.12z M1750.52,461.51
							l-39.03,12.54l-7.63-23.75l39.03-12.54L1750.52,461.51z M1740.97,431.47l-0.11,0.04l-38.67,12.42l-0.25,0.08l-2.74-8.51
							c-0.03,0.03-0.05,0.06-0.08,0.09l-6-18.68l0.1-0.03l-0.02-0.07l39.03-12.54L1740.97,431.47z M1730.23,398.02l-1.58,0.51
							c-0.01,0.02-0.04,0.04-0.05,0.06l-37.49,12.04l-8.71-27.13l39.02-12.53l0.57,1.76l0.11-0.04L1730.23,398.02z M1798.53,446.08
							l-39.05,12.54l-7.63-23.75l39.05-12.54L1798.53,446.08z M1788.89,416.08l-39.05,12.54l-8.58-26.71l0.01,0l-0.16-0.48
							l39.03-12.54l3.6,11.2l0,0L1788.89,416.08z M1778.16,382.67l-38.83,12.47l-0.23,0.04l-8.71-27.12l39.05-12.54L1778.16,382.67z
							 M1767.43,349.27l-39.05,12.54l-8.14-25.33l39.05-12.54L1767.43,349.27z M1846.54,430.67l-39.05,12.54l-7.63-23.75
							l39.05-12.54L1846.54,430.67z M1836.53,398.78l-0.21,0.07l0.58,1.81l-39.05,12.54l-4.35-13.55l0.26-0.01l-2.16-6.72
							l-0.26,0.01l-2.2-6.86l0.23-0.08l0,0l39.03-12.54L1836.53,398.78z M1826.16,367.25l-6.83,2.19l-32.22,10.35l-8.72-27.15
							l39.05-12.54l0.46,1.43L1826.16,367.25z M1894.53,415.25l-39.02,12.53l-7.63-23.75l39.02-12.53L1894.53,415.25z
							 M1884.89,385.24l-39.02,12.53l-8.71-27.13l39.02-12.53L1884.89,385.24z M1874.23,349.9l0.58,1.75l-0.65,0.18l-39.02,12.53
							l-8.72-27.15l7.56-2.43l-0.05,0.13l10.52-3.38l0.05-0.13l20.93-6.72l0.03,0.1l0.63-0.2L1874.23,349.9z M1864.05,318.23
							l-0.63,0.2l0.01,0.02l-15.51,4.98l0.01-0.03l-10.57,3.4l-12.34,3.96l-0.61,0.2l-8.14-25.33l0.61-0.2l34.2-10.98l4.83-1.55
							L1864.05,318.23z"/>
					</g>
				</g>
				<polygon class="st28" points="1660.43,488.71 1655.83,485.55 1692.35,432.99 1723.64,437.4 1759.78,389.02 1789.63,401.85 
					1806.71,336.34 1886.72,372.97 1884.36,378.03 1810.44,344.19 1793.41,409.55 1761.61,395.89 1726.14,443.38 1694.98,439 				
					"/>
				<polygon class="st29" points="1812.94,392.74 1749.57,374.3 1720.28,399.71 1699.46,403.75 1669.11,431.49 1643.94,446.48 
					1641.08,441.69 1665.75,427.01 1696.84,398.58 1717.75,394.53 1748.22,368.1 1811.31,386.45 1870.44,326.53 1874.43,330.43 				
					"/>
				<polygon class="st25" points="1726.4,456.12 1671.49,444.55 1648.96,466.63 1645.04,462.67 1669.72,438.47 1724.65,450.05 
					1765.59,410.37 1811.23,418.04 1852.91,371.47 1879.86,354.01 1882.91,358.67 1856.58,375.73 1813.34,424.05 1767.44,416.34 
									"/>
				<polygon class="st26" points="1653.11,475.19 1649.26,471.15 1709.53,414.44 1726.65,415.24 1779.14,335.09 1813.5,354.21 
					1860.06,295.12 1864.47,298.55 1814.93,361.41 1780.96,342.51 1729.59,420.96 1711.63,420.12 				"/>
				
					<rect x="1633.86" y="370.38" transform="matrix(0.9521 -0.3058 0.3058 0.9521 -54.0267 521.8395)" class="st24" width="8.91" height="125.91"/>
				
					<rect x="1874.53" y="282.07" transform="matrix(0.9521 -0.3058 0.3058 0.9521 -17.8543 591.6166)" class="st24" width="9.61" height="141.45"/>
			</g>
		</g>
	</g>
</g>
<g>
	<g>
		<path class="st30" d="M2662.21,1019.79l-325.79-55.72c-19.56-3.35-38.62,12.62-42.56,35.66l-36.89,215.66
			c-3.94,23.03,8.73,44.42,28.29,47.77l325.79,55.72c19.56,3.35,38.62-12.62,42.56-35.65l36.89-215.66
			C2694.43,1044.53,2681.77,1023.14,2662.21,1019.79z M2636.91,1300.57l-369.95-63.27l38.41-224.54l369.94,63.27L2636.91,1300.57z"
			/>
		
			<rect x="2357.24" y="969" transform="matrix(0.1686 -0.9857 0.9857 0.1686 914.4326 3397.4302)" class="st7" width="227.81" height="375.32"/>
	</g>
	<g>
		<g>
			<g>
				<g>
					<path class="st28" d="M2371.38,995.16c-1.09,6.35-7.12,10.62-13.47,9.53l0,0c-6.35-1.09-10.63-7.12-9.54-13.47l6.46-37.73
						c1.09-6.35,7.12-10.62,13.47-9.53l0,0c6.35,1.09,10.62,7.12,9.54,13.47L2371.38,995.16z"/>
					<path class="st28" d="M2405.07,1000.92c-1.09,6.35-7.11,10.62-13.47,9.53l0,0c-6.35-1.09-10.62-7.12-9.53-13.47l6.45-37.73
						c1.09-6.35,7.12-10.62,13.47-9.54l0,0c6.36,1.09,10.62,7.12,9.54,13.47L2405.07,1000.92z"/>
				</g>
				<g>
					<path class="st28" d="M2608.22,1035.67c-1.09,6.35-7.11,10.62-13.47,9.53l0,0c-6.35-1.09-10.62-7.12-9.54-13.47l6.45-37.73
						c1.09-6.35,7.12-10.62,13.47-9.54l0,0c6.36,1.09,10.62,7.12,9.53,13.47L2608.22,1035.67z"/>
					<path class="st28" d="M2641.91,1041.43c-1.09,6.35-7.12,10.62-13.47,9.53l0,0c-6.35-1.09-10.62-7.12-9.53-13.47l6.45-37.73
						c1.09-6.35,7.11-10.62,13.47-9.54l0,0c6.35,1.09,10.63,7.12,9.54,13.47L2641.91,1041.43z"/>
				</g>
			</g>
		</g>
		<g>
			<g>
				<path class="st31" d="M2346.22,1064.67c-0.83,4.86-5.45,8.13-10.31,7.3l-19.21-3.29c-4.86-0.83-8.13-5.44-7.3-10.31l3.29-19.21
					c0.83-4.86,5.45-8.13,10.31-7.3l19.21,3.29c4.86,0.83,8.13,5.45,7.3,10.31L2346.22,1064.67z"/>
				<path class="st31" d="M2397.91,1073.51c-0.83,4.86-5.44,8.13-10.31,7.29l-19.21-3.29c-4.86-0.83-8.12-5.44-7.29-10.31
					l3.29-19.21c0.83-4.86,5.44-8.13,10.3-7.3l19.21,3.29c4.86,0.83,8.13,5.45,7.3,10.31L2397.91,1073.51z"/>
				<path class="st31" d="M2449.61,1082.35c-0.83,4.86-5.45,8.13-10.31,7.29l-19.2-3.28c-4.86-0.83-8.13-5.44-7.3-10.31l3.29-19.21
					c0.83-4.86,5.45-8.13,10.31-7.3l19.2,3.28c4.86,0.83,8.13,5.45,7.3,10.31L2449.61,1082.35z"/>
				<path class="st31" d="M2501.31,1091.19c-0.83,4.86-5.45,8.13-10.31,7.3l-19.21-3.29c-4.86-0.83-8.13-5.44-7.29-10.31l3.29-19.21
					c0.83-4.86,5.44-8.13,10.31-7.3l19.21,3.29c4.86,0.83,8.13,5.45,7.3,10.31L2501.31,1091.19z"/>
				<path class="st31" d="M2553,1100.04c-0.83,4.86-5.44,8.13-10.3,7.3l-19.21-3.29c-4.86-0.83-8.13-5.44-7.3-10.31l3.29-19.21
					c0.83-4.86,5.44-8.13,10.31-7.3l19.21,3.29c4.86,0.83,8.13,5.45,7.29,10.31L2553,1100.04z"/>
				<path class="st31" d="M2604.7,1108.88c-0.83,4.86-5.45,8.13-10.31,7.29l-19.2-3.28c-4.86-0.83-8.13-5.44-7.3-10.31l3.29-19.21
					c0.83-4.86,5.45-8.13,10.31-7.3l19.2,3.28c4.86,0.83,8.13,5.45,7.3,10.31L2604.7,1108.88z"/>
				<path class="st31" d="M2656.39,1117.72c-0.83,4.86-5.44,8.13-10.3,7.3l-19.21-3.29c-4.86-0.83-8.12-5.44-7.29-10.31l3.29-19.21
					c0.83-4.86,5.44-8.13,10.3-7.3l19.21,3.29c4.86,0.83,8.12,5.45,7.29,10.31L2656.39,1117.72z"/>
			</g>
		</g>
		<g>
			<path class="st31" d="M2336.78,1119.88c-0.83,4.86-5.45,8.13-10.31,7.29l-19.21-3.29c-4.86-0.83-8.13-5.45-7.3-10.31l3.29-19.21
				c0.83-4.86,5.45-8.13,10.31-7.3l19.21,3.29c4.86,0.83,8.13,5.45,7.3,10.31L2336.78,1119.88z"/>
			<path class="st31" d="M2388.47,1128.72c-0.83,4.86-5.44,8.13-10.31,7.29l-19.21-3.29c-4.86-0.83-8.12-5.44-7.29-10.31l3.29-19.21
				c0.83-4.86,5.44-8.13,10.3-7.3l19.21,3.29c4.86,0.83,8.13,5.45,7.3,10.31L2388.47,1128.72z"/>
			<path class="st28" d="M2440.17,1137.56c-0.83,4.86-5.44,8.13-10.31,7.29l-19.2-3.29c-4.86-0.83-8.13-5.45-7.3-10.31l3.29-19.21
				c0.83-4.86,5.45-8.13,10.31-7.3l19.2,3.28c4.86,0.83,8.13,5.45,7.3,10.31L2440.17,1137.56z"/>
			<path class="st31" d="M2491.86,1146.41c-0.83,4.86-5.45,8.13-10.31,7.29l-19.21-3.29c-4.86-0.83-8.13-5.45-7.29-10.3l3.29-19.21
				c0.83-4.86,5.44-8.13,10.31-7.3l19.21,3.29c4.86,0.83,8.13,5.45,7.3,10.31L2491.86,1146.41z"/>
			<path class="st31" d="M2543.56,1155.25c-0.83,4.86-5.44,8.13-10.3,7.29l-19.21-3.29c-4.86-0.83-8.13-5.44-7.3-10.31l3.29-19.21
				c0.83-4.86,5.44-8.13,10.31-7.3l19.21,3.29c4.86,0.83,8.12,5.45,7.29,10.31L2543.56,1155.25z"/>
			<path class="st31" d="M2595.25,1164.09c-0.83,4.86-5.45,8.13-10.31,7.29l-19.2-3.28c-4.86-0.83-8.13-5.45-7.3-10.31l3.29-19.21
				c0.83-4.86,5.45-8.13,10.31-7.3l19.2,3.28c4.86,0.83,8.13,5.45,7.3,10.31L2595.25,1164.09z"/>
			<path class="st31" d="M2646.94,1172.93c-0.83,4.86-5.44,8.13-10.3,7.3l-19.21-3.29c-4.86-0.83-8.12-5.45-7.29-10.3l3.29-19.21
				c0.83-4.86,5.44-8.13,10.3-7.3l19.21,3.29c4.86,0.83,8.12,5.45,7.29,10.31L2646.94,1172.93z"/>
		</g>
		<g>
			<g>
				<path class="st31" d="M2327.34,1175.09c-0.83,4.86-5.45,8.13-10.31,7.3l-19.21-3.29c-4.86-0.83-8.13-5.45-7.3-10.31l3.29-19.21
					c0.83-4.86,5.45-8.13,10.31-7.29l19.21,3.29c4.86,0.83,8.13,5.45,7.3,10.3L2327.34,1175.09z"/>
				<path class="st31" d="M2379.03,1183.93c-0.83,4.86-5.44,8.13-10.31,7.3l-19.21-3.29c-4.86-0.83-8.12-5.44-7.29-10.31l3.29-19.21
					c0.83-4.86,5.44-8.13,10.3-7.29l19.21,3.29c4.86,0.83,8.13,5.45,7.29,10.3L2379.03,1183.93z"/>
				<path class="st31" d="M2430.73,1192.77c-0.83,4.86-5.45,8.13-10.31,7.3l-19.2-3.28c-4.86-0.83-8.13-5.45-7.3-10.31l3.29-19.21
					c0.83-4.86,5.45-8.13,10.31-7.29l19.2,3.29c4.86,0.83,8.13,5.45,7.3,10.31L2430.73,1192.77z"/>
				<path class="st31" d="M2482.42,1201.61c-0.83,4.86-5.45,8.13-10.31,7.3l-19.21-3.29c-4.86-0.83-8.13-5.44-7.29-10.31l3.29-19.21
					c0.83-4.86,5.44-8.13,10.3-7.29l19.21,3.29c4.86,0.83,8.13,5.45,7.3,10.3L2482.42,1201.61z"/>
				<path class="st31" d="M2534.11,1210.45c-0.83,4.86-5.45,8.13-10.3,7.3l-19.21-3.29c-4.86-0.83-8.13-5.45-7.3-10.31l3.29-19.21
					c0.83-4.86,5.44-8.13,10.31-7.29l19.21,3.29c4.86,0.83,8.13,5.44,7.29,10.3L2534.11,1210.45z"/>
				<path class="st31" d="M2585.81,1219.3c-0.83,4.86-5.45,8.13-10.31,7.3l-19.21-3.28c-4.86-0.83-8.13-5.45-7.3-10.31l3.29-19.21
					c0.83-4.86,5.45-8.12,10.31-7.29l19.2,3.28c4.86,0.83,8.13,5.45,7.3,10.3L2585.81,1219.3z"/>
				<path class="st31" d="M2637.5,1228.14c-0.83,4.86-5.44,8.13-10.3,7.3l-19.21-3.29c-4.86-0.83-8.12-5.44-7.29-10.31l3.29-19.21
					c0.83-4.86,5.44-8.13,10.3-7.29l19.21,3.29c4.86,0.83,8.13,5.44,7.29,10.3L2637.5,1228.14z"/>
			</g>
		</g>
		<g>
			<g>
				<path class="st31" d="M2317.89,1230.3c-0.83,4.86-5.45,8.13-10.31,7.3l-19.21-3.29c-4.86-0.83-8.13-5.44-7.3-10.31l3.29-19.21
					c0.83-4.86,5.45-8.13,10.31-7.3l19.21,3.29c4.86,0.83,8.13,5.45,7.3,10.31L2317.89,1230.3z"/>
				<path class="st31" d="M2369.58,1239.14c-0.83,4.86-5.44,8.13-10.31,7.3l-19.21-3.29c-4.86-0.83-8.12-5.44-7.29-10.31l3.29-19.21
					c0.83-4.86,5.44-8.13,10.3-7.3l19.21,3.29c4.86,0.83,8.13,5.45,7.29,10.31L2369.58,1239.14z"/>
				<path class="st31" d="M2421.28,1247.98c-0.83,4.86-5.45,8.13-10.31,7.29l-19.2-3.28c-4.86-0.83-8.13-5.44-7.3-10.31l3.29-19.2
					c0.83-4.86,5.45-8.13,10.31-7.3l19.21,3.29c4.86,0.83,8.13,5.45,7.3,10.31L2421.28,1247.98z"/>
				<path class="st31" d="M2472.98,1256.82c-0.83,4.86-5.45,8.13-10.31,7.3l-19.21-3.28c-4.86-0.83-8.13-5.44-7.29-10.31l3.29-19.2
					c0.83-4.86,5.44-8.13,10.3-7.3l19.21,3.28c4.86,0.83,8.13,5.45,7.3,10.31L2472.98,1256.82z"/>
				<path class="st31" d="M2524.67,1265.67c-0.83,4.86-5.44,8.13-10.3,7.3l-19.21-3.29c-4.86-0.83-8.13-5.44-7.3-10.31l3.29-19.21
					c0.83-4.86,5.44-8.13,10.31-7.3l19.21,3.29c4.86,0.83,8.13,5.45,7.29,10.31L2524.67,1265.67z"/>
				<path class="st31" d="M2576.37,1274.51c-0.83,4.86-5.45,8.13-10.31,7.3l-19.2-3.28c-4.86-0.83-8.13-5.45-7.3-10.31l3.29-19.21
					c0.83-4.86,5.45-8.13,10.31-7.3l19.2,3.28c4.86,0.83,8.13,5.45,7.3,10.31L2576.37,1274.51z"/>
				<path class="st31" d="M2628.06,1283.35c-0.83,4.86-5.44,8.13-10.3,7.3l-19.21-3.29c-4.86-0.83-8.12-5.44-7.29-10.31l3.29-19.2
					c0.83-4.86,5.44-8.13,10.3-7.3l19.21,3.29c4.86,0.83,8.13,5.45,7.29,10.31L2628.06,1283.35z"/>
			</g>
		</g>
	</g>
</g>
<g>
	<g>
		<path class="st32" d="M583.17,2240.83l69.91,219.78c2.84,8.92,12.37,13.85,21.3,11.01l248.92-79.18
			c8.92-2.84,13.86-12.38,11.02-21.29l-69.91-219.78L583.17,2240.83z"/>
		<path class="st33" d="M836.35,2063.15c-2.84-8.92-12.37-13.86-21.3-11.02l-248.92,79.18c-8.93,2.84-13.86,12.37-11.02,21.3
			l28.06,88.22l281.24-89.45L836.35,2063.15z"/>
	</g>
	<path class="st1" d="M863.48,2276.71l-24.32-76.47c-2.58-8.13-11.92-12.41-20.84-9.57l-83.36,26.52l29,91.18L863.48,2276.71z"/>
	<path class="st1" d="M658.91,2350.68l24.32,76.47c2.58,8.13,11.92,12.41,20.84,9.57l83.36-26.52l-29-91.18L658.91,2350.68z"/>
	<g>
		<path class="st34" d="M591.68,2182.48c-3.19-10.04,0.66-20.22,8.61-22.75l211.37-67.23c4.06-1.29,8.39-0.33,12.09,2.25
			c-3.36-9.67-12.17-15.47-19.95-13l-211.37,67.23c-7.95,2.53-11.8,12.71-8.61,22.75l6.36,19.99c1.56,4.91,4.54,8.88,8.09,11.34
			c-0.07-0.2-0.16-0.39-0.22-0.6L591.68,2182.48z"/>
		<path class="st31" d="M610.34,2205.31l211.37-67.23c7.94-2.53,11.8-12.71,8.61-22.75l-6.36-19.99c-0.06-0.2-0.15-0.4-0.22-0.6
			c-3.7-2.57-8.03-3.54-12.09-2.25l-211.37,67.23c-7.95,2.53-11.8,12.71-8.61,22.75l6.36,19.98c0.07,0.21,0.15,0.4,0.22,0.6
			C601.95,2205.64,606.29,2206.6,610.34,2205.31z"/>
	</g>
	<g>
		<path class="st1" d="M726.87,2219.76l-83.36,26.52c-8.92,2.84-14.07,11.72-11.48,19.85l24.32,76.47l99.53-31.66L726.87,2219.76z"
			/>
		<path class="st33" d="M687.66,2250.02l7.67,24.13l23.13-7.36l3.31,10.4l-23.13,7.36l7.74,24.34l-10.85,3.45l-7.74-24.34
			l-23.13,7.36l-3.31-10.4l23.13-7.36l-7.67-24.13L687.66,2250.02z"/>
	</g>
	<path class="st33" d="M816.9,2235.17l3.55,11.17l-38.93,12.38l-3.55-11.17L816.9,2235.17z"/>
	<path class="st33" d="M742.42,2355.61l-11.64,22.49l21.56,11.15l-5.01,9.69l-21.56-11.15l-11.74,22.69l-10.11-5.23l11.74-22.69
		l-21.55-11.15l5.01-9.7l21.56,11.15l11.63-22.48L742.42,2355.61z"/>
	<g>
		<path class="st1" d="M766.52,2316.45l29,91.18l83.36-26.52c8.92-2.84,14.07-11.72,11.49-19.85l-24.32-76.47L766.52,2316.45z"/>
		<g>
			<path class="st33" d="M800.39,2348.97l-3.26-10.24l56.81-18.07l3.26,10.24L800.39,2348.97z M807.63,2371.76l-3.26-10.24
				l56.81-18.07l3.26,10.24L807.63,2371.76z"/>
		</g>
	</g>
</g>
<g>
	<g>
		<g>
			<polygon class="st7" points="2290,2505.29 1859.81,2427.31 2206.54,2553.41 			"/>
			<polyline class="st35" points="2206.54,2553.41 2152.97,2682.51 1859.81,2427.31 			"/>
			<polygon class="st36" points="2152.97,2682.51 2161.7,2576.08 1859.81,2427.31 			"/>
			<polygon class="st7" points="1859.81,2427.31 2025.52,2658.67 2161.7,2576.08 			"/>
		</g>
	</g>
</g>
<g>
	<g>
		<g>
			<polygon class="st37" points="1840.99,2525.74 1355.21,2345.95 1733.68,2564.65 			"/>
			<polyline class="st38" points="1733.68,2564.65 1644.53,2704.2 1355.21,2345.95 			"/>
			<polygon class="st39" points="1644.53,2704.2 1676.69,2581.85 1355.21,2345.95 			"/>
			<polygon class="st37" points="1355.21,2345.95 1500.76,2650.08 1676.69,2581.85 			"/>
		</g>
	</g>
</g>
<g>
	<g>
		<g>
			<polygon class="st7" points="1314.12,2477.89 993.95,2419.86 1252,2513.7 			"/>
			<polyline class="st35" points="1252,2513.7 1212.14,2609.79 993.95,2419.86 			"/>
			<polygon class="st36" points="1212.14,2609.79 1218.63,2530.58 993.95,2419.86 			"/>
			<polygon class="st7" points="993.95,2419.86 1117.28,2592.05 1218.63,2530.58 			"/>
		</g>
	</g>
</g>
<polygon class="st40" points="709.63,1184.38 699.06,1133.74 679.42,1165.97 "/>
<g>
	<rect x="2200.17" y="1841.26" class="st30" width="387.56" height="527.74"/>
	<g>
		<rect x="2232.07" y="1891.37" class="st41" width="323.77" height="446.43"/>
		<g>
			<rect x="2250.61" y="2202.62" class="st24" width="139.14" height="9.69"/>
			<rect x="2250.61" y="2217.65" class="st24" width="139.14" height="9.7"/>
			<rect x="2250.61" y="2232.68" class="st24" width="139.14" height="9.7"/>
			<rect x="2250.61" y="2247.72" class="st24" width="139.14" height="9.68"/>
			<rect x="2250.61" y="2262.74" class="st24" width="139.14" height="9.69"/>
			<rect x="2250.61" y="2277.77" class="st24" width="139.14" height="9.69"/>
			<rect x="2250.61" y="2292.8" class="st24" width="139.14" height="9.7"/>
			<rect x="2250.61" y="2307.83" class="st24" width="139.14" height="9.7"/>
		</g>
		<g>
			<rect x="2404.87" y="2202.62" class="st24" width="139.13" height="9.69"/>
			<rect x="2404.87" y="2217.65" class="st24" width="139.13" height="9.7"/>
			<rect x="2404.87" y="2232.68" class="st24" width="139.13" height="9.7"/>
			<rect x="2404.87" y="2247.72" class="st24" width="139.13" height="9.68"/>
			<rect x="2404.87" y="2262.74" class="st24" width="139.13" height="9.69"/>
			<rect x="2404.87" y="2277.77" class="st24" width="139.13" height="9.69"/>
			<rect x="2404.87" y="2292.8" class="st24" width="139.13" height="9.7"/>
		</g>
		<rect x="2250.61" y="2139.64" class="st28" width="25.62" height="22.14"/>
		<rect x="2250.61" y="2171.85" class="st29" width="25.62" height="22.16"/>
		<rect x="2400.46" y="2139.64" class="st25" width="25.62" height="22.14"/>
		<rect x="2400.46" y="2171.85" class="st26" width="25.62" height="22.16"/>
		<rect x="2290.07" y="2146.55" class="st27" width="30.1" height="9"/>
		<rect x="2290.07" y="2179.78" class="st27" width="30.1" height="8.3"/>
		<rect x="2436.85" y="2146.55" class="st27" width="30.11" height="9"/>
		<rect x="2436.85" y="2179.78" class="st27" width="30.11" height="8.31"/>
		<g>
			<rect x="2250.61" y="2025.21" class="st24" width="291.1" height="9.69"/>
			<rect x="2250.61" y="2040.24" class="st24" width="291.1" height="9.7"/>
			<rect x="2250.61" y="2055.27" class="st24" width="291.1" height="9.7"/>
			<rect x="2250.61" y="2070.31" class="st24" width="291.1" height="9.68"/>
			<rect x="2250.61" y="2085.33" class="st24" width="291.1" height="9.69"/>
			<rect x="2250.61" y="2100.37" class="st24" width="291.1" height="9.69"/>
			<rect x="2250.61" y="2115.39" class="st24" width="291.1" height="9.69"/>
		</g>
		<g>
			<g>
				<g>
					<g>
						<rect x="2375.33" y="1912.83" class="st24" width="139.86" height="45.77"/>
					</g>
				</g>
			</g>
			<rect x="2376.73" y="1969.28" class="st27" width="137.05" height="11.54"/>
			<rect x="2376.73" y="2004.31" class="st27" width="137.05" height="11.54"/>
			<rect x="2376.73" y="1986.79" class="st27" width="137.05" height="11.54"/>
		</g>
		<g>
			<g>
				<rect x="2250.61" y="1917.05" class="st27" width="115.88" height="11.54"/>
				<rect x="2250.61" y="1952.08" class="st27" width="115.88" height="11.54"/>
				<rect x="2250.61" y="1934.57" class="st27" width="115.88" height="11.54"/>
			</g>
			<g>
				<rect x="2250.61" y="1969.96" class="st27" width="115.88" height="11.54"/>
				<rect x="2250.61" y="2005" class="st27" width="115.88" height="11.54"/>
				<rect x="2250.61" y="1987.48" class="st27" width="115.88" height="11.54"/>
			</g>
		</g>
	</g>
	<path class="st7" d="M2480.54,1882.93h-173.16c-3.5,0-6.36-2.85-6.36-6.36v-29.1c0-3.51,2.85-6.36,6.36-6.36h173.16
		c3.51,0,6.36,2.85,6.36,6.36v29.1C2486.89,1880.08,2484.04,1882.93,2480.54,1882.93z M2307.37,1845.58c-1.04,0-1.89,0.85-1.89,1.89
		v29.1c0,1.04,0.85,1.89,1.89,1.89h173.16c1.04,0,1.89-0.85,1.89-1.89v-29.1c0-1.04-0.85-1.89-1.89-1.89H2307.37z"/>
	<path class="st3" d="M2324.68,1863.79c5.27,3.85,9.97,8.43,13.96,13.59h110.64c3.98-5.16,8.69-9.75,13.96-13.59
		c6.81-0.14,12.29-5.7,12.29-12.54v-12.55c0-6.93-5.62-12.55-12.55-12.55h-138.03c-6.93,0-12.55,5.62-12.55,12.55v12.55
		C2312.39,1858.09,2317.87,1863.65,2324.68,1863.79z"/>
</g>
<g>
	<g>
		<g>
			<g>
				
					<rect x="2092.3" y="550.64" transform="matrix(0.2167 -0.9762 0.9762 0.2167 1112.6543 2722.7043)" class="st7" width="321.42" height="234.71"/>
				<g>
					
						<rect x="2182.83" y="671.26" transform="matrix(0.2167 -0.9762 0.9762 0.2167 1007.9936 2699.6555)" class="st24" width="6.98" height="100.86"/>
					
						<rect x="2180.48" y="681.82" transform="matrix(0.2167 -0.9762 0.9762 0.2167 995.845 2705.6411)" class="st24" width="6.98" height="100.86"/>
					
						<rect x="2178.13" y="692.39" transform="matrix(0.2167 -0.9762 0.9762 0.2167 983.7027 2711.6326)" class="st24" width="6.98" height="100.86"/>
					
						<rect x="2175.79" y="702.95" transform="matrix(0.2167 -0.9762 0.9762 0.2167 971.5685 2717.6287)" class="st24" width="6.98" height="100.86"/>
					
						<rect x="2173.44" y="713.51" transform="matrix(0.2167 -0.9762 0.9762 0.2167 959.3946 2723.5959)" class="st24" width="6.98" height="100.86"/>
					
						<rect x="2171.1" y="724.08" transform="matrix(0.2167 -0.9762 0.9762 0.2167 947.2479 2729.5845)" class="st24" width="6.98" height="100.86"/>
					
						<rect x="2168.75" y="734.64" transform="matrix(0.2167 -0.9762 0.9762 0.2167 935.1334 2735.5957)" class="st24" width="6.98" height="100.86"/>
					
						<rect x="2166.41" y="745.21" transform="matrix(0.2167 -0.9762 0.9762 0.2167 922.9705 2741.571)" class="st24" width="6.97" height="100.86"/>
				</g>
				<g>
					
						<rect x="2292" y="695.49" transform="matrix(0.2167 -0.9762 0.9762 0.2167 1069.86 2825.2219)" class="st24" width="6.98" height="100.86"/>
					
						<rect x="2289.65" y="706.05" transform="matrix(0.2167 -0.9762 0.9762 0.2167 1057.7111 2831.207)" class="st24" width="6.97" height="100.86"/>
					
						<rect x="2287.31" y="716.62" transform="matrix(0.2167 -0.9762 0.9762 0.2167 1045.576 2837.2019)" class="st24" width="6.98" height="100.86"/>
					
						<rect x="2284.96" y="727.18" transform="matrix(0.2167 -0.9762 0.9762 0.2167 1033.4314 2843.1929)" class="st24" width="6.98" height="100.86"/>
					
						<rect x="2282.62" y="737.74" transform="matrix(0.2167 -0.9762 0.9762 0.2167 1021.2809 2849.1741)" class="st24" width="6.98" height="100.86"/>
					
						<rect x="2280.27" y="748.31" transform="matrix(0.2167 -0.9762 0.9762 0.2167 1009.0854 2855.1331)" class="st24" width="6.97" height="100.86"/>
					
						<rect x="2277.93" y="758.88" transform="matrix(0.2167 -0.9762 0.9762 0.2167 997.001 2861.1626)" class="st24" width="6.98" height="100.86"/>
					
						<rect x="2275.58" y="769.44" transform="matrix(0.2167 -0.9762 0.9762 0.2167 984.8292 2867.1323)" class="st24" width="6.97" height="100.86"/>
				</g>
				
					<rect x="2147.03" y="663.59" transform="matrix(0.2167 -0.9762 0.9762 0.2167 1031.1492 2630.8684)" class="st28" width="15.95" height="18.57"/>
				
					<rect x="2142" y="686.24" transform="matrix(0.2167 -0.9762 0.9762 0.2167 1005.0477 2643.6748)" class="st29" width="15.95" height="18.57"/>
				
					<rect x="2253.08" y="687.13" transform="matrix(0.2168 -0.9762 0.9762 0.2168 1091.1058 2752.7664)" class="st25" width="15.95" height="18.56"/>
				
					<rect x="2248.05" y="709.78" transform="matrix(0.2167 -0.9762 0.9762 0.2167 1065.1313 2765.6431)" class="st26" width="15.95" height="18.57"/>
				
					<rect x="2181.22" y="668.76" transform="matrix(0.2167 -0.9762 0.9762 0.2167 1047.6295 2664.9736)" class="st27" width="6.48" height="21.83"/>
				
					<rect x="2176.34" y="691.86" transform="matrix(0.2167 -0.9762 0.9762 0.2167 1020.9194 2677.9895)" class="st27" width="5.98" height="21.83"/>
				
					<rect x="2285.1" y="691.81" transform="matrix(0.2167 -0.9762 0.9762 0.2167 1106.3579 2784.3687)" class="st27" width="6.48" height="21.83"/>
				
					<rect x="2280.21" y="714.92" transform="matrix(0.2167 -0.9762 0.9762 0.2167 1079.7964 2797.4709)" class="st27" width="5.98" height="21.83"/>
				<g>
					<g>
						<path class="st24" d="M2256.13,527.21c1.45,0.09,3.29,0.37,5.21,0.79c3.19,0.71,5.13,1.74,6.48,3.31
							c1.46,1.67,2.1,3.97,1.44,6.91c-0.71,3.19-2.37,5.13-4.29,6.13c-2.09,1.07-4.93,1.17-8.22,0.44
							c-1.97-0.44-3.33-0.87-4.25-1.21L2256.13,527.21z M2256.92,541.66c0.31,0.14,0.83,0.26,1.3,0.37
							c3.43,0.79,6.09-0.59,6.97-4.58c0.79-3.45-0.84-5.74-4.11-6.46c-0.84-0.19-1.41-0.24-1.75-0.23L2256.92,541.66z"/>
						<path class="st24" d="M2274.28,544l-2.14,4.01l-3.94-0.87l8.83-15.53l4.98,1.11l1.5,17.82l-4.08-0.91l-0.35-4.57L2274.28,544z
							 M2279.16,542.13l-0.26-3.77c-0.08-1.05-0.1-2.36-0.13-3.4l-0.05-0.01c-0.47,0.94-0.99,2.14-1.49,3.04l-1.78,3.32
							L2279.16,542.13z"/>
						<path class="st24" d="M2289.92,537.79l-4.51-1l0.7-3.16l12.9,2.86l-0.7,3.16l-4.58-1.02l-3,13.5l-3.81-0.85L2289.92,537.79z"
							/>
						<path class="st24" d="M2300.4,549.8l-2.15,4.01l-3.94-0.87l8.83-15.53l4.98,1.1l1.51,17.82l-4.08-0.91l-0.34-4.56
							L2300.4,549.8z M2305.28,547.92l-0.26-3.77c-0.08-1.05-0.1-2.36-0.13-3.4l-0.05-0.01c-0.47,0.94-1,2.14-1.49,3.04l-1.78,3.32
							L2305.28,547.92z"/>
					</g>
				</g>
				<g>
					<g>
						<path class="st24" d="M2172.26,540.41l-25.05,112.87l26,5.77l176.62,39.2l7.53,1.67l25.05-112.87L2172.26,540.41z
							 M2300.77,574.41l32.73,7.26l-4.71,21.23l-32.73-7.27L2300.77,574.41z M2220.31,556.55l32.71,7.26l-4.71,21.23l-32.71-7.26
							L2220.31,556.55z M2190.02,657.24l-0.06-0.01l-9.23-2.05l-8.78-1.95l-13.76-3.05l-2.71-0.6l1.03-4.63l1.72-7.76l1.01-4.57
							l0.63-2.86l0.02-0.09l23.4,5.2c-0.05,0.02-0.11,0.04-0.16,0.06l11.03,2.45c0.05-0.02,0.1-0.04,0.16-0.06l0.1,0.02
							L2190.02,657.24z M2196.07,630.01c-0.31,0.12-0.63,0.25-0.95,0.37l-0.34,1.53l-2.31-0.51l-30.4-6.75l-0.99-0.22l5.03-22.74
							l1.01,0.22l0.01-0.06l32.71,7.26l-0.01,0.06l0.83,0.18L2196.07,630.01z M2201.85,604.09l-34.56-7.67l5.05-22.76l34.56,7.67
							L2201.85,604.09z M2208.06,576.1l-34.56-7.67l4.71-21.23l34.56,7.67L2208.06,576.1z M2230.3,666.18l-32.71-7.26l4.42-19.91
							l32.71,7.26L2230.3,666.18z M2235.96,641.05l-0.09-0.02l-32.41-7.19l-0.21-0.05l1.58-7.14c-0.03,0.01-0.06,0.02-0.09,0.03
							l3.47-15.65l0.08,0.02l0.01-0.06l32.71,7.26L2235.96,641.05z M2242.19,613.01l-1.32-0.29c-0.02,0.01-0.04,0.01-0.06,0.02
							l-31.42-6.97l5.05-22.74l32.7,7.26l-0.33,1.47l0.09,0.02L2242.19,613.01z M2270.54,675.12l-32.72-7.26l4.42-19.91l32.73,7.26
							L2270.54,675.12z M2276.13,649.97l-32.72-7.26l4.97-22.39l0.01,0l0.09-0.41l32.71,7.26l-2.08,9.39l0,0L2276.13,649.97z
							 M2282.34,621.96l-32.54-7.22l-0.18-0.07l5.04-22.73l32.73,7.26L2282.34,621.96z M2288.56,593.97l-32.73-7.26l4.71-21.23
							l32.73,7.26L2288.56,593.97z M2310.77,684.05l-32.73-7.27l4.42-19.91l32.73,7.27L2310.77,684.05z M2316.87,657.42l-0.18-0.04
							l-0.33,1.52l-32.73-7.26l2.52-11.35l0.19,0.1l1.25-5.63l-0.19-0.1l1.28-5.75l0.2,0.04l0,0l32.71,7.26L2316.87,657.42z
							 M2322.57,630.89l-5.72-1.27l-27.01-5.99l5.05-22.76l32.73,7.27l-0.26,1.2L2322.57,630.89z M2351,692.97l-32.7-7.26
							l4.42-19.91l32.7,7.26L2351,692.97z M2356.58,667.83l-32.7-7.26l5.05-22.74l32.7,7.26L2356.58,667.83z M2363.64,638.49
							l-0.32,1.47l-0.53-0.14l-32.7-7.26l5.05-22.76l6.34,1.41l-0.09,0.07l8.82,1.96l0.09-0.07l17.55,3.89l-0.02,0.09l0.53,0.12
							L2363.64,638.49z M2369.54,611.95l-0.53-0.12l0,0.02l-13-2.88l0.02-0.01l-8.86-1.97l-10.34-2.3l-0.51-0.11l4.71-21.23
							l0.51,0.11l28.66,6.36l4.05,0.9L2369.54,611.95z"/>
					</g>
				</g>
				<polygon class="st28" points="2155.51,648.2 2153.57,644.07 2201.03,622.06 2221.29,638.08 2266.75,618.86 2282.52,640.23 
					2321.6,601.06 2362.94,659.92 2359.18,662.52 2321,608.14 2282,647.23 2265.21,624.47 2220.58,643.33 2200.41,627.38 				"/>
				<polygon class="st29" points="2302.72,643.43 2265.62,604.26 2234.47,610.1 2218.11,604.36 2185.25,611.41 2161.31,611.59 
					2161.26,607.04 2184.73,606.86 2218.4,599.63 2234.82,605.4 2267.23,599.33 2304.16,638.31 2370.61,620.44 2371.82,624.84 				
					"/>
				<polygon class="st25" points="2215.51,652.43 2181.54,621.6 2156.53,627.88 2155.4,623.47 2182.8,616.58 2216.78,647.42 
					2262.04,636.32 2291.08,660.57 2339.7,644.91 2365.92,643.72 2366.15,648.26 2340.54,649.43 2290.09,665.68 2260.88,641.3 				
					"/>
				<polygon class="st26" points="2155.93,635.64 2154.88,631.2 2220.81,616.06 2232.56,623.69 2302.67,588.8 2319.02,616.47 
					2376.25,594 2377.95,598.23 2317.06,622.14 2300.89,594.79 2232.27,628.94 2219.95,620.94 				"/>
				
					<rect x="2111.31" y="596.36" transform="matrix(0.2167 -0.9762 0.9762 0.2167 1108.317 2581.3357)" class="st24" width="102.92" height="7.29"/>
				
					<rect x="2308.24" y="638.71" transform="matrix(0.2167 -0.9762 0.9762 0.2167 1225.9146 2813.1819)" class="st24" width="115.62" height="7.85"/>
			</g>
		</g>
	</g>
</g>
</svg>
